<ttFont>
          <CharString index="0">
            hlineto
            -8 -5 -103 callsubr
            return
          </CharString>
          <CharString index="1">
            rlineto
            -8 -1 -86 callgsubr
            return
          </CharString>
          <CharString index="2">
            768 10 callsubr
            -67 hlineto
            -145 600 rlineto
            30 -8 -12 13 -33 hhcurveto
            -136 -60 callsubr
            55 hlineto
            -295 -568 -52 callsubr
            225 -46 callsubr
            -70 hlineto
            89 173 rlineto
            279 hlineto
            40 -173 rlineto
            -69 -98 callsubr
            24 317 rmoveto
            -226 hlineto
            152 297 rlineto
            4 hlineto
            return
          </CharString>
          <CharString index="3">
            11 callsubr
            1 -4 4 -8 hhcurveto
            return
          </CharString>
          <CharString index="4">
            -4 -100 callgsubr
            return
          </CharString>
          <CharString index="5">
            8 1 -93 callsubr
            return
          </CharString>
          <CharString index="6">
            6 -104 callsubr
            return
          </CharString>
          <CharString index="7">
            rmoveto
            6 6 1 7 -3 6 -20 28 rcurveline
            -5 7 -7 0 -7 -5 -139 -105 rcurveline
            -107 105 -6 5 -7 0 -6 -7 rlinecurve
            -30 -28 -5 -6 0 -8 6 -5 rlinecurve
            135 -136 rlineto
            -3 3 3 -1 4 hhcurveto
            3 3 1 4 4 hvcurveto
            return
          </CharString>
          <CharString index="8">
            -568 -96 callsubr
            return
          </CharString>
          <CharString index="9">
            -107 callsubr
            3 -4 8 hhcurveto
            return
          </CharString>
          <CharString index="10">
            -77 callsubr
            -43 rlineto
            -8 return
          </CharString>
          <CharString index="11">
            rlineto
            -77 -104 callgsubr
            return
          </CharString>
          <CharString index="12">
            10 10 6 55 125 -69 77 -123 -133 -142 -104 -184 -136 91 -82 122 132 80 -36 callgsubr
            -24 27 rcurveline
            -34 callsubr
            -18 -66 -54 -86 hhcurveto
            -79 -74 56 117 12 hvcurveto
            10 61 rmoveto
            96 26 75 40 69 hhcurveto
            86 41 -55 -81 -7 hvcurveto
            return
          </CharString>
          <CharString index="13">
            -23 callgsubr
            30 215 3 3 179 260 75 90 rlinecurve
            -32 callsubr
            -226 hlineto
            -7 -6 6 callgsubr
            8 hhcurveto
            65 hlineto
            -194 -278 rlineto
            -6 hlineto
            -118 278 rlineto
            66 -50 callsubr
            -225 -98 callsubr
            68 hlineto
            49 -90 106 -260 3 -4 -30 -214 rcurveline
            -76 -23 callsubr
            return
          </CharString>
          <CharString index="14">
            -4 -85 callgsubr
            return
          </CharString>
          <CharString index="15">
            -81 callsubr
            -1 hvcurveto
            return
          </CharString>
          <CharString index="16">
            -4 -91 callgsubr
            return
          </CharString>
          <CharString index="17">
            -8 -71 callsubr
            return
          </CharString>
          <CharString index="18">
            8 5 -57 callsubr
            -3 4 -8 hhcurveto
            -56 hlineto
            58 413 -105 callgsubr
            -124 -85 callsubr
            53 hlineto
            -28 -205 rlineto
            return
          </CharString>
          <CharString index="19">
            -8 -1 3 -82 callgsubr
            return
          </CharString>
          <CharString index="20">
            43 -105 callgsubr
            return
          </CharString>
          <CharString index="21">
            7 -101 callsubr
            return
          </CharString>
          <CharString index="22">
            hlineto
            -7 -5 -102 callgsubr
            return
          </CharString>
          <CharString index="23">
            159 129 116 174 135 -91 81 -125 -153 -135 -109 -178 -135 89 -84 127 hvcurveto
            10 70 rmoveto
            -80 -62 60 97 129 99 80 95 78 64 -59 -96 -127 -97 -84 -97 hvcurveto
            return
          </CharString>
          <CharString index="24">
            hlineto
            -79 callgsubr
            return
          </CharString>
          <CharString index="25">
            -7 callgsubr
            hstemhm
            70 83 hintmask 01011000
            562 hmoveto
            -78 callgsubr
            hintmask 10101000
            -71 callgsubr
            hintmask 01101000
            -35 callsubr
            hintmask 10101000
            -191 63 rmoveto
            -78 -53 60 70 callgsubr
            85 98 75 55 -56 -96 -131 -90 -83 -91 hvcurveto
            return
          </CharString>
          <CharString index="26">
            hlineto
            -72 callgsubr
            return
          </CharString>
          <CharString index="27">
            47 -16 -47 51 -90 hhcurveto
            -148 -116 -117 -175 -125 71 -89 122 89 59 49 48 29 hvcurveto
            -16 -109 rlineto
            -104 -15 -75 -39 -89 hhcurveto
            -100 -37 43 7 -9 hvcurveto
            -5 4 -7 1 -5 -6 -31 -37 rcurveline
            -6 -6 2 -7 5 -5 rrcurveto
            -6 7 46 -60 131 hhcurveto
            49 297 rmoveto
            -78 -54 35 callsubr
            85 85 98 74 56 -56 -96 -124 -86 -90 -95 hvcurveto
            return
          </CharString>
          <CharString index="28">
            604 -107 callgsubr
            return
          </CharString>
          <CharString index="29">
            -14 -98 rlineto
            -301 hlineto
            34 245 rlineto
            254 -66 callsubr
            -253 hlineto
            35 248 rlineto
            301 hlineto
            -13 -98 rlineto
            return
          </CharString>
          <CharString index="30">
            -92 callsubr
            -6 return
          </CharString>
          <CharString index="31">
            -20 callgsubr
            6 42 rlineto
            8 1 -5 6 -8 hhcurveto
            -295 hlineto
            -8 -6 9 callsubr
            -6 -11 callsubr
            return
          </CharString>
          <CharString index="32">
            114 29 callsubr
            -94 callsubr
            return
          </CharString>
          <CharString index="33">
            rlineto
            -73 callsubr
            return
          </CharString>
          <CharString index="34">
            8 1 -53 callgsubr
            return
          </CharString>
          <CharString index="35">
            44 -28 -56 35 -103 hhcurveto
            -159 -104 -97 -120 hvcurveto
            -232 400 79 -147 vvcurveto
            -83 -70 -50 -112 -161 -34 136 15 2 vhcurveto
            3 21 -57 callgsubr
            -63 hlineto
            -7 -6 -5 43 callgsubr
            return
          </CharString>
          <CharString index="36">
            -1 4 -4 return
          </CharString>
          <CharString index="37">
            -83 callsubr
            2 return
          </CharString>
          <CharString index="38">
            hlineto
            8 61 rlineto
            66 10 37 34 53 hhcurveto
            31 16 -15 -4 5 hvcurveto
            6 -5 6 2 5 5 29 31 rcurveline
            6 6 0 5 -6 6 rrcurveto
            8 -7 -30 32 -59 hhcurveto
            -100 -69 -57 -113 -15 hvcurveto
            -9 -62 rlineto
            -58 -97 callsubr
            -1 4 -4 8 hhcurveto
            58 hlineto
            -51 -358 rlineto
            -56 hlineto
            -8 -4 -102 callgsubr
            return
          </CharString>
          <CharString index="39">
            rlineto
            78 hlineto
            7 6 4 8 1 hvcurveto
            7 51 rlineto
            8 1 -56 callgsubr
            4 -4 8 hhcurveto
            76 hlineto
            return
          </CharString>
          <CharString index="40">
            -222 rmoveto
            -4 3 -2 4 51 44 39 85 36 -16 22 -30 -29 -25 -24 -30 vhcurveto
            return
          </CharString>
          <CharString index="41">
            hlineto
            -86 callsubr
            return
          </CharString>
          <CharString index="42">
            rmoveto
            -52 callgsubr
            hintmask 11001000
            -8 -1 -86 callgsubr
            45 -41 callsubr
            24 170 rlineto
            hintmask 10011000
            -55 callgsubr
            -38 -31 callsubr
            -7 -55 rlineto
            -1 hlineto
            hintmask 11001000
            30 -17 -41 44 -91 hhcurveto
            -133 -143 -103 -185 -137 91 -81 122 138 74 -36 callgsubr
            rrcurveto
            endchar
          </CharString>
          <CharString index="43">
            -12 callsubr
            hintmask 10100000
            -11 -79 rlineto
            -274 hlineto
            376 346 10 8 7 10 2 14 rlinecurve
            5 35 -63 callgsubr
            -418 -92 callsubr
            -18 -132 rlineto
            -88 callsubr
            43 14 callgsubr
            hintmask 01010000
            11 77 rlineto
            270 hlineto
            -371 -338 -11 -9 -6 -6 -3 -19 rlinecurve
            -6 -41 -106 callsubr
            endchar
          </CharString>
          <CharString index="44">
            8 5 -104 callsubr
            return
          </CharString>
          <CharString index="45">
            7 6 4 -20 callsubr
            23 161 -105 callgsubr
            -54 32 callgsubr
            hintmask 10101000
            -13 -98 rlineto
            -302 hlineto
            35 245 rlineto
            253 -83 callgsubr
            -254 hlineto
            35 248 rlineto
            302 hlineto
            -14 -98 rlineto
            hintmask 10110000
            -8 -1 4 16 callgsubr
            5 -53 callsubr
            23 83 callgsubr
            -5 4 -7 hhcurveto
            -669 hlineto
            -8 59 callgsubr
            54 hlineto
            -321 -568 rlineto
            -68 -103 callgsubr
            224 -83 callgsubr
            -70 hlineto
            140 245 rlineto
            208 hlineto
            -35 -245 -17 callsubr
            132 395 rmoveto
            -178 hlineto
            142 248 rlineto
            71 hlineto
            endchar
          </CharString>
          <CharString index="46">
            -58 callgsubr
            22 161 -74 callsubr
            -55 -92 callsubr
            return
          </CharString>
          <CharString index="47">
            -104 callgsubr
            7 hhcurveto
            return
          </CharString>
          <CharString index="48">
            8 2 -93 callsubr
            return
          </CharString>
          <CharString index="49">
            43 -74 callsubr
            return
          </CharString>
          <CharString index="50">
            4 -20 callsubr
            6 64 callsubr
            return
          </CharString>
          <CharString index="51">
            rlineto
            -62 callgsubr
            return
          </CharString>
          <CharString index="52">
            715 -19 callsubr
            return
          </CharString>
          <CharString index="53">
            rlineto
            77 -83 callsubr
            return
          </CharString>
          <CharString index="54">
            5 -20 callsubr
            return
          </CharString>
          <CharString index="55">
            rlineto
            -67 -98 callsubr
            return
          </CharString>
          <CharString index="56">
            hstem
            94 95 516 95 vstem
            301 -51 rmoveto
            7 6 4 8 4 hvcurveto
            17 40 rlineto
            -5 19 20 -3 22 hhcurveto
            218 186 171 249 136 -66 100 -94 44 hvcurveto
            34 78 rlineto
            8 3 43 callsubr
            -7 -4 -8 -3 hvcurveto
            -25 -55 rlineto
            5 -21 -22 3 -24 hhcurveto
            -199 -205 -154 -258 -137 64 -108 102 -46 hvcurveto
            -26 -60 rlineto
            -8 -4 4 -4 7 hhcurveto
            56 158 rmoveto
            -62 33 -46 71 105 vvcurveto
            216 161 107 128 5 vhcurveto
            17 18 -2 -6 18 hvcurveto
            -161 -555 rmoveto
            232 525 rlineto
            57 -33 46 -69 -101 vvcurveto
            -210 -152 -118 -134 -16 -18 2 4 -15 vhcurveto
            return
          </CharString>
          <CharString index="57">
            hlineto
            -63 callsubr
            return
          </CharString>
          <CharString index="58">
            -12 -5 4 -5 18 hhcurveto
            30 16 -5 -17 -22 -13 -15 -35 -21 -17 9 4 -5 hvcurveto
            -4 3 -5 0 -7 -6 -12 -12 rcurveline
            -6 -6 2 -7 4 -3 rrcurveto
            return
          </CharString>
          <CharString index="59">
            0 -43 callgsubr
            return
          </CharString>
          <CharString index="60">
            hlineto
            -31 -11 -52 -34 -52 vvcurveto
            -41 29 -23 44 40 28 20 4 7 vhcurveto
            6 4 2 4 -3 9 return
          </CharString>
          <CharString index="61">
            -70 callsubr
            -4 4 -8 hhcurveto
            return
          </CharString>
          <CharString index="62">
            rmoveto
            -44 callsubr
          </CharString>
          <CharString index="63">
            -89 callsubr
            hintmask 10100000
            -101 callgsubr
            -15 -91 rlineto
            hintmask 01100000
            22 callsubr
            endchar
          </CharString>
          <CharString index="64">
            rmoveto
            -8 -5 -91 callsubr
            -50 -7 -13 -15 -31 hhcurveto
            return
          </CharString>
          <CharString index="65">
            8 1 -4 -24 callgsubr
            return
          </CharString>
          <CharString index="66">
            hlineto
            -40 callgsubr
            return
          </CharString>
          <CharString index="67">
            -45 -36 -74 -56 -127 hhcurveto
            -112 -106 84 157 200 154 124 142 125 69 -77 -53 -5 hvcurveto
            -1 -12 rlineto
            return
          </CharString>
          <CharString index="68">
            603 -94 callgsubr
            return
          </CharString>
          <CharString index="69">
            hstemhm
            70 83 hintmask 01011100
            562 hmoveto
            -78 callgsubr
            hintmask 10101100
            -71 callgsubr
            hintmask 01101100
            -35 callsubr
            hintmask 10101100
            -191 63 rmoveto
            -78 -53 60 70 callgsubr
            85 98 75 55 -56 -96 -131 -90 -83 -91 hvcurveto
            return
          </CharString>
          <CharString index="70">
            -97 callsubr
            -2 5 -4 8 hhcurveto
            return
          </CharString>
          <CharString index="71">
            8 7 -11 callgsubr
            -70 hlineto
            80 568 82 callgsubr
            hintmask 11000000
            -51 callgsubr
            hintmask 10100000
            15 106 rlineto
            190 hlineto
            -80 -568 rlineto
            -76 -7 callsubr
            -7 -49 -16 callsubr
          </CharString>
          <CharString index="72">
            -31 -4 12 -11 29 hhcurveto
            return
          </CharString>
          <CharString index="73">
            -6 5 -6 -1 -6 -7 rrcurveto
            -23 return
          </CharString>
          <CharString index="74">
            hlineto
            -51 -358 rlineto
            -56 hlineto
            -8 -4 -102 callgsubr
            endchar
          </CharString>
          <CharString index="75">
            68 -83 callgsubr
            return
          </CharString>
          <CharString index="76">
            hlineto
            -8 -5 -5 -91 callgsubr
            return
          </CharString>
          <CharString index="77">
            -107 rmoveto
            -3 8 -7 -3 -8 -3 rrcurveto
            -5 -9 -16 -6 -16 hhcurveto
            -20 -14 8 21 43 60 33 22 11 hvcurveto
            return
          </CharString>
          <CharString index="78">
            59 175 61 vstem
            233 359 rmoveto
            107 66 95 122 87 -43 61 -79 -103 -70 -93 -122 -90 43 -60 79 hvcurveto
            8 52 callgsubr
            329 -421 rmoveto
            106 67 95 122 87 -44 61 -78 -104 -69 -93 -122 -90 43 -60 79 hvcurveto
            7 52 callgsubr
            return
          </CharString>
          <CharString index="79">
            hlineto
            -8 -6 -5 -8 -1 hvcurveto
            -7 -51 -16 callsubr
          </CharString>
          <CharString index="80">
            -584 rlineto
            -56 hlineto
            -8 -4 -102 callgsubr
            return
          </CharString>
          <CharString index="81">
            -37 callsubr
            56 hlineto
            return
          </CharString>
          <CharString index="82">
            2 callgsubr
            -5 5 -8 hhcurveto
            return
          </CharString>
          <CharString index="83">
            2 1 53 148 104 hhcurveto
            68 31 -47 -75 -11 hvcurveto
            -36 -263 rlineto
            -35 callsubr
            return
          </CharString>
          <CharString index="84">
            hlineto
            -8 -6 -103 callsubr
            5 -4 7 hhcurveto
            return
          </CharString>
          <CharString index="85">
            -41 callsubr
            45 6 16 return
          </CharString>
          <CharString index="86">
            -88 callsubr
            63 45 callsubr
            30 218 rlineto
            return
          </CharString>
          <CharString index="87">
            8 1 hvcurveto
            return
          </CharString>
          <CharString index="88">
            82 callsubr
            -4 7 -26 38 rcurveline
            -5 6 -8 1 -6 -6 -181 -141 rcurveline
            -7 -6 -3 -7 5 -6 21 -29 rcurveline
            5 -7 7 0 7 4 rrcurveto
            359 134 82 callsubr
            -5 7 -25 38 rcurveline
            -6 6 -7 1 -7 -6 -180 -141 rcurveline
            -8 -6 -2 -7 5 -6 20 -29 rcurveline
            5 -7 8 0 7 4 rrcurveto
            return
          </CharString>
          <CharString index="89">
            11 -27 -31 6 -31 hhcurveto
            -153 -135 -109 -179 -80 31 -66 53 -35 hvcurveto
            -30 -47 rlineto
            -7 -4 3 -25 callgsubr
            70 132 rmoveto
            -29 24 -18 42 51 vvcurveto
            129 99 80 95 19 20 -5 -8 17 vhcurveto
            -155 -343 rmoveto
            201 310 rlineto
            24 -24 16 -40 -46 vvcurveto
            -126 -93 -84 -99 -17 -17 3 7 -15 vhcurveto
            return
          </CharString>
          <CharString index="90">
            rlineto
            -76 -98 callsubr
            return
          </CharString>
          <CharString index="91">
            -56 callsubr
            endchar
          </CharString>
          <CharString index="92">
            -65 -8 71 -42 -21 230 60 137 72 return
          </CharString>
          <CharString index="93">
            rmoveto
            -66 -10 -37 -34 -54 hhcurveto
            -30 -16 15 4 -4 hvcurveto
            -6 5 -8 -2 -5 -5 -27 -30 rcurveline
            -6 -6 -1 -7 6 -6 rrcurveto
            -8 7 29 -31 59 hhcurveto
            100 69 57 113 16 hvcurveto
            76 544 -63 callgsubr
            -127 -97 callsubr
            -1 4 -4 7 hhcurveto
            57 hlineto
            return
          </CharString>
          <CharString index="94">
            hlineto
            -88 callgsubr
            return
          </CharString>
          <CharString index="95">
            -58 callgsubr
            18 134 -63 callgsubr
            -44 -92 callsubr
            return
          </CharString>
          <CharString index="96">
            -42 -56 callsubr
            return
          </CharString>
          <CharString index="97">
            56 callgsubr
            -28 -18 -21 -32 callgsubr
            return
          </CharString>
          <CharString index="98">
            rmoveto
            -4 3 -2 4 51 44 40 84 37 -16 21 -30 -29 -25 -23 -30 vhcurveto
            return
          </CharString>
          <CharString index="99">
            196 0 15 callgsubr
            return
          </CharString>
          <CharString index="100">
            hlineto
            -8 -6 -5 -91 callgsubr
            return
          </CharString>
          <CharString index="101">
            850 32 callsubr
            -31 -29 -27 -32 -26 19 -20 26 32 29 27 31 vhcurveto
            endchar
          </CharString>
          <CharString index="102">
            -107 -7 70 173 61 136 66 return
          </CharString>
          <CharString index="103">
            -228 182 -94 94 return
          </CharString>
          <CharString index="104">
            5 -3 callgsubr
            return
          </CharString>
          <CharString index="105">
            55 rmoveto
            -45 -25 37 62 94 41 62 65 45 24 -35 -61 -96 return
          </CharString>
          <CharString index="106">
            81 -53 -21 477 247 -82 82 -5 -20 hstemhm
            143 96 return
          </CharString>
          <CharString index="107">
            -39 hlineto
            -6 -4 -1 -2 -3 hvcurveto
            -108 -74 -5 -4 -1 -3 2 -3 rlinecurve
            17 -28 3 -4 4 1 3 2 rlinecurve
            80 55 -35 -250 rlineto
            -72 hlineto
            -6 -5 -3 -6 -1 hvcurveto
            -3 -29 rlineto
            -7 -1 3 -3 6 hhcurveto
            endchar
          </CharString>
          <CharString index="108">
            -91 callsubr
            -7 -51 rlineto
            return
          </CharString>
          <CharString index="109">
            84 -56 -21 256 71 161 236 -82 82 -6 -20 return
          </CharString>
          <CharString index="110">
            -20 callgsubr
            22 160 -74 callsubr
            -55 -92 callsubr
            return
          </CharString>
          <CharString index="111">
            -85 callgsubr
            -186 -97 callsubr
            -1 return
          </CharString>
          <CharString index="112">
            14 callgsubr
            5 43 rlineto
            8 return
          </CharString>
          <CharString index="113">
            rlineto
            -90 callsubr
            7 hhcurveto
            return
          </CharString>
          <CharString index="114">
            hlineto
            -8 -4 -91 callsubr
            return
          </CharString>
          <CharString index="115">
            49 -45 callgsubr
            return
          </CharString>
          <CharString index="116">
            -6 -91 callgsubr
            return
          </CharString>
          <CharString index="117">
            hmoveto
            -86 callsubr
            return
          </CharString>
          <CharString index="118">
            4 -3 callgsubr
            return
          </CharString>
          <CharString index="119">
            -34 -234 72 155 24 callgsubr
            -7 -20 return
          </CharString>
          <CharString index="120" raw="1">
            281dc306 0b  
          </CharString>
          <CharString index="121">
            148 -7 81 571 79 return
          </CharString>
          <CharString index="122">
            48 15 51 11 -20 hstemhm
            return
          </CharString>
          <CharString index="123">
            6 5 0 vhcurveto
            return
          </CharString>
          <CharString index="124">
            -82 callgsubr
            55 hlineto
            return
          </CharString>
          <CharString index="125">
            227 -74 rmoveto
            8 7 4 8 3 hvcurveto
            356 810 rlineto
            8 4 -3 29 callgsubr
            -6 77 callgsubr
            2 -82 callgsubr
            return
          </CharString>
          <CharString index="126">
            vstem
            684 381 rmoveto
            145 -111 119 -147 -175 -167 -154 -176 -145 111 -119 147 174 168 154 176 vhcurveto
            return
          </CharString>
          <CharString index="127">
            24 callgsubr
            hstem
            70 84 336 84 vstem
            return
          </CharString>
          <CharString index="128">
            -106 -7 70 235 201 -70 70 -6 -20 return
          </CharString>
          <CharString index="129">
            -31 -4 13 -11 29 hhcurveto
            return
          </CharString>
          <CharString index="130">
            72 -44 -21 425 67 return
          </CharString>
          <CharString index="131">
            -56 callsubr
            39 hlineto
            return
          </CharString>
          <CharString index="132">
            27 -21 23 -28 -34 -30 -29 -34 -28 20 -21 28 33 32 28 34 vhcurveto
            endchar
          </CharString>
          <CharString index="133">
            4 -20 callsubr
            7 -87 callsubr
            return
          </CharString>
          <CharString index="134">
            51 -51 152 hstemhm
            return
          </CharString>
          <CharString index="135">
            -85 -234 72 155 72 360 67 return
          </CharString>
          <CharString index="136">
            -6 callgsubr
            hstem
            return
          </CharString>
          <CharString index="137">
            -159 -7 65 -37 -21 433 66 hstemhm
            105 82 190 88 hintmask 10111000
            return
          </CharString>
          <CharString index="138">
            -4 0 75 -75 170 378 170 -75 75 return
          </CharString>
          <CharString index="139">
            rmoveto
            71 callgsubr
            return
          </CharString>
          <CharString index="140">
            0 -1 2 5 vvcurveto
            40 29 18 20 4 2 2 4 1 vhcurveto
            endchar
          </CharString>
          <CharString index="141">
            hmoveto
            8 5 26 callsubr
            return
          </CharString>
          <CharString index="142">
            60 93 128 return
          </CharString>
          <CharString index="143">
            -5 -85 callgsubr
            return
          </CharString>
          <CharString index="144">
            rcurveline
            -6 5 return
          </CharString>
          <CharString index="145">
            684 -43 callsubr
            return
          </CharString>
          <CharString index="146">
            -102 callsubr
            -126 -37 callsubr
            55 hlineto
            return
          </CharString>
          <CharString index="147">
            70 0 75 214 71 283 75 hstem
            595 88 vstem
            return
          </CharString>
          <CharString index="148">
            32 callgsubr
            -6 return
          </CharString>
          <CharString index="149">
            -40 callgsubr
            13 98 return
          </CharString>
          <CharString index="150">
            -2 29 callgsubr
            return
          </CharString>
          <CharString index="151">
            73 callsubr
            -7 -20 hstemhm
            return
          </CharString>
          <CharString index="152">
            hlineto
            8 5 4 8 2 hvcurveto
            return
          </CharString>
          <CharString index="153">
            624 32 callsubr
            -31 -29 -27 -32 -26 19 -20 26 32 29 27 31 vhcurveto
            endchar
          </CharString>
          <CharString index="154">
            51 52 callsubr
            return
          </CharString>
          <CharString index="155">
            hlineto
            7 6 -57 callsubr
            return
          </CharString>
          <CharString index="156" raw="1">
            523a0a0b   
          </CharString>
          <CharString index="157">
            -17 6 38 -55 103 hhcurveto
            endchar
          </CharString>
          <CharString index="158">
            399 57 callgsubr
            return
          </CharString>
          <CharString index="159">
            73 callgsubr
            -29 -29 -25 -23 -30 return
          </CharString>
          <CharString index="160">
            6 -20 callsubr
            return
          </CharString>
          <CharString index="161">
            -60 callsubr
            77 hlineto
            return
          </CharString>
          <CharString index="162" raw="1">
            cc1d8f93 0b  
          </CharString>
          <CharString index="163">
            245 -8 70 173 55 137 71 1 -20 hstemhm
            53 88 hintmask 11101000
            return
          </CharString>
          <CharString index="164">
            0 80 callsubr
            hintmask 11000000
            return
          </CharString>
          <CharString index="165">
            hlineto
            80 568 rlineto
            return
          </CharString>
          <CharString index="166">
            hlineto
            -8 -7 9 callsubr
            -7 -50 rlineto
            -8 -1 5 -6 8 hhcurveto
            return
          </CharString>
          <CharString index="167">
            rlineto
            7 1 -4 4 -7 hhcurveto
            return
          </CharString>
          <CharString index="168">
            rmoveto
            9 callgsubr
            return
          </CharString>
          <CharString index="169" raw="1">
            301d8358 050b  
          </CharString>
          <CharString index="170">
            -8 -2 5 -82 callgsubr
            return
          </CharString>
          <CharString index="171">
            43 rlineto
            8 1 return
          </CharString>
          <CharString index="172">
            6 1 -3 3 -6 hhcurveto
            -61 hlineto
            42 302 rlineto
            5 return
          </CharString>
          <CharString index="173">
            -32 -225 67 151 24 callgsubr
            -7 -20 hstemhm
            return
          </CharString>
          <CharString index="174">
            75 448 195 -75 75 hstemhm
            return
          </CharString>
          <CharString index="175" raw="1">
            560a9f0b   
          </CharString>
          <CharString index="176">
            21 -21 643 75 return
          </CharString>
          <CharString index="177">
            271 -20 hstem
            return
          </CharString>
          <CharString index="178">
            213 -408 -76 165 vvcurveto
            70 68 54 96 return
          </CharString>
          <CharString index="179">
            -31 -4 11 -11 30 hhcurveto
            return
          </CharString>
          <CharString index="180">
            67 360 72 return
          </CharString>
          <CharString index="181">
            hlineto
            -8 -58 rlineto
            return
          </CharString>
          <CharString index="182">
            77 187 -20 hstem
            227 -131 rmoveto
            7 return
          </CharString>
          <CharString index="183">
            20 -27 -32 -29 -27 -32 -27 19 -20 27 32 return
          </CharString>
          <CharString index="184">
            hmoveto
            -79 callgsubr
            return
          </CharString>
          <CharString index="185">
            hhcurveto
            -8 -6 -5 -91 callgsubr
            return
          </CharString>
          <CharString index="186">
            -283 -6 callgsubr
            return
          </CharString>
          <CharString index="187">
            67 348 79 -2 -20 hstemhm
            return
          </CharString>
          <CharString index="188">
            80 83 22 16 hvcurveto
            5 6 return
          </CharString>
          <CharString index="189">
            rmoveto
            7 5 2 7 return
          </CharString>
          <CharString index="190">
            -5 callsubr
            hstem
            return
          </CharString>
          <CharString index="191">
            rmoveto
            6 5 3 7 1 hvcurveto
            3 29 rlineto
            return
          </CharString>
          <CharString index="192">
            rmoveto
            42 callsubr
            rlineto
            return
          </CharString>
          <CharString index="193">
            85 73 85 vstem
            return
          </CharString>
        <CharString name=".notdef">
          -332 endchar
        </CharString>
        <CharString name="A">
          -8 callsubr
          hstem
          -105 callsubr
          endchar
        </CharString>
        <CharString name="AE">
          51 callsubr
          984 hmoveto
          -62 callsubr
        </CharString>
        <CharString name="AEacute">
          51 callsubr
          894 932 -106 callgsubr
          276 -798 rmoveto
          -62 callsubr
        </CharString>
        <CharString name="Aacute">
          -8 callsubr
          hstem
          -105 callsubr
          206 318 -68 callgsubr
        </CharString>
        <CharString name="Abreve">
          -8 callsubr
          71 27 callsubr
          392 59 hintmask 11101100
          -105 callsubr
          135 327 rmoveto
          -12 callgsubr
          hintmask 11110100
          -35 callgsubr
          hintmask 11101100
          -73 callgsubr
        </CharString>
        <CharString name="Acircumflex">
          -8 callsubr
          70 callsubr
          -105 callsubr
          194 216 -84 callgsubr
        </CharString>
        <CharString name="Adieresis">
          -8 callsubr
          64 85 hstem
          401 86 callsubr
          -105 callsubr
          -10 215 -94 callgsubr
          endchar
        </CharString>
        <CharString name="Agrave">
          -8 callsubr
          hstem
          -105 callsubr
          117 216 rmoveto
          -96 callgsubr
        </CharString>
        <CharString name="Amacron">
          -8 callsubr
          62 69 hstem
          -105 callsubr
          163 166 -76 callsubr
          endchar
        </CharString>
        <CharString name="Aogonek">
          207 -161 45 116 15 callgsubr
          hstem
          609 53 vstem
          755 -30 callsubr
          24 -66 callsubr
          -67 hlineto
          -145 600 rlineto
          30 -8 -12 13 -33 hhcurveto
          -136 -60 callsubr
          55 hlineto
          -295 -568 -52 callsubr
          225 -46 callsubr
          -70 hlineto
          89 173 rlineto
          279 hlineto
          40 -173 rlineto
          -69 -98 callsubr
          150 -47 callsubr
          rrcurveto
          -196 437 rmoveto
          -226 hlineto
          152 297 rlineto
          4 hlineto
          endchar
        </CharString>
        <CharString name="Aring">
          -8 callsubr
          hstem
          -105 callsubr
          73 220 -70 callgsubr
          endchar
        </CharString>
        <CharString name="Atilde">
          -8 callsubr
          67 15 callsubr
          hintmask 11110100
          -105 callsubr
          157 296 -43 callsubr
          hintmask 11111000
          -81 callgsubr
          hintmask 11110100
          -4 callgsubr
        </CharString>
        <CharString name="B">
          36 0 75 262 66 240 75 hstem
          577 88 vstem
          384 hmoveto
          199 82 100 133 63 -29 55 -77 24 hvcurveto
          67 35 45 61 83 vvcurveto
          96 -63 68 -124 vhcurveto
          -322 hlineto
          -9 -4 -103 callsubr
          3 -4 8 hhcurveto
          77 hlineto
          -80 -99 callsubr
          8 hhcurveto
          174 75 rmoveto
          37 262 rlineto
          159 hlineto
          94 52 -36 -71 -109 -88 -46 -102 hvcurveto
          -106 328 rmoveto
          34 240 rlineto
          142 hlineto
          61 63 -23 -81 -98 -81 -38 -67 hvcurveto
          endchar
        </CharString>
        <CharString name="C">
          21 callgsubr
          hstemhm
          94 93 hintmask 10101000
          388 -7 -67 callgsubr
        </CharString>
        <CharString name="Cacute">
          21 callgsubr
          hstemhm
          94 93 hintmask 10101000
          635 932 -106 callgsubr
          -61 -805 -67 callgsubr
        </CharString>
        <CharString name="Ccaron">
          21 callgsubr
          hstemhm
          94 93 hintmask 10101000
          680 939 -100 callsubr
          -118 -811 -67 callgsubr
        </CharString>
        <CharString name="Ccedilla">
          107 -156 41 59 133 -83 83 398 249 -82 82 -6 -20 hstemhm
          94 93 214 49 hintmask 10101011
          351 13 callgsubr
          8 19 207 3 99 133 20 31 rlinecurve
          -65 callgsubr
          hintmask 11010011
          -62 callgsubr
          65 callgsubr
          -53 callsubr
          31 218 rlineto
          hintmask 11000111
          -42 callsubr
          -11 -89 rlineto
          hintmask 11010011
          43 -22 -56 64 -131 hhcurveto
          -196 -196 -155 -260 -180 107 -120 153 -14 hvcurveto
          -16 -34 rlineto
          -49 callsubr
          51 callgsubr
        </CharString>
        <CharString name="Ccircumflex">
          21 callgsubr
          291 -20 hstemhm
          94 93 hintmask 10101100
          665 830 -107 callgsubr
          -248 -808 rmoveto
          213 101 137 31 20 hvcurveto
          -65 callgsubr
          hintmask 11001100
          -62 callgsubr
          65 callgsubr
          -53 callsubr
          31 218 rlineto
          hintmask 10011100
          -42 callsubr
          -11 -89 rlineto
          hintmask 11001100
          43 -22 -56 64 -131 hhcurveto
          -196 -196 -155 -260 -193 123 -123 171 hvcurveto
          endchar
        </CharString>
        <CharString name="Cdotaccent">
          21 callgsubr
          94 105 hstemhm
          94 93 277 106 hintmask 10101110
          388 -7 rmoveto
          213 101 137 31 20 hvcurveto
          -65 callgsubr
          hintmask 11001110
          -62 callgsubr
          65 callgsubr
          -53 callsubr
          31 218 rlineto
          hintmask 10011110
          -42 callsubr
          -11 -89 rlineto
          hintmask 11001110
          43 -22 -56 64 -131 hhcurveto
          -196 -196 -155 -260 -193 123 -123 171 hvcurveto
          182 857 32 callsubr
          -31 -29 -27 -32 -26 19 -20 26 32 29 27 31 vhcurveto
          endchar
        </CharString>
        <CharString name="D">
          95 29 callsubr
          651 92 vstem
          342 hmoveto
          240 161 164 252 190 -121 112 -196 hvcurveto
          -270 hlineto
          60 callgsubr
          76 hlineto
          -79 -99 callsubr
          7 hhcurveto
          175 75 rmoveto
          79 568 rlineto
          97 hlineto
          165 80 -90 -146 -213 -113 -119 -209 hvcurveto
          endchar
        </CharString>
        <CharString name="Dcaron">
          95 29 callsubr
          651 92 vstem
          653 939 -100 callsubr
          -137 -804 rmoveto
          240 161 164 252 190 -121 112 -196 hvcurveto
          -270 hlineto
          60 callgsubr
          76 hlineto
          -79 -99 callsubr
          7 hhcurveto
          175 75 rmoveto
          79 568 rlineto
          97 hlineto
          165 80 -90 -146 -213 -113 -119 -209 hvcurveto
          endchar
        </CharString>
        <CharString name="Dcroat">
          96 0 75 249 69 250 75 hstem
          657 91 vstem
          348 hmoveto
          239 161 164 252 190 -120 112 -197 hvcurveto
          -269 54 callsubr
          -35 -250 rlineto
          -69 hlineto
          -8 -6 -5 -9 -1 hvcurveto
          -6 -42 -9 callgsubr
          68 hlineto
          -35 -249 rlineto
          -76 hlineto
          -8 -5 27 callgsubr
          174 75 rmoveto
          35 249 rlineto
          153 45 callgsubr
          6 42 rlineto
          9 -21 callgsubr
          -152 hlineto
          35 250 rlineto
          96 hlineto
          166 80 -90 -146 -213 -114 -119 -208 hvcurveto
          endchar
        </CharString>
        <CharString name="E">
          8 57 callgsubr
          1 callgsubr
          hintmask 10101000
          -78 callsubr
          hintmask 10110000
          -75 callgsubr
          hintmask 01101000
          -60 callgsubr
          -80 -99 callsubr
          8 hhcurveto
          endchar
        </CharString>
        <CharString name="Eacute">
          8 57 callgsubr
          572 932 -106 callgsubr
          206 -798 rmoveto
          -61 callsubr
          hintmask 10101000
          -78 callsubr
          hintmask 10110000
          -75 callgsubr
          hintmask 01101000
          -60 callgsubr
          -80 -99 callsubr
          8 hhcurveto
          endchar
        </CharString>
        <CharString name="Ebreve">
          8 -48 callsubr
          71 27 callsubr
          306 59 hintmask 01110101
          1 callgsubr
          hintmask 10101101
          -78 callsubr
          hintmask 10110101
          -75 callgsubr
          hintmask 01101011
          -60 callgsubr
          -80 -99 callsubr
          8 hhcurveto
          484 941 rmoveto
          -12 callgsubr
          hintmask 10110101
          -35 callgsubr
          hintmask 10110011
          -73 callgsubr
        </CharString>
        <CharString name="Ecaron">
          8 57 callgsubr
          620 939 -100 callsubr
          146 -804 rmoveto
          -61 callsubr
          hintmask 10101000
          -78 callsubr
          hintmask 10110000
          -75 callgsubr
          hintmask 01101000
          -60 callgsubr
          -80 -99 callsubr
          8 hhcurveto
          endchar
        </CharString>
        <CharString name="Ecircumflex">
          8 -48 callsubr
          271 -20 hstemhm
          hintmask 01110100
          589 830 -107 callgsubr
          32 -801 rmoveto
          -61 callsubr
          hintmask 10101100
          -78 callsubr
          hintmask 10110100
          -75 callgsubr
          hintmask 01101100
          -60 callgsubr
          -80 -99 callsubr
          8 hhcurveto
          endchar
        </CharString>
        <CharString name="Edieresis">
          8 -48 callsubr
          64 85 hstemhm
          315 85 73 85 hintmask 01110111
          400 -38 callgsubr
          34 -829 rmoveto
          -61 callsubr
          hintmask 10101111
          -78 callsubr
          hintmask 10110111
          -75 callgsubr
          hintmask 01101111
          -60 callgsubr
          -80 -99 callsubr
          8 hhcurveto
          endchar
        </CharString>
        <CharString name="Edotaccent">
          8 -48 callsubr
          74 105 hstemhm
          390 106 hintmask 01110110
          1 callgsubr
          hintmask 10101110
          -78 callsubr
          hintmask 10110110
          -75 callgsubr
          hintmask 01101110
          -60 callgsubr
          -80 -99 callsubr
          8 hhcurveto
          435 -6 callsubr
        </CharString>
        <CharString name="Egrave">
          8 57 callgsubr
          1 callgsubr
          hintmask 10101000
          -78 callsubr
          hintmask 10110000
          -75 callgsubr
          hintmask 01101000
          -60 callgsubr
          -80 -99 callsubr
          8 hhcurveto
          461 830 rmoveto
          -96 callgsubr
        </CharString>
        <CharString name="Emacron">
          8 -48 callsubr
          62 69 hstemhm
          hintmask 01110100
          1 callgsubr
          hintmask 10101100
          -78 callsubr
          hintmask 10110100
          -75 callgsubr
          hintmask 01101100
          -60 callgsubr
          -80 -99 callsubr
          8 hhcurveto
          514 780 -76 callsubr
          endchar
        </CharString>
        <CharString name="Eng">
          156 -232 76 156 19 callgsubr
          hstem
          344 -219 rmoveto
          -62 callgsubr
          205 92 83 163 23 hvcurveto
          89 629 rlineto
          77 -66 callsubr
          -241 hlineto
          60 callgsubr
          76 hlineto
          -70 -502 rlineto
          -2 hlineto
          0 -18 47 -25 50 vhcurveto
          -222 446 rlineto
          17 -9 -10 17 -28 hhcurveto
          -140 54 callgsubr
          -80 -99 callsubr
          8 hhcurveto
          240 -37 callgsubr
          69 492 rlineto
          2 hlineto
          0 17 -40 22 -44 vhcurveto
          224 -452 7 -14 6 -9 14 -5 rlinecurve
          -4 vlineto
          -106 -7 -63 -49 -150 78 callsubr
          endchar
        </CharString>
        <CharString name="Eogonek">
          14 -161 45 116 -43 callgsubr
          hstemhm
          395 53 hintmask 10111010
          1 callgsubr
          hintmask 11010110
          -78 callsubr
          hintmask 11011010
          -75 callgsubr
          hintmask 10110110
          -60 callgsubr
          -80 -99 callsubr
          8 hhcurveto
          417 -47 callsubr
          -7 13 rcurveline
          -3 8 -7 -3 -8 -3 rrcurveto
          -5 -9 -16 -6 -16 hhcurveto
          -20 -14 8 21 43 60 33 22 11 hvcurveto
          endchar
        </CharString>
        <CharString name="Eth">
          96 0 75 249 69 250 75 hstem
          657 91 vstem
          348 hmoveto
          239 161 164 252 190 -120 112 -197 hvcurveto
          -269 54 callsubr
          -35 -250 rlineto
          -69 hlineto
          -8 -6 -5 -9 -1 hvcurveto
          -6 -42 -9 callgsubr
          68 hlineto
          -35 -249 rlineto
          -76 hlineto
          -8 -5 27 callgsubr
          174 75 rmoveto
          35 249 rlineto
          153 45 callgsubr
          6 42 rlineto
          9 -21 callgsubr
          -152 hlineto
          35 250 rlineto
          96 hlineto
          166 80 -90 -146 -213 -114 -119 -208 hvcurveto
          endchar
        </CharString>
        <CharString name="Euro">
          71 -7 84 170 61 93 61 180 82 hstem
          655 121 rmoveto
          -5 6 -5 -2 -7 -4 rrcurveto
          -28 -44 -52 -16 -73 hhcurveto
          -94 -89 54 116 -20 hvcurveto
          199 -41 callsubr
          6 37 -105 callgsubr
          -218 16 hlineto
          15 3 28 9 34 vhcurveto
          277 -41 callsubr
          5 36 rlineto
          8 1 -3 -29 callgsubr
          -265 hlineto
          123 50 111 57 94 hhcurveto
          73 44 -24 -18 23 hvcurveto
          6 -5 6 2 5 5 40 42 rcurveline
          5 6 0 6 -5 5 rrcurveto
          17 -24 -63 46 -103 hhcurveto
          -150 -148 -96 -166 -60 hvcurveto
          -77 -31 callsubr
          -5 -36 -106 callsubr
          67 hlineto
          -8 -31 -3 -26 -15 -3 -1 -16 -2 vvcurveto
          -69 -92 callsubr
          -5 -37 6 callsubr
          81 hlineto
          -158 20 113 -96 155 hhcurveto
          105 72 30 37 51 hvcurveto
          6 5 0 7 -4 6 rrcurveto
          endchar
        </CharString>
        <CharString name="F">
          -10 0 75 245 75 137 186 -75 75 hstemhm
          hintmask 11010000
          337 77 callsubr
          2 -4 4 -8 hhcurveto
          -113 hlineto
          34 245 rlineto
          236 -66 callsubr
          -235 hlineto
          35 248 rlineto
          283 hlineto
          -13 -98 rlineto
          hintmask 11100000
          -8 -2 5 16 callgsubr
          4 5 8 2 hvcurveto
          22 36 callgsubr
          2 36 callsubr
          -513 hlineto
          -9 -4 1 callsubr
          hintmask 11010000
          -60 callgsubr
          -80 -99 callsubr
          8 hhcurveto
          endchar
        </CharString>
        <CharString name="G">
          105 -7 2 callsubr
          hstemhm
          94 93 hintmask 01110010
          690 hmoveto
          -39 callgsubr
          hintmask 10101010
          -40 callsubr
          hintmask 10110010
          -8 callgsubr
          hintmask 10100110
          -42 callsubr
          -9 -77 rlineto
          hintmask 10110010
          -44 callgsubr
          hintmask 01110010
          63 callsubr
          endchar
        </CharString>
        <CharString name="Gbreve">
          105 -7 2 callsubr
          91 27 callsubr
          94 93 200 59 hintmask 0111001011000000
          690 hmoveto
          -39 callgsubr
          hintmask 1010101011000000
          -40 callsubr
          hintmask 1011001011000000
          -8 callgsubr
          hintmask 1010011011000000
          -42 callsubr
          -9 -77 rlineto
          hintmask 1011001011000000
          -44 callgsubr
          hintmask 0111000111000000
          63 callsubr
          -11 941 rmoveto
          -12 callgsubr
          hintmask 1011001011000000
          -35 callgsubr
          hintmask 1011000111000000
          -73 callgsubr
        </CharString>
        <CharString name="Gcircumflex">
          105 -7 2 callsubr
          291 -20 hstemhm
          94 93 hintmask 01110011
          674 830 -107 callgsubr
          45 -801 rmoveto
          -39 callgsubr
          hintmask 10101011
          -40 callsubr
          hintmask 10110011
          -8 callgsubr
          hintmask 10100111
          -42 callsubr
          -9 -77 rlineto
          hintmask 10110011
          -44 callgsubr
          hintmask 01110011
          63 callsubr
          endchar
        </CharString>
        <CharString name="Gcommaaccent">
          105 -4 callsubr
          39 2 callsubr
          hstemhm
          94 93 143 100 -43 43 hintmask 1010110011000000
          328 -67 callsubr
          hintmask 0101110010100000
          -61 callgsubr
          -4 vvcurveto
          -41 -28 -17 -21 -32 callgsubr
          359 205 rmoveto
          -39 callgsubr
          hintmask 1010101011000000
          -40 callsubr
          hintmask 1010110011000000
          -8 callgsubr
          hintmask 1010100111000000
          -42 callsubr
          -9 -77 rlineto
          hintmask 1010110011000000
          -44 callgsubr
          hintmask 1001110011000000
          63 callsubr
          endchar
        </CharString>
        <CharString name="Gdotaccent">
          105 -7 2 callsubr
          94 105 hstemhm
          94 93 269 106 hintmask 0111001110000000
          690 hmoveto
          -39 callgsubr
          hintmask 1010101110000000
          -40 callsubr
          hintmask 1011001110000000
          -8 callgsubr
          hintmask 1010011110000000
          -42 callsubr
          -9 -77 rlineto
          hintmask 1011001110000000
          -44 callgsubr
          hintmask 0111001110000000
          63 callsubr
          -75 -6 callsubr
        </CharString>
        <CharString name="H">
          79 callgsubr
          250 75 hstem
          760 77 callsubr
          2 -4 4 -8 hhcurveto
          -77 hlineto
          79 568 -68 callsubr
          -35 -250 rlineto
          -371 hlineto
          35 250 rlineto
          77 -50 callsubr
          -240 hlineto
          -9 -4 -103 callsubr
          3 -4 8 hhcurveto
          77 hlineto
          -80 -99 callsubr
          8 hhcurveto
          240 -37 callgsubr
          34 245 rlineto
          372 hlineto
          -35 -245 -17 callsubr
          endchar
        </CharString>
        <CharString name="Hbar">
          79 callgsubr
          96 51 103 75 hstem
          760 77 callsubr
          2 -4 4 -8 hhcurveto
          -77 hlineto
          58 414 rlineto
          47 hlineto
          7 5 4 7 1 hvcurveto
          4 29 60 callsubr
          -47 hlineto
          14 103 -68 callsubr
          -14 -103 rlineto
          -372 hlineto
          15 103 rlineto
          77 -50 callsubr
          -240 hlineto
          -9 -4 -103 callsubr
          3 -4 8 hhcurveto
          77 hlineto
          -15 -103 rlineto
          -60 80 callgsubr
          -4 -29 rlineto
          -7 -1 3 -4 7 hhcurveto
          60 hlineto
          -58 -414 rlineto
          -77 -103 callgsubr
          240 -37 callgsubr
          34 245 rlineto
          372 hlineto
          -35 -245 -17 callsubr
          132 393 rmoveto
          -371 hlineto
          13 96 rlineto
          372 hlineto
          endchar
        </CharString>
        <CharString name="Hcircumflex">
          79 callgsubr
          250 75 70 callsubr
          701 830 -107 callgsubr
          88 -801 rmoveto
          -79 callgsubr
          2 -4 4 -8 hhcurveto
          -77 hlineto
          79 568 -68 callsubr
          -35 -250 rlineto
          -371 hlineto
          35 250 rlineto
          77 -50 callsubr
          -240 hlineto
          -9 -4 -103 callsubr
          3 -4 8 hhcurveto
          77 hlineto
          -80 -99 callsubr
          8 hhcurveto
          240 -37 callgsubr
          34 245 rlineto
          372 hlineto
          -35 -245 -17 callsubr
          endchar
        </CharString>
        <CharString name="I">
          79 callsubr
          hstem
          301 hmoveto
          -42 callgsubr
          80 568 -54 callsubr
          2 36 callsubr
          -240 hlineto
          -9 -4 -103 callsubr
          3 -4 8 hhcurveto
          77 hlineto
          -80 -99 callsubr
          8 hhcurveto
          endchar
        </CharString>
        <CharString name="Iacute">
          -254 29 callsubr
          301 hmoveto
          -42 callgsubr
          80 568 -54 callsubr
          2 36 callsubr
          -240 hlineto
          -9 -4 -103 callsubr
          3 -4 8 hhcurveto
          77 hlineto
          -80 -99 callsubr
          8 hhcurveto
          404 908 -68 callgsubr
        </CharString>
        <CharString name="Ibreve">
          79 callsubr
          71 27 callsubr
          172 59 hintmask 11011000
          301 hmoveto
          -42 callgsubr
          80 568 -54 callsubr
          2 36 callsubr
          -240 hlineto
          -9 -4 -103 callsubr
          3 -4 8 hhcurveto
          77 hlineto
          -80 -99 callsubr
          8 hhcurveto
          350 941 rmoveto
          -12 callgsubr
          hintmask 11101000
          -35 callgsubr
          hintmask 11011000
          -73 callgsubr
        </CharString>
        <CharString name="Icircumflex">
          -264 -6 callgsubr
          70 callsubr
          309 hmoveto
          -42 callgsubr
          80 568 -54 callsubr
          2 36 callsubr
          -240 hlineto
          -9 -4 -103 callsubr
          3 -4 8 hhcurveto
          77 hlineto
          -80 -99 callsubr
          8 hhcurveto
          406 830 -84 callgsubr
        </CharString>
        <CharString name="Idieresis">
          79 callsubr
          64 85 hstem
          177 86 callsubr
          301 hmoveto
          -42 callgsubr
          80 568 -54 callsubr
          2 36 callsubr
          -240 hlineto
          -9 -4 -103 callsubr
          3 -4 8 hhcurveto
          77 hlineto
          -80 -99 callsubr
          8 hhcurveto
          201 -38 callgsubr
          endchar
        </CharString>
        <CharString name="Idotaccent">
          79 callsubr
          74 105 hstem
          248 106 vstem
          301 hmoveto
          -42 callgsubr
          80 568 -54 callsubr
          2 36 callsubr
          -240 hlineto
          -9 -4 -103 callsubr
          3 -4 8 hhcurveto
          77 hlineto
          -80 -99 callsubr
          8 hhcurveto
          293 -6 callsubr
        </CharString>
        <CharString name="Igrave">
          -267 29 callsubr
          317 hmoveto
          -42 callgsubr
          80 568 -54 callsubr
          2 36 callsubr
          -240 hlineto
          -9 -4 -103 callsubr
          3 -4 8 hhcurveto
          77 hlineto
          -80 -99 callsubr
          8 hhcurveto
          285 808 rmoveto
          -96 callgsubr
        </CharString>
        <CharString name="Imacron">
          -295 -6 callgsubr
          62 69 hstem
          301 hmoveto
          -42 callgsubr
          80 568 -54 callsubr
          2 36 callsubr
          -240 hlineto
          -9 -4 -103 callsubr
          3 -4 8 hhcurveto
          77 hlineto
          -80 -99 callsubr
          8 hhcurveto
          377 780 -76 callsubr
          endchar
        </CharString>
        <CharString name="Iogonek">
          -277 -161 45 116 19 callgsubr
          hstem
          137 53 vstem
          283 -30 callsubr
          29 -37 callgsubr
          80 568 -54 callsubr
          2 36 callsubr
          -240 hlineto
          -9 -4 -103 callsubr
          3 -4 8 hhcurveto
          77 hlineto
          -80 -99 callsubr
          8 hhcurveto
          159 -47 callsubr
          rrcurveto
          endchar
        </CharString>
        <CharString name="Itilde">
          -262 -6 callgsubr
          67 15 callsubr
          hintmask 11101000
          311 hmoveto
          -42 callgsubr
          80 568 -54 callsubr
          2 36 callsubr
          -240 hlineto
          -9 -4 -103 callsubr
          3 -4 8 hhcurveto
          77 hlineto
          -80 -99 callsubr
          8 hhcurveto
          369 910 -43 callsubr
          hintmask 11110000
          -81 callgsubr
          hintmask 11101000
          -4 callgsubr
        </CharString>
        <CharString name="J">
          -161 29 callsubr
          296 262 rmoveto
          -123 -17 -55 -64 -153 hhcurveto
          60 callgsubr
          191 105 71 200 28 hvcurveto
          52 372 -54 callsubr
          2 36 callsubr
          -240 54 callsubr
          endchar
        </CharString>
        <CharString name="Jcircumflex">
          -132 -6 callgsubr
          70 callsubr
          565 830 -107 callgsubr
          -211 -539 rmoveto
          -123 -17 -55 -64 -153 hhcurveto
          60 callgsubr
          191 105 71 200 28 hvcurveto
          52 372 -54 callsubr
          2 36 callsubr
          -240 54 callsubr
          endchar
        </CharString>
        <CharString name="K">
          118 0 75 216 71 281 75 hstem
          702 hmoveto
          58 callgsubr
          2 -4 4 -8 hhcurveto
          -61 hlineto
          -63 173 -13 36 -9 28 -33 16 rlinecurve
          92 46 65 98 24 171 rrcurveto
          -32 callsubr
          -223 -60 callsubr
          69 hlineto
          -218 -31 -85 -63 -133 hhcurveto
          -105 hlineto
          40 281 rlineto
          60 -83 callgsubr
          -224 hlineto
          -9 -4 -103 callsubr
          3 -4 8 hhcurveto
          77 hlineto
          -80 -99 callsubr
          8 hhcurveto
          255 -83 callgsubr
          -92 hlineto
          30 216 rlineto
          141 hlineto
          71 10 -28 -24 8 hvcurveto
          68 -191 rlineto
          -30 10 13 -18 29 hhcurveto
          endchar
        </CharString>
        <CharString name="Kcommaaccent">
          118 -4 callsubr
          46 75 216 71 281 75 hstemhm
          285 100 -43 43 hintmask 10111100
          283 -67 callsubr
          hintmask 01111010
          -61 callgsubr
          -4 vvcurveto
          -41 -28 -17 -21 -32 callgsubr
          416 205 rmoveto
          58 callgsubr
          2 -4 4 -8 hhcurveto
          -61 hlineto
          -63 173 -13 36 -9 28 -33 16 rlinecurve
          92 46 65 98 24 171 rrcurveto
          -32 callsubr
          -223 -60 callsubr
          69 hlineto
          -218 -31 -85 -63 -133 hhcurveto
          -105 hlineto
          40 281 rlineto
          60 -83 callgsubr
          -224 hlineto
          -9 -4 -103 callsubr
          3 -4 8 hhcurveto
          77 hlineto
          -80 -99 callsubr
          8 hhcurveto
          255 -83 callgsubr
          -92 hlineto
          30 216 rlineto
          141 hlineto
          71 10 -28 -24 8 hvcurveto
          68 -191 rlineto
          -30 10 13 -18 29 hhcurveto
          endchar
        </CharString>
        <CharString name="L">
          25 0 185 458 75 hstemhm
          608 hmoveto
          -47 callgsubr
          22 160 -74 callsubr
          -55 -92 callsubr
          hintmask 11000000
          -14 -98 rlineto
          -318 58 callsubr
          76 hlineto
          8 6 -11 callgsubr
          -239 hlineto
          -9 -4 -103 callsubr
          3 -4 8 hhcurveto
          77 hlineto
          -80 -99 callsubr
          8 hhcurveto
          endchar
        </CharString>
        <CharString name="Lacute">
          25 0 185 458 75 hstemhm
          555 932 -106 callgsubr
          239 -798 3 callsubr
          hintmask 11000000
          -14 -98 rlineto
          -318 58 callsubr
          76 hlineto
          8 6 -11 callgsubr
          -239 hlineto
          -9 -4 -103 callsubr
          3 -4 8 hhcurveto
          77 hlineto
          -80 -99 callsubr
          8 hhcurveto
          endchar
        </CharString>
        <CharString name="Lcaron">
          25 0 75 -75 185 349 184 -95 95 -75 75 hstemhm
          424 100 -43 43 hintmask 10100100
          422 540 -9 callsubr
          hintmask 01010010
          -24 16 -16 21 13 6 5 0 vhcurveto
          -10 callsubr
          183 -557 3 callsubr
          hintmask 01001100
          -14 -98 rlineto
          -318 58 callsubr
          76 hlineto
          8 6 -11 callgsubr
          -239 hlineto
          -9 -4 -103 callsubr
          3 -4 8 hhcurveto
          77 hlineto
          -80 -99 callsubr
          8 hhcurveto
          endchar
        </CharString>
        <CharString name="Lcommaaccent">
          25 -4 callsubr
          46 75 -75 185 458 75 hstemhm
          253 100 -43 43 hintmask 10101100
          251 -67 callsubr
          hintmask 01011010
          -61 callgsubr
          -4 vvcurveto
          -41 -28 -17 -21 -32 callgsubr
          354 205 3 callsubr
          hintmask 10011100
          -14 -98 rlineto
          -318 58 callsubr
          76 hlineto
          8 6 -11 callgsubr
          -239 hlineto
          -9 -4 -103 callsubr
          3 -4 8 hhcurveto
          77 hlineto
          -80 -99 callsubr
          8 hhcurveto
          endchar
        </CharString>
        <CharString name="Ldot">
          25 0 185 14 91 353 75 hstemhm
          298 91 vstemhm
          336 199 rmoveto
          28 25 22 28 23 -17 18 -23 -28 -23 -25 -27 -23 15 -16 23 hvcurveto
          272 -199 3 callsubr
          hintmask 11110000
          -14 -98 rlineto
          -318 58 callsubr
          76 hlineto
          8 6 -11 callgsubr
          -239 hlineto
          -9 -4 -103 callsubr
          3 -4 8 hhcurveto
          77 hlineto
          -80 -99 callsubr
          8 hhcurveto
          endchar
        </CharString>
        <CharString name="Lslash">
          32 0 185 458 75 hstemhm
          616 hmoveto
          9 callgsubr
          22 160 -74 callsubr
          -55 -92 callsubr
          hintmask 11000000
          -14 -98 rlineto
          -318 hlineto
          39 275 172 151 7 5 0 8 -5 6 rlinecurve
          -17 21 -4 5 -8 0 -7 -5 rlinecurve
          -126 -112 29 214 rlineto
          76 hlineto
          -47 callgsubr
          6 8 callsubr
          -239 -103 callgsubr
          76 hlineto
          -42 -301 -120 -104 -7 -6 0 -8 5 -5 rlinecurve
          17 -21 5 -6 7 0 7 6 rlinecurve
          75 66 -27 -189 -17 callsubr
          endchar
        </CharString>
        <CharString name="M">
          274 29 callsubr
          859 hmoveto
          58 callgsubr
          2 -4 4 -8 hhcurveto
          -77 58 callsubr
          76 -83 callgsubr
          -153 hlineto
          -25 -17 -13 -21 -11 hvcurveto
          -200 -362 rlineto
          -25 -46 -39 -78 0 vvcurveto
          -3 hlineto
          0 -18 82 -12 44 vhcurveto
          -98 360 rlineto
          21 -6 -13 13 -24 hhcurveto
          -154 hlineto
          -9 -4 -103 callsubr
          3 -4 8 hhcurveto
          77 hlineto
          -80 -99 callsubr
          8 hhcurveto
          230 -83 callgsubr
          -67 hlineto
          70 498 rlineto
          2 hlineto
          124 -472 rlineto
          -20 5 14 -10 20 hhcurveto
          22 16 10 20 11 hvcurveto
          256 472 rlineto
          1 hlineto
          -70 -498 -52 callsubr
          endchar
        </CharString>
        <CharString name="N">
          175 29 callsubr
          670 hmoveto
          -58 callgsubr
          88 631 -68 callsubr
          -70 -502 rlineto
          -2 hlineto
          0 -18 47 -25 50 vhcurveto
          -223 446 rlineto
          17 -8 -10 17 -28 hhcurveto
          -140 hlineto
          -9 -4 -103 callsubr
          3 -4 8 hhcurveto
          77 hlineto
          -80 -99 callsubr
          8 hhcurveto
          240 -37 callgsubr
          69 492 rlineto
          2 hlineto
          0 16 -40 22 -44 vhcurveto
          226 -452 rlineto
          -19 9 9 -12 28 hhcurveto
          endchar
        </CharString>
        <CharString name="Nacute">
          175 29 callsubr
          651 932 -106 callgsubr
          205 -798 rmoveto
          -58 callgsubr
          88 631 -68 callsubr
          -70 -502 rlineto
          -2 hlineto
          0 -18 47 -25 50 vhcurveto
          -223 446 rlineto
          17 -8 -10 17 -28 hhcurveto
          -140 hlineto
          -9 -4 -103 callsubr
          3 -4 8 hhcurveto
          77 hlineto
          -80 -99 callsubr
          8 hhcurveto
          240 -37 callgsubr
          69 492 rlineto
          2 hlineto
          0 16 -40 22 -44 vhcurveto
          226 -452 rlineto
          -19 9 9 -12 28 hhcurveto
          endchar
        </CharString>
        <CharString name="Ncaron">
          175 29 callsubr
          710 939 -100 callsubr
          134 -804 rmoveto
          -58 callgsubr
          88 631 -68 callsubr
          -70 -502 rlineto
          -2 hlineto
          0 -18 47 -25 50 vhcurveto
          -223 446 rlineto
          17 -8 -10 17 -28 hhcurveto
          -140 hlineto
          -9 -4 -103 callsubr
          3 -4 8 hhcurveto
          77 hlineto
          -80 -99 callsubr
          8 hhcurveto
          240 -37 callgsubr
          69 492 rlineto
          2 hlineto
          0 16 -40 22 -44 vhcurveto
          226 -452 rlineto
          -19 9 9 -12 28 hhcurveto
          endchar
        </CharString>
        <CharString name="Ncommaaccent">
          175 -4 callsubr
          46 19 callgsubr
          hstemhm
          350 100 -43 43 hintmask 10111000
          348 -67 callsubr
          hintmask 01110100
          -61 callgsubr
          -4 vvcurveto
          -41 -28 -17 -21 -32 callgsubr
          319 205 rmoveto
          -58 callgsubr
          88 631 -68 callsubr
          -70 -502 rlineto
          -2 hlineto
          0 -18 47 -25 50 vhcurveto
          -223 446 rlineto
          17 -8 -10 17 -28 hhcurveto
          -140 hlineto
          -9 -4 -103 callsubr
          3 -4 8 hhcurveto
          77 hlineto
          -80 -99 callsubr
          8 hhcurveto
          240 -37 callgsubr
          69 492 rlineto
          2 hlineto
          0 16 -40 22 -44 vhcurveto
          226 -452 rlineto
          -19 9 9 -12 28 hhcurveto
          endchar
        </CharString>
        <CharString name="Ntilde">
          175 -6 callgsubr
          67 15 callsubr
          hintmask 11101000
          670 hmoveto
          -58 callgsubr
          88 631 -68 callsubr
          -70 -502 rlineto
          -2 hlineto
          0 -18 47 -25 50 vhcurveto
          -223 446 rlineto
          17 -8 -10 17 -28 hhcurveto
          -140 hlineto
          -9 -4 -103 callsubr
          3 -4 8 hhcurveto
          77 hlineto
          -80 -99 callsubr
          8 hhcurveto
          240 -37 callgsubr
          69 492 rlineto
          2 hlineto
          0 16 -40 22 -44 vhcurveto
          226 -452 rlineto
          -19 9 9 -12 28 hhcurveto
          51 910 -43 callsubr
          hintmask 11110000
          -81 callgsubr
          hintmask 11101000
          -4 callgsubr
        </CharString>
        <CharString name="O">
          20 callgsubr
          -48 callgsubr
          endchar
        </CharString>
        <CharString name="OE">
          262 39 callgsubr
          94 95 hintmask 01110100
          847 hmoveto
          7 -33 callgsubr
          23 161 -105 callgsubr
          -54 hlineto
          -8 -4 -4 -8 -2 hvcurveto
          hintmask 10101100
          -13 -98 rlineto
          -302 hlineto
          34 245 rlineto
          254 -66 callsubr
          -253 hlineto
          35 248 rlineto
          301 hlineto
          -14 -98 rlineto
          hintmask 01110100
          -8 -1 4 16 callgsubr
          5 -53 callsubr
          23 83 callgsubr
          -4 4 -7 hhcurveto
          -455 hlineto
          -198 -201 -150 -256 -188 124 -124 175 hvcurveto
          9 79 rmoveto
          -111 2 -102 80 156 vvcurveto
          217 162 102 130 3 vhcurveto
          endchar
        </CharString>
        <CharString name="Oacute">
          20 callgsubr
          629 932 -106 callgsubr
          -47 -805 -89 callgsubr
          endchar
        </CharString>
        <CharString name="Obreve">
          14 callsubr
          65 27 callsubr
          94 95 198 59 259 95 hintmask 11011110
          -48 callgsubr
          219 867 rmoveto
          -12 callgsubr
          hintmask 11101110
          -35 callgsubr
          hintmask 11011110
          -73 callgsubr
        </CharString>
        <CharString name="Ocircumflex">
          14 callsubr
          265 -20 hstem
          94 95 516 95 vstem
          679 830 -107 callgsubr
          -254 -808 -89 callgsubr
          endchar
        </CharString>
        <CharString name="Odieresis">
          14 callsubr
          58 85 hstem
          94 95 201 85 73 85 72 95 vstem
          475 -38 callgsubr
          -237 -836 -89 callgsubr
          endchar
        </CharString>
        <CharString name="Ograve">
          20 callgsubr
          -48 callgsubr
          185 756 rmoveto
          -96 callgsubr
        </CharString>
        <CharString name="Ohungarumlaut">
          20 callgsubr
          609 941 -19 callsubr
          -200 -814 -89 callgsubr
          endchar
        </CharString>
        <CharString name="Omacron">
          14 callsubr
          56 69 hstem
          94 95 516 95 vstem
          655 780 -76 callsubr
          36 -787 -89 callgsubr
          endchar
        </CharString>
        <CharString name="Oslash">
          148 -30 -21 44 82 569 80 59 -20 -51 callsubr
          endchar
        </CharString>
        <CharString name="Oslashacute">
          148 -30 -21 44 82 569 80 -51 callsubr
          327 855 -68 callgsubr
        </CharString>
        <CharString name="Otilde">
          14 callsubr
          61 15 callsubr
          94 95 516 95 hintmask 11101110
          -48 callgsubr
          245 836 -43 callsubr
          hintmask 11110110
          -81 callgsubr
          hintmask 11101110
          -4 callgsubr
        </CharString>
        <CharString name="P">
          13 0 75 196 71 301 75 hstem
          594 88 vstem
          322 10 callsubr
          -97 hlineto
          28 196 rlineto
          134 hlineto
          177 108 95 155 123 -87 74 -125 hvcurveto
          -308 hlineto
          -9 -4 -103 callsubr
          3 -4 8 hhcurveto
          77 hlineto
          -80 -99 callsubr
          8 hhcurveto
          212 342 rmoveto
          42 301 rlineto
          130 hlineto
          80 69 -38 -92 -117 -72 -54 -119 hvcurveto
          endchar
        </CharString>
        <CharString name="Q">
          145 -109 67 -67 186 565 82 hstemhm
          94 95 516 95 hintmask 10111000
          712 -26 rmoveto
          -1 6 -4 1 -8 -3 rrcurveto
          -10 -24 -31 -10 -52 hhcurveto
          -107 -48 35 3 -5 hvcurveto
          203 18 165 165 235 vvcurveto
          196 -137 114 -165 -199 -205 -154 -259 -162 93 -120 138 -25 vhcurveto
          -1 73 -113 185 hhcurveto
          70 52 23 4 8 hvcurveto
          8 4 2 6 -1 6 rrcurveto
          hintmask 01111000
          -313 143 rmoveto
          -114 -105 81 158 220 166 106 132 107 111 -78 -161 -214 -158 -112 -139 hvcurveto
          endchar
        </CharString>
        <CharString name="R">
          40 callsubr
          655 10 callsubr
          -60 hlineto
          -61 164 -12 32 -10 22 -15 13 rlinecurve
          113 29 63 79 118 vvcurveto
          122 -87 64 -126 vhcurveto
          -308 hlineto
          -9 -4 -103 callsubr
          3 -4 8 hhcurveto
          77 hlineto
          -80 -99 callsubr
          8 hhcurveto
          253 -66 callsubr
          -89 hlineto
          30 214 86 callgsubr
          35 11 -20 -30 10 hvcurveto
          68 -191 rlineto
          -30 10 13 -18 29 hhcurveto
          -293 360 rmoveto
          40 283 86 callgsubr
          84 69 -30 -91 -120 -76 -42 -116 hvcurveto
          endchar
        </CharString>
        <CharString name="Racute">
          40 callsubr
          573 932 -106 callgsubr
          268 -798 rmoveto
          -86 callsubr
          -60 hlineto
          -61 164 -12 32 -10 22 -15 13 rlinecurve
          113 29 63 79 118 vvcurveto
          122 -87 64 -126 vhcurveto
          -308 hlineto
          -9 -4 -103 callsubr
          3 -4 8 hhcurveto
          77 hlineto
          -80 -99 callsubr
          8 hhcurveto
          253 -66 callsubr
          -89 hlineto
          30 214 86 callgsubr
          35 11 -20 -30 10 hvcurveto
          68 -191 rlineto
          -30 10 13 -18 29 hhcurveto
          -293 360 rmoveto
          40 283 86 callgsubr
          84 69 -30 -91 -120 -76 -42 -116 hvcurveto
          endchar
        </CharString>
        <CharString name="Rcaron">
          40 callsubr
          629 939 -100 callsubr
          200 -804 rmoveto
          -86 callsubr
          -60 hlineto
          -61 164 -12 32 -10 22 -15 13 rlinecurve
          113 29 63 79 118 vvcurveto
          122 -87 64 -126 vhcurveto
          -308 hlineto
          -9 -4 -103 callsubr
          3 -4 8 hhcurveto
          77 hlineto
          -80 -99 callsubr
          8 hhcurveto
          253 -66 callsubr
          -89 hlineto
          30 214 86 callgsubr
          35 11 -20 -30 10 hvcurveto
          68 -191 rlineto
          -30 10 13 -18 29 hhcurveto
          -293 360 rmoveto
          40 283 86 callgsubr
          84 69 -30 -91 -120 -76 -42 -116 hvcurveto
          endchar
        </CharString>
        <CharString name="Rcommaaccent">
          70 -4 callsubr
          46 75 214 71 283 75 hstemhm
          281 100 -43 43 214 88 hintmask 10111101
          279 -67 callsubr
          hintmask 01111011
          -61 callgsubr
          -4 vvcurveto
          -41 -28 -17 -21 -32 callgsubr
          373 205 rmoveto
          -86 callsubr
          -60 hlineto
          -61 164 -12 32 -10 22 -15 13 rlinecurve
          113 29 63 79 118 vvcurveto
          122 -87 64 -126 vhcurveto
          -308 hlineto
          -9 -4 -103 callsubr
          3 -4 8 hhcurveto
          77 hlineto
          -80 -99 callsubr
          8 hhcurveto
          253 -66 callsubr
          -89 hlineto
          30 214 86 callgsubr
          35 11 -20 -30 10 hvcurveto
          68 -191 rlineto
          -30 10 13 -18 29 hhcurveto
          -293 360 rmoveto
          40 283 86 callgsubr
          84 69 -30 -91 -120 -76 -42 -116 hvcurveto
          endchar
        </CharString>
        <CharString name="S">
          21 -7 -1 callsubr
          304 104 hintmask 01100110
          117 hmoveto
          -74 callgsubr
        </CharString>
        <CharString name="Sacute">
          21 -7 -1 callsubr
          304 104 hintmask 01100110
          590 932 -106 callgsubr
          -287 -798 rmoveto
          -74 callgsubr
        </CharString>
        <CharString name="Scaron">
          21 -7 -1 callsubr
          304 104 hintmask 01100110
          632 939 -100 callsubr
          -341 -804 rmoveto
          -74 callgsubr
        </CharString>
        <CharString name="Scedilla">
          21 -156 41 59 130 -81 -1 callsubr
          117 49 138 104 hintmask 1010010111000000
          306 13 callgsubr
          8 18 rlineto
          15 hlineto
          196 85 110 113 hvcurveto
          226 -408 -80 156 vvcurveto
          70 68 54 97 134 34 -84 -41 -5 vhcurveto
          -4 -28 rlineto
          hintmask 1100100111000000
          -21 callsubr
          hintmask 1100001111000000
          11 callgsubr
          -5 -4 -8 -1 hvcurveto
          -7 -62 rlineto
          hintmask 1100100111000000
          -72 callsubr
          hintmask 1001100111000000
          -8 -1 3 -4 9 hhcurveto
          56 hlineto
          42 callsubr
          17 -36 49 -61 101 -16 rlinecurve
          -18 -36 rlineto
          hintmask 1100100111000000
          -49 callsubr
          51 callgsubr
        </CharString>
        <CharString name="Scircumflex">
          21 -7 81 -53 -21 477 247 -82 82 -5 -20 290 -20 hstemhm
          143 96 304 104 hintmask 01100111
          616 830 -107 callgsubr
          -470 -801 85 callsubr
          hintmask 10010111
          -42 20 63 -75 139 hhcurveto
          196 85 110 113 hvcurveto
          226 -408 -80 156 vvcurveto
          70 68 54 97 134 34 -84 -41 -5 vhcurveto
          -4 -28 rlineto
          hintmask 10100111
          -21 callsubr
          hintmask 10001111
          11 callgsubr
          -5 -4 -8 -1 hvcurveto
          -7 -62 rlineto
          hintmask 10100111
          -72 callsubr
          hintmask 01100111
          -8 -1 3 -4 9 hhcurveto
          endchar
        </CharString>
        <CharString name="Scommaaccent">
          21 -4 callsubr
          39 -1 callsubr
          42 100 -43 43 162 104 hintmask 1010100110100000
          279 -67 callsubr
          hintmask 0101100101100000
          -61 callgsubr
          -4 vvcurveto
          -41 -28 -17 -21 -32 callgsubr
          -165 205 85 callsubr
          hintmask 1010010110100000
          -42 20 63 -75 139 hhcurveto
          196 85 110 113 hvcurveto
          226 -408 -80 156 vvcurveto
          70 68 54 97 134 34 -84 -41 -5 vhcurveto
          -4 -28 rlineto
          hintmask 1010100110100000
          -21 callsubr
          hintmask 1010001110100000
          11 callgsubr
          -5 -4 -8 -1 hvcurveto
          -7 -62 rlineto
          hintmask 1010100110100000
          -72 callsubr
          hintmask 1001100110100000
          -8 -1 3 -4 9 hhcurveto
          endchar
        </CharString>
        <CharString name="T">
          82 0 67 callsubr
          hintmask 10100000
          478 hmoveto
          -36 callsubr
        </CharString>
        <CharString name="Tbar">
          82 0 75 325 69 54 195 -75 75 hstemhm
          hintmask 11010000
          478 hmoveto
          8 7 -11 callgsubr
          -70 hlineto
          45 325 rlineto
          106 hlineto
          8 5 6 8 2 hvcurveto
          5 42 -57 callgsubr
          -105 hlineto
          25 174 82 callgsubr
          hintmask 11100000
          -51 callgsubr
          hintmask 11010000
          15 106 rlineto
          190 hlineto
          -25 -174 rlineto
          -103 hlineto
          -8 -6 -5 -8 -2 hvcurveto
          -5 -42 rlineto
          -8 -1 4 -6 8 hhcurveto
          103 hlineto
          -45 -325 rlineto
          -76 -7 callsubr
          -7 -49 -16 callsubr
        </CharString>
        <CharString name="Tcaron">
          82 0 67 callsubr
          hintmask 10100000
          639 939 -100 callsubr
          13 -804 rmoveto
          -36 callsubr
        </CharString>
        <CharString name="Tcommaaccent">
          82 -4 callsubr
          46 67 callsubr
          301 100 -43 43 hintmask 10110100
          299 -67 callsubr
          hintmask 01101010
          -61 callgsubr
          -4 vvcurveto
          -41 -28 -17 -21 -32 callgsubr
          176 205 rmoveto
          8 7 -11 callgsubr
          -70 hlineto
          80 568 82 callgsubr
          hintmask 10110100
          -51 callgsubr
          hintmask 10101100
          15 106 rlineto
          190 hlineto
          -80 -568 rlineto
          -76 -7 callsubr
          -7 -49 -16 callsubr
        </CharString>
        <CharString name="Thorn">
          -19 0 69 90 71 279 75 65 69 hstem
          554 88 vstem
          296 hmoveto
          44 callgsubr
          45 -105 callgsubr
          -94 hlineto
          13 90 rlineto
          134 hlineto
          183 100 87 154 120 -85 64 -127 hvcurveto
          -143 hlineto
          17 122 rlineto
          8 2 -4 4 -9 hhcurveto
          -139 -77 callsubr
          -45 rlineto
          -88 callsubr
          68 hlineto
          -82 -580 rlineto
          -70 7 callsubr
          -7 -45 -106 callsubr
          184 230 rmoveto
          40 279 rlineto
          141 hlineto
          75 63 -33 -86 -114 -74 -46 -103 hvcurveto
          endchar
        </CharString>
        <CharString name="U">
          7 callgsubr
          hstem
          626 260 rmoveto
          -110 -15 -62 -76 -131 hhcurveto
          -140 -32 82 110 15 hvcurveto
          53 377 rlineto
          77 hlineto
          8 5 4 8 1 hvcurveto
          7 51 rlineto
          8 2 -4 4 -8 hhcurveto
          -241 54 callgsubr
          -52 -374 rlineto
          -183 -26 88 -93 170 hhcurveto
          169 112 93 183 26 hvcurveto
          53 374 rlineto
          -77 callgsubr
          endchar
        </CharString>
        <CharString name="Uacute">
          7 callgsubr
          hstem
          676 932 -106 callgsubr
          136 -538 rmoveto
          -110 -15 -62 -76 -131 hhcurveto
          -140 -32 82 110 15 hvcurveto
          53 377 rlineto
          77 hlineto
          8 5 4 8 1 hvcurveto
          7 51 rlineto
          8 2 -4 4 -8 hhcurveto
          -241 54 callgsubr
          -52 -374 rlineto
          -183 -26 88 -93 170 hhcurveto
          169 112 93 183 26 hvcurveto
          53 374 rlineto
          -77 callgsubr
          endchar
        </CharString>
        <CharString name="Ubreve">
          7 callgsubr
          71 27 callsubr
          402 59 hintmask 11011000
          626 260 rmoveto
          -110 -15 -62 -76 -131 hhcurveto
          -140 -32 82 110 15 hvcurveto
          53 377 rlineto
          77 hlineto
          8 5 4 8 1 hvcurveto
          7 51 rlineto
          8 2 -4 4 -8 hhcurveto
          -241 54 callgsubr
          -52 -374 rlineto
          -183 -26 88 -93 170 hhcurveto
          169 112 93 183 26 hvcurveto
          53 374 rlineto
          -77 callgsubr
          -38 298 rmoveto
          -12 callgsubr
          hintmask 11101000
          -35 callgsubr
          hintmask 11011000
          -73 callgsubr
        </CharString>
        <CharString name="Ucircumflex">
          7 callgsubr
          70 callsubr
          691 830 -107 callgsubr
          -36 -541 rmoveto
          -110 -15 -62 -76 -131 hhcurveto
          -140 -32 82 110 15 hvcurveto
          53 377 rlineto
          77 hlineto
          8 5 4 8 1 hvcurveto
          7 51 rlineto
          8 2 -4 4 -8 hhcurveto
          -241 54 callgsubr
          -52 -374 rlineto
          -183 -26 88 -93 170 hhcurveto
          169 112 93 183 26 hvcurveto
          53 374 rlineto
          -77 callgsubr
          endchar
        </CharString>
        <CharString name="Udieresis">
          7 callgsubr
          64 85 hstem
          400 86 callsubr
          485 -38 callgsubr
          -17 -569 rmoveto
          -110 -15 -62 -76 -131 hhcurveto
          -140 -32 82 110 15 hvcurveto
          53 377 rlineto
          77 hlineto
          8 5 4 8 1 hvcurveto
          7 51 rlineto
          8 2 -4 4 -8 hhcurveto
          -241 54 callgsubr
          -52 -374 rlineto
          -183 -26 88 -93 170 hhcurveto
          169 112 93 183 26 hvcurveto
          53 374 rlineto
          -77 callgsubr
          endchar
        </CharString>
        <CharString name="Ugrave">
          7 callgsubr
          hstem
          626 260 rmoveto
          -110 -15 -62 -76 -131 hhcurveto
          -140 -32 82 110 15 hvcurveto
          53 377 rlineto
          77 hlineto
          8 5 4 8 1 hvcurveto
          7 51 rlineto
          8 2 -4 4 -8 hhcurveto
          -241 54 callgsubr
          -52 -374 rlineto
          -183 -26 88 -93 170 hhcurveto
          169 112 93 183 26 hvcurveto
          53 374 rlineto
          -77 callgsubr
          -46 187 rmoveto
          -96 callgsubr
        </CharString>
        <CharString name="Uhungarumlaut">
          7 callgsubr
          hstem
          626 260 rmoveto
          -110 -15 -62 -76 -131 hhcurveto
          -140 -32 82 110 15 hvcurveto
          53 377 rlineto
          77 hlineto
          8 5 4 8 1 hvcurveto
          7 51 rlineto
          8 2 -4 4 -8 hhcurveto
          -241 54 callgsubr
          -52 -374 rlineto
          -183 -26 88 -93 170 hhcurveto
          169 112 93 183 26 hvcurveto
          53 374 rlineto
          -77 callgsubr
          -83 298 -19 callsubr
          endchar
        </CharString>
        <CharString name="Umacron">
          7 callgsubr
          62 69 hstem
          626 260 rmoveto
          -110 -15 -62 -76 -131 hhcurveto
          -140 -32 82 110 15 hvcurveto
          53 377 rlineto
          77 hlineto
          8 5 4 8 1 hvcurveto
          7 51 rlineto
          8 2 -4 4 -8 hhcurveto
          -241 54 callgsubr
          -52 -374 rlineto
          -183 -26 88 -93 170 hhcurveto
          169 112 93 183 26 hvcurveto
          53 374 rlineto
          -77 callgsubr
          -20 137 -76 callsubr
          endchar
        </CharString>
        <CharString name="Uogonek">
          169 -161 45 109 81 569 75 hstem
          297 53 vstem
          626 260 rmoveto
          -110 -15 -62 -76 -131 hhcurveto
          -140 -32 82 110 15 hvcurveto
          53 377 rlineto
          77 hlineto
          8 5 4 8 1 hvcurveto
          7 51 rlineto
          8 2 -4 4 -8 hhcurveto
          -241 54 callgsubr
          -52 -374 -24 -169 72 -92 144 -13 rlinecurve
          -31 -15 -39 -32 -45 vvcurveto
          -41 29 -23 44 40 28 20 4 7 vhcurveto
          6 4 2 4 -3 9 -7 13 rcurveline
          -3 8 -7 -3 -8 -3 rrcurveto
          -5 -9 -16 -6 -16 hhcurveto
          -20 -14 8 21 36 42 29 27 15 hvcurveto
          162 5 107 92 26 179 53 374 rcurveline
          -77 callgsubr
          endchar
        </CharString>
        <CharString name="Uring">
          7 callgsubr
          hstem
          576 834 -70 callgsubr
          70 -592 rmoveto
          -110 -15 -62 -76 -131 hhcurveto
          -140 -32 82 110 15 hvcurveto
          53 377 rlineto
          77 hlineto
          8 5 4 8 1 hvcurveto
          7 51 rlineto
          8 2 -4 4 -8 hhcurveto
          -241 54 callgsubr
          -52 -374 rlineto
          -183 -26 88 -93 170 hhcurveto
          169 112 93 183 26 hvcurveto
          53 374 rlineto
          -77 callgsubr
          endchar
        </CharString>
        <CharString name="Utilde">
          7 callgsubr
          67 15 callsubr
          hintmask 11101000
          626 260 rmoveto
          -110 -15 -62 -76 -131 hhcurveto
          -140 -32 82 110 15 hvcurveto
          53 377 rlineto
          77 hlineto
          8 5 4 8 1 hvcurveto
          7 51 rlineto
          8 2 -4 4 -8 hhcurveto
          -241 54 callgsubr
          -52 -374 rlineto
          -183 -26 88 -93 170 hhcurveto
          169 112 93 183 26 hvcurveto
          53 374 rlineto
          -77 callgsubr
          -11 267 -43 callsubr
          hintmask 11110000
          -81 callgsubr
          hintmask 11101000
          -4 callgsubr
        </CharString>
        <CharString name="V">
          203 69 callsubr
          hstem
          444 hmoveto
          28 10 14 26 13 hvcurveto
          316 603 rlineto
          66 -70 callsubr
          -5 4 -7 hhcurveto
          -226 -98 callsubr
          69 hlineto
          -279 -537 rlineto
          -6 hlineto
          -128 537 rlineto
          69 -50 callsubr
          -225 -98 callsubr
          65 hlineto
          148 -603 rlineto
          -27 7 8 -13 27 hhcurveto
          endchar
        </CharString>
        <CharString name="W">
          449 69 callsubr
          hstem
          748 hmoveto
          -93 callgsubr
          endchar
        </CharString>
        <CharString name="Wacute">
          448 69 callsubr
          hstem
          840 932 -106 callgsubr
          94 -798 rmoveto
          -93 callgsubr
          endchar
        </CharString>
        <CharString name="Wcircumflex">
          448 69 callsubr
          70 callsubr
          811 830 -107 callgsubr
          -34 -801 rmoveto
          -93 callgsubr
          endchar
        </CharString>
        <CharString name="Wdieresis">
          448 69 callsubr
          64 85 hstem
          539 86 callsubr
          624 -38 callgsubr
          -34 -829 rmoveto
          -93 callgsubr
          endchar
        </CharString>
        <CharString name="Wgrave">
          448 69 callsubr
          hstem
          748 hmoveto
          -93 callgsubr
          24 830 rmoveto
          -96 callgsubr
        </CharString>
        <CharString name="X">
          169 29 callsubr
          746 10 callsubr
          -79 hlineto
          -171 287 254 281 rlineto
          84 hlineto
          8 5 4 8 1 hvcurveto
          7 51 rlineto
          8 1 -56 callgsubr
          4 -4 8 hhcurveto
          61 hlineto
          -201 -226 -140 226 rlineto
          69 -50 callsubr
          -240 54 callgsubr
          177 -281 -256 -287 rlineto
          -78 -103 callgsubr
          240 -83 callgsubr
          -67 hlineto
          204 233 133 -233 rlineto
          -66 -98 callsubr
          endchar
        </CharString>
        <CharString name="Y">
          -75 callsubr
          endchar
        </CharString>
        <CharString name="Yacute">
          -75 callsubr
          360 932 -68 callgsubr
        </CharString>
        <CharString name="Ycircumflex">
          114 -6 callgsubr
          70 callsubr
          -94 callsubr
          388 830 -84 callgsubr
        </CharString>
        <CharString name="Ydieresis">
          114 -6 callgsubr
          64 85 hstem
          373 86 callsubr
          -94 callsubr
          199 -38 callgsubr
          endchar
        </CharString>
        <CharString name="Ygrave">
          -75 callsubr
          347 830 rmoveto
          -96 callgsubr
        </CharString>
        <CharString name="Z">
          31 callsubr
          hstemhm
          hintmask 01100000
          580 hmoveto
          -64 callgsubr
        </CharString>
        <CharString name="Zacute">
          31 callsubr
          hstemhm
          hintmask 01100000
          572 932 -106 callgsubr
          194 -798 rmoveto
          -64 callgsubr
        </CharString>
        <CharString name="Zcaron">
          31 callsubr
          hstemhm
          hintmask 01100000
          632 939 -100 callsubr
          122 -804 rmoveto
          -64 callgsubr
        </CharString>
        <CharString name="Zdotaccent">
          31 callsubr
          74 105 hstemhm
          401 106 hintmask 01101100
          580 hmoveto
          9 callgsubr
          20 143 61 callgsubr
          -57 hlineto
          -8 -6 9 callsubr
          hintmask 10101100
          -12 -81 rlineto
          -342 hlineto
          483 552 12 12 12 16 2 13 rlinecurve
          6 37 -45 callgsubr
          -518 hlineto
          -8 -6 -5 -8 -2 hvcurveto
          -19 -143 rlineto
          -8 -2 5 -6 8 hhcurveto
          57 hlineto
          8 6 53 callsubr
          hintmask 01011100
          12 81 rlineto
          342 hlineto
          -484 -553 -11 -11 -12 -14 -1 -9 rlinecurve
          -7 -43 -9 callgsubr
          445 -6 callsubr
        </CharString>
        <CharString name="a">
          -15 callsubr
          hstemhm
          55 88 hintmask 01111000
          529 hmoveto
          -98 callgsubr
          hintmask 10111000
          -46 callgsubr
          hintmask 01111000
          -35 callsubr
          -31 149 rmoveto
          hintmask 10111000
          -50 callgsubr
          endchar
        </CharString>
        <CharString name="a.alt">
          -82 callsubr
          endchar
        </CharString>
        <CharString name="aacute">
          -15 callsubr
          hstemhm
          55 88 hintmask 01111000
          529 hmoveto
          -98 callgsubr
          hintmask 10111000
          -46 callgsubr
          hintmask 01111000
          -35 callsubr
          -31 149 rmoveto
          hintmask 10111000
          -50 callgsubr
          83 476 -68 callgsubr
        </CharString>
        <CharString name="aacute.alt">
          -82 callsubr
          221 643 -68 callgsubr
        </CharString>
        <CharString name="abreve">
          -15 callsubr
          64 27 callsubr
          55 88 96 59 hintmask 01111011
          529 hmoveto
          -98 callgsubr
          hintmask 10111011
          -46 callgsubr
          hintmask 01111011
          -35 callsubr
          -31 149 rmoveto
          hintmask 10110111
          -50 callgsubr
          56 485 rmoveto
          -12 callgsubr
          hintmask 10111011
          -35 callgsubr
          hintmask 10110111
          -73 callgsubr
        </CharString>
        <CharString name="abreve.alt">
          -7 callgsubr
          91 27 callsubr
          70 83 86 59 hintmask 01011011
          562 hmoveto
          -78 callgsubr
          hintmask 10101011
          -71 callgsubr
          hintmask 01101011
          -35 callsubr
          hintmask 10100111
          -191 63 rmoveto
          -78 -53 60 70 callgsubr
          85 98 75 55 -56 -96 -131 -90 -83 -91 hvcurveto
          194 652 rmoveto
          -12 callgsubr
          hintmask 10101011
          -35 callgsubr
          hintmask 10100111
          -73 callgsubr
        </CharString>
        <CharString name="acircumflex">
          -15 callsubr
          264 -20 hstemhm
          55 88 hintmask 01111100
          529 hmoveto
          -98 callgsubr
          hintmask 10111100
          -46 callgsubr
          hintmask 01111100
          -35 callsubr
          -31 149 rmoveto
          hintmask 10111100
          -50 callgsubr
          111 374 -84 callgsubr
        </CharString>
        <CharString name="acircumflex.alt">
          -7 callgsubr
          291 -20 -38 callsubr
          249 541 -84 callgsubr
        </CharString>
        <CharString name="acute">
          -354 569 199 hstem
          122 235 vstem
          350 706 -68 callgsubr
        </CharString>
        <CharString name="adieresis">
          -15 callsubr
          57 85 hstemhm
          55 88 110 85 73 85 hintmask 01111111
          529 hmoveto
          -98 callgsubr
          hintmask 10111111
          -46 callgsubr
          hintmask 01111111
          -35 callsubr
          -31 149 rmoveto
          hintmask 10111111
          -50 callgsubr
          -84 373 -94 callgsubr
          endchar
        </CharString>
        <CharString name="adieresis.alt">
          -7 callgsubr
          84 85 hstemhm
          70 83 100 85 73 85 hintmask 01011111
          562 hmoveto
          -78 callgsubr
          hintmask 10101111
          -71 callgsubr
          hintmask 01101111
          -35 callsubr
          hintmask 10101111
          -191 63 rmoveto
          -78 -53 60 70 callgsubr
          85 98 75 55 -56 -96 -131 -90 -83 -91 hvcurveto
          54 540 -94 callgsubr
          endchar
        </CharString>
        <CharString name="ae">
          56 callsubr
          633 -8 -59 callgsubr
        </CharString>
        <CharString name="aeacute">
          56 callsubr
          703 706 -106 callgsubr
          116 -580 -59 callgsubr
        </CharString>
        <CharString name="agrave">
          -15 callsubr
          hstemhm
          55 88 hintmask 01111000
          529 hmoveto
          -98 callgsubr
          hintmask 10111000
          -46 callgsubr
          hintmask 01111000
          -35 callsubr
          -31 149 rmoveto
          hintmask 10111000
          -50 callgsubr
          32 374 rmoveto
          -96 callgsubr
        </CharString>
        <CharString name="agrave.alt">
          -82 callsubr
          170 541 rmoveto
          -96 callgsubr
        </CharString>
        <CharString name="amacron">
          -15 callsubr
          55 69 hstemhm
          55 88 hintmask 01111100
          529 hmoveto
          -98 callgsubr
          hintmask 10111100
          -46 callgsubr
          hintmask 01111100
          -35 callsubr
          -31 149 rmoveto
          hintmask 10111100
          -50 callgsubr
          78 324 -76 callsubr
          endchar
        </CharString>
        <CharString name="amacron.alt">
          -7 callgsubr
          82 69 -38 callsubr
          216 491 -76 callsubr
          endchar
        </CharString>
        <CharString name="ampersand">
          29 -7 73 -45 -21 293 61 298 72 hstemhm
          63 90 63 81 179 77 hintmask 01111110
          603 hmoveto
          -40 callgsubr
          7 45 -105 callgsubr
          -63 hlineto
          -32 56 41 57 22 64 9 47 rlinecurve
          74 78 callgsubr
          5 37 -105 callgsubr
          -132 -92 callsubr
          -10 -69 -13 -44 -24 -37 -107 189 rcurveline
          83 39 98 52 118 vvcurveto
          93 -70 41 -75 -102 -90 -69 -113 -59 31 -52 18 -25 vhcurveto
          -74 -30 -128 -57 -146 vvcurveto
          hintmask 10111110
          -87 61 -93 148 81 62 31 43 47 vhcurveto
          17 -30 rlineto
          hintmask 01111110
          -22 12 12 -15 19 hhcurveto
          -94 126 rmoveto
          hintmask 10111110
          -37 -36 -49 -23 -60 hhcurveto
          -73 -57 43 72 103 99 43 49 20 hvcurveto
          39 88 rmoveto
          -16 24 -27 43 45 vvcurveto
          63 44 42 61 50 24 -36 -40 -84 -71 -30 -65 -27 vhcurveto
          endchar
        </CharString>
        <CharString name="aogonek">
          -65 -161 45 108 71 -42 -21 230 60 137 72 hstemhm
          55 88 230 53 hintmask 10111110
          519 -30 callsubr
          21 hlineto
          -98 callgsubr
          hintmask 11011110
          -46 callgsubr
          hintmask 10111110
          -35 callsubr
          14 -47 callsubr
          rrcurveto
          -115 269 rmoveto
          hintmask 11011110
          -50 callgsubr
          endchar
        </CharString>
        <CharString name="aogonek.alt">
          -32 -161 45 109 3 callgsubr
          -7 -20 hstemhm
          70 83 251 53 hintmask 10101110
          550 -30 callsubr
          23 hlineto
          -78 callgsubr
          hintmask 11010110
          -71 callgsubr
          hintmask 10110110
          -35 callsubr
          12 -47 callsubr
          rrcurveto
          hintmask 11010110
          -273 183 rmoveto
          -78 -53 60 70 callgsubr
          85 98 75 55 -56 -96 -131 -90 -83 -91 hvcurveto
          endchar
        </CharString>
        <CharString name="approxequal">
          -254 160 47 -32 -21 72 48 42 47 19 48 11 -20 hstemhm
          hintmask 10110100
          379 441 rmoveto
          -8 -10 callgsubr
          -50 -7 -13 -16 -31 hhcurveto
          hintmask 10111000
          -48 -11 67 -69 hhcurveto
          -72 -29 -56 -54 -7 3 -3 7 hvcurveto
          24 -41 callsubr
          45 6 17 15 27 46 7 -66 74 hhcurveto
          72 27 53 61 5 hvcurveto
          hintmask 10110100
          8 -3 3 -8 vhcurveto
          -45 -156 rmoveto
          -8 -5 -91 callsubr
          -50 -8 -13 -16 -31 -48 -11 67 -69 hhcurveto
          -72 -30 -56 -54 hvcurveto
          hintmask 01111000
          -7 4 -3 7 vhcurveto
          24 -22 callsubr
          15 27 hhcurveto
          hintmask 10111000
          46 8 -66 75 hhcurveto
          72 27 53 61 4 hvcurveto
          7 -3 4 -8 vhcurveto
          endchar
        </CharString>
        <CharString name="aring">
          -15 callsubr
          hstemhm
          55 88 hintmask 01111000
          529 hmoveto
          -98 callgsubr
          hintmask 10111000
          -46 callgsubr
          hintmask 01111000
          -35 callsubr
          -31 149 rmoveto
          hintmask 10111000
          -50 callgsubr
          2 378 -70 callgsubr
          endchar
        </CharString>
        <CharString name="aring.alt">
          -82 callsubr
          140 545 -70 callgsubr
          endchar
        </CharString>
        <CharString name="asterisk">
          -232 441 -21 335 -20 hstem
          282 420 rmoveto
          7 8 -53 callsubr
          2 111 58 -87 4 -6 9 0 7 6 rlinecurve
          26 24 7 6 2 8 -6 5 rlinecurve
          -77 68 109 -11 rlineto
          8 7 53 callsubr
          4 34 1 8 -4 6 -8 -1 rlinecurve
          -116 -16 99 73 7 5 2 9 -5 6 rlinecurve
          -20 23 -5 6 -9 0 -6 -6 rlinecurve
          -81 -90 27 114 rlineto
          8 2 -6 5 -7 hhcurveto
          -35 hlineto
          -8 -7 -6 -7 hvcurveto
          -2 -113 -58 89 -4 6 -9 -1 -6 -5 rlinecurve
          -28 -24 -6 -5 -2 -9 5 -5 rlinecurve
          81 -72 -111 14 -8 2 -8 -7 -1 -8 rlinecurve
          -4 -34 -1 -8 5 -6 8 1 rlinecurve
          116 12 -100 -69 -8 -5 0 -9 5 -6 rlinecurve
          20 -24 5 -6 9 1 6 6 rlinecurve
          80 89 -27 -113 rlineto
          -7 -2 4 -6 9 hhcurveto
          endchar
        </CharString>
        <CharString name="at">
          138 -126 68 133 62 264 53 104 67 hstem
          66 70 115 62 419 64 vstem
          605 -27 rmoveto
          -2 8 -7 2 -7 -4 rrcurveto
          0 -69 -37 -136 -143 -105 101 149 186 167 180 201 143 85 -75 -107 -152 -94 -87 -73 vhcurveto
          -22 hlineto
          79 295 rlineto
          7 2 -2 -29 callgsubr
          -30 hlineto
          -7 -6 -4 -7 -2 hvcurveto
          -7 -25 rlineto
          16 -6 -19 30 -59 hhcurveto
          -112 -115 -93 -148 -100 60 -38 63 67 46 65 1 hvcurveto
          -6 -25 rlineto
          -29 -8 13 -9 29 hhcurveto
          20 hlineto
          110 151 102 204 132 -98 109 -185 -228 -219 -203 -237 -180 126 -131 182 142 92 49 0 hvcurveto
          7 1 3 7 -3 7 rrcurveto
          -102 293 rmoveto
          -38 -10 -56 -59 -51 hhcurveto
          -43 -40 26 67 108 86 66 73 60 9 -51 -16 hvcurveto
          endchar
        </CharString>
        <CharString name="atilde">
          -15 callsubr
          60 15 callsubr
          55 88 hintmask 01111101
          529 hmoveto
          -98 callgsubr
          hintmask 10111101
          -46 callgsubr
          hintmask 01111101
          -35 callsubr
          -31 149 rmoveto
          hintmask 10111011
          -50 callgsubr
          76 454 -43 callsubr
          hintmask 10111101
          -81 callgsubr
          hintmask 10111011
          -4 callgsubr
        </CharString>
        <CharString name="atilde.alt">
          -7 callgsubr
          87 15 callsubr
          70 83 hintmask 01011101
          562 hmoveto
          -78 callgsubr
          hintmask 10101101
          -71 callgsubr
          hintmask 01101101
          -35 callsubr
          hintmask 10101011
          -191 63 rmoveto
          -78 -53 60 70 callgsubr
          85 98 75 55 -56 -96 -131 -90 -83 -91 hvcurveto
          214 621 -43 callsubr
          hintmask 10101101
          -81 callgsubr
          hintmask 10101011
          -4 callgsubr
        </CharString>
        <CharString name="b">
          -32 -7 3 callgsubr
          152 67 hstemhm
          530 83 hintmask 01111000
          170 hmoveto
          -58 callgsubr
          11 82 rlineto
          2 hlineto
          hintmask 10111000
          -50 13 47 -51 90 hhcurveto
          150 115 120 175 124 -71 87 -121 -93 -59 -54 -47 -27 hvcurveto
          -2 hlineto
          0 8 33 1 9 vhcurveto
          37 266 rlineto
          8 2 36 callsubr
          -123 -26 callsubr
          -90 -639 rlineto
          hintmask 01111000
          -90 callsubr
          7 hhcurveto
          hintmask 10111000
          228 63 rmoveto
          -76 -53 59 94 131 89 82 92 76 55 -57 -95 -124 -82 -90 -101 hvcurveto
          endchar
        </CharString>
        <CharString name="backslash">
          -240 -53 -21 834 -20 hstem
          228 748 rmoveto
          8 -1 -5 29 callgsubr
          -4 -4 -8 1 hvcurveto
          129 -810 rlineto
          -8 1 -86 callgsubr
          59 hlineto
          8 5 4 8 -1 hvcurveto
          endchar
        </CharString>
        <CharString name="bar">
          -485 -110 -21 891 -20 hstem
          91 -131 rmoveto
          -40 callgsubr
          122 867 -74 callsubr
          -59 -41 callgsubr
          -122 -867 -106 callsubr
          endchar
        </CharString>
        <CharString name="braceleft">
          -304 -72 78 681 78 hstem
          301 -7 rmoveto
          -55 callgsubr
          -59 -22 23 62 9 hvcurveto
          15 112 rlineto
          12 89 -59 39 0 vvcurveto
          5 34 rlineto
          0 71 40 12 89 vhcurveto
          15 106 rlineto
          62 9 29 25 58 hhcurveto
          -47 callgsubr
          7 52 -45 callgsubr
          -90 -82 -37 -121 -18 hvcurveto
          -16 -114 -11 -76 -53 -39 -21 -1 rlinecurve
          -12 callgsubr
          -4 -31 rlineto
          -8 -1 4 -6 8 hhcurveto
          21 43 -40 -75 -11 hvcurveto
          -16 -120 rlineto
          -121 -17 73 -35 90 hhcurveto
          9 callgsubr
          endchar
        </CharString>
        <CharString name="braceright">
          -304 -72 78 681 78 hstem
          41 -72 rmoveto
          90 84 35 121 16 hvcurveto
          17 120 rlineto
          75 11 54 40 21 hhcurveto
          8 6 53 callsubr
          4 31 61 callgsubr
          -21 -43 39 76 11 hvcurveto
          16 114 rlineto
          121 17 -73 37 -90 78 callsubr
          -8 -52 -9 callgsubr
          59 23 -25 -62 -10 hvcurveto
          -15 -106 rlineto
          -13 -89 60 -40 0 vvcurveto
          -5 -34 rlineto
          0 -71 -39 -12 -89 vhcurveto
          -16 -112 rlineto
          -62 -8 -29 -23 -59 78 callsubr
          -7 -52 -16 callsubr
        </CharString>
        <CharString name="bracketleft">
          -341 -71 79 679 79 hstem
          242 -71 -20 callgsubr
          7 52 61 callgsubr
          -131 hlineto
          96 679 rlineto
          131 hlineto
          8 5 -53 callsubr
          8 52 rlineto
          8 1 -5 6 -8 hhcurveto
          -202 hlineto
          -7 -5 -91 callsubr
          -115 -813 -106 callsubr
          endchar
        </CharString>
        <CharString name="bracketright">
          -341 -71 79 679 79 hstem
          372 754 rmoveto
          -102 callsubr
          -202 hlineto
          -8 -5 9 callsubr
          -8 -52 rlineto
          -8 -1 4 -5 9 hhcurveto
          130 hlineto
          -95 -679 rlineto
          -131 hlineto
          -8 -6 -6 -8 -2 hvcurveto
          -7 -52 -9 callgsubr
          201 14 callgsubr
          endchar
        </CharString>
        <CharString name="breve">
          -295 563 27 callsubr
          132 59 hintmask 01100000
          371 715 rmoveto
          -12 callgsubr
          hintmask 10100000
          -35 callgsubr
          hintmask 01100000
          -73 callgsubr
        </CharString>
        <CharString name="brokenbar">
          -485 -110 -21 891 -20 hstem
          167 410 rmoveto
          -40 callgsubr
          46 326 -74 callsubr
          -59 -41 callgsubr
          -45 -326 rlineto
          -8 -2 -86 callgsubr
          -17 -541 rmoveto
          -40 callgsubr
          46 326 -74 callsubr
          -60 -92 callsubr
          -46 -326 -106 callsubr
          endchar
        </CharString>
        <CharString name="bullet">
          -382 239 193 hstem
          84 190 vstem
          165 239 rmoveto
          64 45 44 66 49 -31 34 -51 -68 -40 -48 -65 -49 28 -31 53 hvcurveto
          endchar
        </CharString>
        <CharString name="c">
          21 callsubr
          hstemhm
          70 85 hintmask 10101000
          486 144 -65 callsubr
        </CharString>
        <CharString name="cacute">
          21 callsubr
          hstemhm
          70 85 hintmask 10101000
          544 706 -106 callgsubr
          128 -428 -65 callsubr
        </CharString>
        <CharString name="caron">
          -235 594 -21 hstem
          470 713 -100 callsubr
          endchar
        </CharString>
        <CharString name="ccaron">
          21 callsubr
          hstemhm
          70 85 hintmask 10101000
          556 713 -100 callsubr
          104 -434 -65 callsubr
        </CharString>
        <CharString name="ccedilla">
          -106 -156 41 59 119 -69 69 235 201 -70 70 -6 -20 hstemhm
          70 85 160 49 hintmask 10101011
          265 13 callgsubr
          9 20 120 9 65 73 15 21 rlinecurve
          5 6 0 6 -6 6 -24 28 rcurveline
          -52 callgsubr
          hintmask 11010011
          -8 -1 -86 callgsubr
          45 -41 callsubr
          24 170 rlineto
          hintmask 11000111
          -55 callgsubr
          -38 -31 callsubr
          -7 -55 rlineto
          -1 hlineto
          hintmask 10110011
          30 -17 -41 44 -91 hhcurveto
          -133 -143 -103 -185 -132 83 -79 115 -6 hvcurveto
          -16 -33 rlineto
          hintmask 11010011
          -49 callsubr
          51 callgsubr
        </CharString>
        <CharString name="ccircumflex">
          21 callsubr
          290 -20 hstemhm
          70 85 hintmask 10101100
          534 -79 callsubr
          -19 -431 rmoveto
          -52 callgsubr
          hintmask 11001100
          -8 -1 -86 callgsubr
          45 -41 callsubr
          24 170 rlineto
          hintmask 10011100
          -55 callgsubr
          -38 -31 callsubr
          -7 -55 rlineto
          -1 hlineto
          hintmask 11001100
          30 -17 -41 44 -91 hhcurveto
          -133 -143 -103 -185 -137 91 -81 122 138 74 -36 callgsubr
          rrcurveto
          endchar
        </CharString>
        <CharString name="cdotaccent">
          21 callsubr
          93 105 hstemhm
          70 85 161 106 hintmask 10101110
          486 144 rmoveto
          -52 callgsubr
          hintmask 11001110
          -8 -1 -86 callgsubr
          45 -41 callsubr
          24 170 rlineto
          hintmask 10011110
          -55 callgsubr
          -38 -31 callsubr
          -7 -55 rlineto
          -1 hlineto
          hintmask 11001110
          30 -17 -41 44 -91 hhcurveto
          -133 -143 -103 -185 -137 91 -81 122 138 74 -36 callgsubr
          rrcurveto
          -88 508 32 callsubr
          -31 -29 -27 -32 -26 19 -20 26 32 29 27 31 vhcurveto
          endchar
        </CharString>
        <CharString name="cedilla">
          -409 -156 41 0 59 74 -20 hstemhm
          141 49 hintmask 10110000
          91 13 callgsubr
          20 42 -42 1 -28 -57 rlineto
          hintmask 01110000
          -49 callsubr
          hintmask 10110000
          51 callgsubr
        </CharString>
        <CharString name="cent">
          -106 -13 133 365 151 hstem
          78 85 vstem
          298 -13 rmoveto
          -40 callgsubr
          7 52 115 10 70 72 15 21 rlinecurve
          5 7 0 6 -6 5 -24 29 rcurveline
          -6 6 -6 -3 -6 -6 rrcurveto
          -24 -17 -70 -54 -86 hhcurveto
          -75 -65 56 101 137 109 71 83 87 46 -59 -42 -6 hvcurveto
          -2 -17 -106 callsubr
          45 -41 callsubr
          24 170 -105 callgsubr
          -38 -92 callsubr
          -5 -56 rlineto
          -3 hlineto
          -12 30 -37 31 -64 9 10 73 rcurveline
          -73 callsubr
          -43 -41 callgsubr
          -10 -71 rlineto
          -123 -15 -121 -101 -169 vvcurveto
          -123 73 -78 101 -14 vhcurveto
          -8 -54 -106 callsubr
          endchar
        </CharString>
        <CharString name="circumflex">
          -235 763 -20 hstem
          457 -79 callsubr
          endchar
        </CharString>
        <CharString name="colon">
          -474 -7 94 306 95 hstemhm
          43 96 -40 96 hintmask 11100000
          139 46 48 callgsubr
          24 29 26 23 30 vhcurveto
          hintmask 11010000
          56 400 rmoveto
          24 -18 18 -24 -29 -25 -24 -29 -24 18 -18 24 28 26 24 29 vhcurveto
          endchar
        </CharString>
        <CharString name="comma">
          -486 -95 181 -93 93 hstemhm
          34 100 -43 43 hintmask 10100000
          32 -90 rmoveto
          -3 3 -2 4 50 52 callsubr
          vhcurveto
          hintmask 01010000
          -24 16 -16 21 13 6 5 0 vhcurveto
          34 callgsubr
        </CharString>
        <CharString name="commaaccent">
          -473 -4 callsubr
          hstemhm
          22 100 -43 43 hintmask 10100000
          20 -67 callsubr
          hintmask 01010000
          -61 callgsubr
          -4 vvcurveto
          -41 -28 -17 -21 -32 callgsubr
          endchar
        </CharString>
        <CharString name="copyright">
          25 51 53 71 56 240 56 65 53 hstem
          84 53 78 60 356 53 19 callsubr
          -53 -5 rmoveto
          -148 -134 -124 -147 -124 -89 95 121 148 134 124 148 123 89 -95 -121 vhcurveto
          -150 -93 rmoveto
          -4 3 -4 -1 -3 -5 rrcurveto
          -19 -15 -26 -30 -62 hhcurveto
          -51 -41 33 67 94 63 46 61 58 23 -29 -23 9 hvcurveto
          2 -5 4 0 4 3 32 20 rcurveline
          5 4 1 4 -2 4 rrcurveto
          19 -8 -31 59 -89 hhcurveto
          -98 -94 -76 -126 -94 62 -56 80 89 49 59 19 13 hvcurveto
          3 4 0 4 -5 4 rrcurveto
          endchar
        </CharString>
        <CharString name="d">
          -33 -7 3 callgsubr
          152 67 hstemhm
          70 83 hintmask 01111000
          562 hmoveto
          -15 callgsubr
          hintmask 10111000
          31 callgsubr
          hintmask 01111000
          72 callsubr
          hintmask 10111000
          -191 63 rmoveto
          -79 -52 62 93 130 87 81 95 73 57 -54 -98 -129 -83 -85 -98 hvcurveto
          endchar
        </CharString>
        <CharString name="dagger">
          -220 -110 -21 627 75 callsubr
          -33 callgsubr
          87 615 rlineto
          115 hlineto
          -27 callgsubr
          -116 hlineto
          25 175 -74 callsubr
          -60 -92 callsubr
          -25 -175 rlineto
          -121 -7 callsubr
          -8 -51 -9 callgsubr
          122 hlineto
          -87 -615 64 callgsubr
        </CharString>
        <CharString name="daggerdbl">
          -220 -110 -21 202 78 347 75 callsubr
          6 4 -20 callsubr
          27 190 rlineto
          115 hlineto
          8 6 53 callsubr
          8 50 rlineto
          8 1 -5 6 -8 hhcurveto
          -116 hlineto
          49 347 rlineto
          116 hlineto
          8 6 2 callgsubr
          -4 5 -8 hhcurveto
          -116 hlineto
          25 175 -105 callgsubr
          -59 -92 callsubr
          -25 -175 rlineto
          -122 hlineto
          -8 -6 -5 -97 callgsubr
          -2 5 -5 9 hhcurveto
          121 hlineto
          -49 -347 rlineto
          -122 hlineto
          -8 -5 9 callsubr
          -8 -50 rlineto
          -8 -1 5 -6 8 hhcurveto
          122 hlineto
          -27 -190 6 callsubr
          endchar
        </CharString>
        <CharString name="dcaron">
          -5 -7 3 callgsubr
          62 182 -93 68 hstemhm
          70 83 484 100 -43 43 hintmask 10110110
          635 567 -9 callsubr
          hintmask 01101101
          -24 16 -16 21 13 6 5 0 vhcurveto
          -10 callsubr
          -76 -584 rmoveto
          -15 callgsubr
          hintmask 10110110
          31 callgsubr
          hintmask 01110110
          72 callsubr
          hintmask 10110110
          -191 63 rmoveto
          -79 -52 62 93 130 87 81 95 73 57 -54 -98 -129 -83 -85 -98 hvcurveto
          endchar
        </CharString>
        <CharString name="dcroat">
          -48 -7 3 callgsubr
          56 38 58 67 hstemhm
          70 83 hintmask 01111100
          562 hmoveto
          -1 callgsubr
          -56 hlineto
          69 488 rlineto
          56 hlineto
          7 4 4 7 1 hvcurveto
          3 16 60 callsubr
          -56 hlineto
          16 113 -105 callgsubr
          -124 -97 callsubr
          -1 4 -4 8 hhcurveto
          56 74 callsubr
          -128 hlineto
          -7 -5 -4 -7 -1 hvcurveto
          -2 68 callgsubr
          128 hlineto
          -18 -121 rlineto
          -2 -13 -1 -20 0 vvcurveto
          -1 hlineto
          48 -14 -46 50 -88 hhcurveto
          -152 -113 -123 -169 hvcurveto
          hintmask 10111100
          31 callgsubr
          hintmask 01111100
          72 callsubr
          hintmask 10111100
          -191 63 rmoveto
          -79 -52 62 93 130 87 81 95 73 57 -54 -98 -129 -83 -85 -98 hvcurveto
          endchar
        </CharString>
        <CharString name="degree">
          -425 419 38 76 38 hstem
          107 39 69 38 vstem
          169 419 rmoveto
          43 41 30 56 39 -26 27 -37 -43 -40 -37 -50 -44 29 -21 33 hvcurveto
          5 38 rmoveto
          -15 -13 12 21 25 19 18 20 17 13 -13 -19 -28 -21 -16 -20 hvcurveto
          endchar
        </CharString>
        <CharString name="dieresis">
          -332 556 85 hstem
          119 86 callsubr
          204 -39 callsubr
          endchar
        </CharString>
        <CharString name="divide">
          -231 97 83 41 77 47 83 hstemhm
          185 84 -49 84 hintmask 11110000
          393 221 -22 callgsubr
          -311 hlineto
          -8 -6 -5 -100 callgsubr
          4 -5 8 hhcurveto
          187 -78 rmoveto
          21 -15 16 -21 -25 -23 -21 -25 -21 16 -16 20 26 22 21 25 vhcurveto
          hintmask 11101000
          35 249 rmoveto
          20 -15 16 -21 -26 -22 -20 -26 -21 15 -16 21 25 23 21 26 vhcurveto
          endchar
        </CharString>
        <CharString name="dollar">
          1 -86 160 -80 80 -43 43 -43 212 248 205 -54 54 -54 82 -82 163 hstemhm
          132 97 304 104 -81 81 hintmask 1000100011000000
          349 -86 rmoveto
          -40 callgsubr
          hintmask 0100010010100000
          10 68 rlineto
          184 6 80 106 110 71 callsubr
          135 30 -98 -28 -2 vhcurveto
          0 -1 -13 -1 vhcurveto
          hintmask 1000100011000000
          -4 3 -8 8 vhcurveto
          63 -41 callsubr
          25 181 rlineto
          8 1 -3 -24 callgsubr
          -4 -39 -20 32 -36 28 -64 9 rlinecurve
          11 79 rlineto
          hintmask 1000000111000000
          -102 callsubr
          -54 -92 callsubr
          hintmask 0010001011000000
          -10 -69 rlineto
          -153 -5 -99 -96 -116 -222 401 76 -154 vvcurveto
          -83 -71 -50 -112 -159 -34 133 18 1 vhcurveto
          1 6 rlineto
          hintmask 0001100011000000
          -102 callsubr
          -63 -92 callsubr
          -27 -188 -106 callsubr
          56 hlineto
          -26 callgsubr
          hvcurveto
          8 67 rlineto
          2 hlineto
          18 -39 45 -56 97 -14 -10 -75 rcurveline
          hintmask 1000100011000000
          -88 callsubr
          endchar
        </CharString>
        <CharString name="dotaccent">
          -472 566 105 hstem
          121 106 vstem
          227 46 callsubr
        </CharString>
        <CharString name="dotlessi">
          33 callgsubr
          hstem
          242 hmoveto
          -80 callgsubr
          58 413 -105 callgsubr
          -126 -97 callsubr
          -1 4 -4 8 hhcurveto
          56 -33 callsubr
        </CharString>
        <CharString name="e">
          -107 -7 70 173 61 136 66 -19 callgsubr
          endchar
        </CharString>
        <CharString name="eacute">
          83 callsubr
          515 706 -106 callgsubr
          188 -336 rmoveto
          -95 callsubr
          endchar
        </CharString>
        <CharString name="ebreve">
          -5 callsubr
          64 27 callsubr
          70 232 -59 59 hintmask 11101100
          -66 callgsubr
          25 418 rmoveto
          -12 callgsubr
          hintmask 11110010
          -35 callgsubr
          hintmask 11101010
          -73 callgsubr
        </CharString>
        <CharString name="ecaron">
          83 callsubr
          539 713 -100 callsubr
          152 -342 rmoveto
          -95 callsubr
          endchar
        </CharString>
        <CharString name="ecircumflex">
          -5 callsubr
          264 -20 hstem
          528 -79 callsubr
          18 -339 rmoveto
          -95 callsubr
          endchar
        </CharString>
        <CharString name="edieresis">
          -5 callsubr
          57 85 hstemhm
          70 250 -85 85 73 85 -85 144 hintmask 11110110
          320 -39 callsubr
          39 -367 rmoveto
          hintmask 11111001
          -95 callsubr
          endchar
        </CharString>
        <CharString name="edotaccent">
          -5 callsubr
          67 105 hstemhm
          309 106 -106 228 hintmask 11110100
          -66 callgsubr
          hintmask 11111000
          -42 327 32 callsubr
          -31 -29 -27 -32 -26 19 -20 26 32 29 27 31 vhcurveto
          endchar
        </CharString>
        <CharString name="egrave">
          -107 -7 70 173 61 136 66 -19 callgsubr
          307 vmoveto
          -96 callgsubr
        </CharString>
        <CharString name="eight">
          -37 -7 81 271 41 1 22 235 80 hstemhm
          65 92 -21 21 -21 88 286 91 -70 70 -70 92 hintmask 1111010001000000
          485 387 rmoveto
          25 113 47 122 79 -56 89 -161 -193 -77 -118 -90 -91 73 -38 24 hvcurveto
          -1 -1 rlineto
          hintmask 1111100100000000
          -33 -134 -46 -159 -110 91 -78 148 172 125 99 141 118 -89 35 -28 hvcurveto
          -119 -41 rmoveto
          95 50 -44 -72 -93 -80 -62 -116 -99 -58 48 73 90 66 60 117 hvcurveto
          hintmask 1111001010000000
          191 195 rmoveto
          -105 -105 -26 -67 -52 -83 17 84 71 59 63 112 94 42 -48 -56 vhcurveto
          endchar
        </CharString>
        <CharString name="ellipsis">
          -248 -7 94 hstem
          33 96 28 96 26 96 vstem
          129 46 28 callgsubr
          124 hmoveto
          5 callgsubr
          24 29 26 23 30 vhcurveto
          122 hmoveto
          5 callgsubr
          24 29 26 23 30 vhcurveto
          endchar
        </CharString>
        <CharString name="emacron">
          -5 callsubr
          55 69 -19 callgsubr
          37 257 -76 callsubr
          endchar
        </CharString>
        <CharString name="emdash">
          234 222 77 hstem
          858 222 -22 callgsubr
          -776 -28 callsubr
        </CharString>
        <CharString name="endash">
          -91 222 77 hstem
          533 222 -22 callgsubr
          -451 -28 callsubr
        </CharString>
        <CharString name="eng">
          -93 -234 71 163 44 callsubr
          hintmask 11100000
          423 -63 rmoveto
          -66 -9 -37 -34 -54 hhcurveto
          -30 -16 16 4 -5 hvcurveto
          -6 2 -7 0 -6 -5 -27 -30 rcurveline
          -5 -6 -1 -7 6 -6 rrcurveto
          -8 8 28 -31 59 hhcurveto
          100 69 57 113 16 hvcurveto
          53 389 rlineto
          105 15 -52 69 -108 hhcurveto
          -108 -51 -67 -20 -15 hvcurveto
          -3 hlineto
          9 50 rlineto
          hintmask 11010000
          24 4 -9 12 callgsubr
          191 hlineto
          -80 callgsubr
          38 275 rlineto
          hintmask 11100000
          1 1 44 84 100 hhcurveto
          74 29 -47 -75 -11 hvcurveto
          endchar
        </CharString>
        <CharString name="eogonek">
          -107 -161 45 109 70 173 61 136 66 hstemhm
          70 190 -53 53 hintmask 11111000
          517 236 rmoveto
          10 10 6 55 125 -69 77 -123 -133 -142 -104 -184 -133 86 -81 118 -4 hvcurveto
          hintmask 11110100
          -30 -15 -37 -31 -44 vvcurveto
          -41 29 -23 44 40 28 20 4 7 vhcurveto
          6 4 2 4 -3 9 -7 13 rcurveline
          -3 8 -7 -3 -8 -3 rrcurveto
          -5 -9 -16 -6 -16 hhcurveto
          -20 -14 8 21 41 53 31 25 13 hvcurveto
          99 18 60 63 14 19 5 6 0 6 -6 6 -24 27 rcurveline
          -34 callsubr
          -18 -66 -54 -86 hhcurveto
          -79 -74 56 117 12 hvcurveto
          10 61 rmoveto
          96 26 75 40 69 hhcurveto
          86 41 -55 -81 -7 hvcurveto
          endchar
        </CharString>
        <CharString name="equal">
          -222 100 77 158 78 hstem
          419 335 rmoveto
          8 6 53 callsubr
          7 50 61 callgsubr
          -320 59 callsubr
          286 -235 -22 callgsubr
          -320 -28 callsubr
        </CharString>
        <CharString name="eth">
          -34 76 callgsubr
          68 92 375 94 hintmask 11101100
          482 602 rmoveto
          42 -36 17 -66 -6 -89 rrcurveto
          22 -32 -59 29 -94 hhcurveto
          -182 -100 -113 -148 -120 84 -88 146 208 123 188 248 99 -24 89 -52 47 hvcurveto
          46 40 6 6 1 8 -5 5 rlinecurve
          -16 21 -6 5 -6 0 -7 -5 rlinecurve
          -55 -49 rlineto
          19 -35 -41 10 -48 hhcurveto
          -147 -100 -89 -102 -7 3 -3 8 hvcurveto
          60 -41 callsubr
          hintmask 11011100
          45 7 46 65 98 hhcurveto
          24 21 -5 -7 19 hvcurveto
          -46 -40 -7 -6 0 -8 4 -5 rlinecurve
          17 -21 5 -5 7 0 7 5 rlinecurve
          102 -214 rmoveto
          -169 -27 -79 -96 -113 hhcurveto
          -97 -53 58 81 105 76 76 122 93 55 -38 -17 23 hvcurveto
          endchar
        </CharString>
        <CharString name="exclam">
          -463 -49 106 703 -20 hstem
          38 108 vstem
          142 148 rmoveto
          7 -33 callgsubr
          83 588 -74 callsubr
          -60 -92 callsubr
          -83 -588 rlineto
          -8 -1 5 -4 7 hhcurveto
          64 -138 rmoveto
          27 -20 76 callsubr
          30 27 32 vhcurveto
          endchar
        </CharString>
        <CharString name="exclamdown">
          -463 -247 -21 703 106 hstem
          106 107 vstem
          83 -268 rmoveto
          7 6 4 -20 callsubr
          83 588 -105 callgsubr
          -60 7 callsubr
          -83 -588 6 callsubr
          190 762 32 callsubr
          -32 -29 -27 -32 -27 20 -20 26 33 28 27 32 vhcurveto
          endchar
        </CharString>
        <CharString name="f">
          -258 33 callgsubr
          161 71 hstem
          279 34 callsubr
          -88 hlineto
          51 358 rlineto
          127 -13 callgsubr
          -128 -69 callsubr
          endchar
        </CharString>
        <CharString name="ff">
          108 33 callgsubr
          161 71 hstem
          645 34 callsubr
          -88 hlineto
          51 358 rlineto
          127 -13 callgsubr
          -128 hlineto
          8 61 rlineto
          66 10 37 34 53 hhcurveto
          31 16 -15 -4 5 hvcurveto
          6 -5 6 2 5 5 29 31 rcurveline
          6 6 0 5 -6 6 rrcurveto
          8 -7 -30 32 -59 hhcurveto
          -100 -69 -57 -113 -15 hvcurveto
          -9 -62 rlineto
          -283 -69 callsubr
          226 hlineto
          8 5 26 callsubr
          -88 hlineto
          51 358 rlineto
          283 -33 callsubr
        </CharString>
        <CharString name="fi">
          20 33 callgsubr
          53 112 -4 71 hstemhm
          547 113 hintmask 11011000
          614 hmoveto
          -80 callgsubr
          58 413 -105 callgsubr
          -357 -69 callsubr
          226 hlineto
          8 5 26 callsubr
          -88 hlineto
          51 358 rlineto
          287 hlineto
          -51 -358 rlineto
          -56 hlineto
          -8 -4 -102 callgsubr
          237 607 rmoveto
          hintmask 11101000
          25 callsubr
        </CharString>
        <CharString name="five">
          -55 -7 81 320 68 104 154 -75 75 hstemhm
          497 90 hintmask 11011000
          285 -7 rmoveto
          178 124 108 164 117 -73 80 -145 -73 -52 -18 -2 -10 hvcurveto
          29 203 rlineto
          249 hlineto
          -10 -67 rlineto
          hintmask 11101000
          -8 -1 -86 callgsubr
          63 hlineto
          7 6 4 -20 callsubr
          18 130 -74 callsubr
          -400 -41 callgsubr
          -45 -324 -4 -26 17 0 11 2 rlinecurve
          8 35 68 26 76 hhcurveto
          99 57 -56 -82 -114 -78 -68 -123 -111 -33 46 callgsubr
          53 -102 163 hhcurveto
          endchar
        </CharString>
        <CharString name="fl">
          35 33 callgsubr
          161 71 -6 -20 hstemhm
          hintmask 11100000
          279 34 callsubr
          -88 hlineto
          51 358 rlineto
          127 -13 callgsubr
          -128 -69 callsubr
          576 hmoveto
          -80 callgsubr
          88 626 rlineto
          hintmask 11010000
          17 3 -7 8 -20 hhcurveto
          -111 -26 callsubr
          -83 -27 callsubr
          endchar
        </CharString>
        <CharString name="florin">
          -138 -234 72 588 67 160 71 hstem
          215 -62 rmoveto
          -67 -10 -36 -33 -54 hhcurveto
          -30 -17 14 4 -5 hvcurveto
          -6 6 -6 -2 -6 -6 -28 -30 rcurveline
          -5 -6 0 -6 5 -6 rrcurveto
          -8 8 29 -32 59 hhcurveto
          100 69 58 113 15 hvcurveto
          69 489 rlineto
          128 -13 callgsubr
          -128 hlineto
          8 60 rlineto
          66 9 37 34 54 hhcurveto
          30 17 -15 -4 5 hvcurveto
          6 -5 6 2 5 5 28 31 rcurveline
          7 6 0 5 -7 6 rrcurveto
          8 -7 -29 32 -59 hhcurveto
          -100 -69 -57 -113 -16 hvcurveto
          -9 -61 rlineto
          -57 -97 callsubr
          -1 4 -4 7 hhcurveto
          58 hlineto
          endchar
        </CharString>
        <CharString name="four">
          -37 0 75 150 70 423 -20 hstem
          557 77 callsubr
          1 -3 4 -8 hhcurveto
          -87 hlineto
          21 150 rlineto
          79 45 callgsubr
          6 44 -57 callgsubr
          -79 hlineto
          58 411 -105 callgsubr
          -57 hlineto
          -14 -7 -3 -20 -20 hvcurveto
          -365 -385 -13 -14 -4 -7 -2 -11 rlinecurve
          -5 -40 rlineto
          -8 -1 3 -25 callgsubr
          333 hlineto
          -21 -150 rlineto
          -114 -23 callsubr
          156 295 rmoveto
          -254 hlineto
          298 313 rlineto
          endchar
        </CharString>
        <CharString name="fraction">
          -240 -53 -21 834 -20 hstem
          97 -74 -16 callgsubr
        </CharString>
        <CharString name="g">
          12 callsubr
          hstemhm
          69 83 hintmask 11011000
          235 -234 rmoveto
          136 111 67 148 21 hvcurveto
          62 444 rlineto
          54 -13 callsubr
          -118 7 callsubr
          -10 -79 rlineto
          -2 hlineto
          hintmask 11101000
          -80 callsubr
          endchar
        </CharString>
        <CharString name="gbreve">
          12 callsubr
          91 27 callsubr
          69 83 103 59 hintmask 11011011
          235 -234 rmoveto
          136 111 67 148 21 hvcurveto
          62 444 rlineto
          54 -13 callsubr
          -118 7 callsubr
          -10 -79 rlineto
          -2 hlineto
          hintmask 11100111
          -80 callsubr
          210 652 rmoveto
          -12 callgsubr
          hintmask 11101011
          -35 callgsubr
          hintmask 11100111
          -73 callgsubr
        </CharString>
        <CharString name="gcircumflex">
          12 callsubr
          291 -20 hstemhm
          69 83 hintmask 11011100
          549 -79 callsubr
          -285 -809 rmoveto
          136 111 67 148 21 hvcurveto
          62 444 rlineto
          54 -13 callsubr
          -118 7 callsubr
          -10 -79 rlineto
          -2 hlineto
          hintmask 11101100
          -80 callsubr
          endchar
        </CharString>
        <CharString name="gcommaaccent">
          12 callsubr
          61 93 -93 182 hstemhm
          69 83 167 43 hintmask 11011011
          235 -234 rmoveto
          136 111 67 148 21 hvcurveto
          62 444 rlineto
          54 -13 callsubr
          -118 7 callsubr
          -10 -79 rlineto
          -2 hlineto
          hintmask 11100111
          -80 callsubr
          137 646 25 callgsubr
          hvcurveto
          hintmask 11101011
          24 -16 16 -21 -14 -6 -5 0 vhcurveto
          33 callsubr
        </CharString>
        <CharString name="gdotaccent">
          12 callsubr
          94 105 hstemhm
          69 83 183 106 hintmask 11011110
          235 -234 rmoveto
          136 111 67 148 21 hvcurveto
          62 444 rlineto
          54 -13 callsubr
          -118 7 callsubr
          -10 -79 rlineto
          -2 hlineto
          hintmask 11101110
          -80 callsubr
          157 561 32 callsubr
          -31 -29 -27 -32 -26 19 -20 26 32 29 27 31 vhcurveto
          endchar
        </CharString>
        <CharString name="germandbls">
          52 -12 69 -57 57 -57 69 580 75 hstemhm
          347 85 70 85 4 89 hintmask 10011110
          232 hmoveto
          7 6 4 -20 callsubr
          7 45 rlineto
          hintmask 00111110
          -102 callsubr
          -40 hlineto
          58 413 rlineto
          109 15 76 58 69 hhcurveto
          58 24 -31 -34 hvcurveto
          -94 -155 22 -145 -150 244 42 -111 vvcurveto
          hintmask 10011110
          -51 -59 -40 -71 -109 -15 97 5 -3 vhcurveto
          -1 8 -7 1 -8 -3 -37 -16 rcurveline
          -9 -4 -3 -6 2 -7 rrcurveto
          -18 5 17 -126 164 hhcurveto
          118 105 70 97 hvcurveto
          160 -248 -36 101 114 155 -29 139 vvcurveto
          65 -47 55 -109 -120 -113 -89 -153 -22 vhcurveto
          hintmask 00111110
          -58 -413 rlineto
          -58 hlineto
          hintmask 01011110
          -8 -4 -91 callsubr
          -7 -45 -106 callsubr
          endchar
        </CharString>
        <CharString name="grave">
          -354 569 199 hstem
          136 206 vstem
          337 604 rmoveto
          -96 callgsubr
        </CharString>
        <CharString name="greater">
          -207 65 379 hstem
          49 388 vstem
          437 263 rmoveto
          1 8 -4 7 -7 4 -313 161 rcurveline
          -7 3 -6 -3 -1 -8 -6 -43 rcurveline
          -1 -8 4 -8 7 -4 230 -118 rcurveline
          -263 -118 -8 -3 -7 -8 -1 -8 rlinecurve
          -6 -43 -1 -8 5 -3 9 3 rlinecurve
          357 160 9 4 6 7 1 8 rlinecurve
          endchar
        </CharString>
        <CharString name="guillemotleft">
          -124 58 376 hstem
          71 471 vstem
          280 61 rmoveto
          5 38 callgsubr
          2 9 6 44 rcurveline
          2 8 -5 8 -7 6 -148 114 rcurveline
          180 115 9 5 6 9 2 8 rlinecurve
          6 44 1 10 -7 -2 -7 -3 rlinecurve
          -241 -153 -8 -5 -8 -8 -1 -8 rlinecurve
          -3 -22 -1 -8 4 -9 7 -6 rlinecurve
          396 -152 rmoveto
          6 38 callgsubr
          1 9 7 44 rcurveline
          1 8 -5 8 -6 6 -149 114 rcurveline
          181 115 8 5 7 9 1 8 rlinecurve
          6 44 1 10 -7 -2 -7 -3 rlinecurve
          -241 -153 -9 -5 -6 -8 -1 -8 rlinecurve
          -4 -22 -1 -8 4 -9 7 -6 rlinecurve
          endchar
        </CharString>
        <CharString name="guillemotright">
          -124 59 376 hstem
          48 471 vstem
          258 61 rmoveto
          242 152 9 6 6 9 1 8 rlinecurve
          3 22 2 85 callgsubr
          -6 5 -7 -1 -1 -9 rlinecurve
          -6 -44 -2 -8 6 -9 6 -5 rlinecurve
          149 -115 -181 -114 -9 -6 -6 -8 -1 -8 rlinecurve
          -7 -44 -1 -10 8 2 6 3 rlinecurve
          -197 hmoveto
          241 152 9 6 6 9 2 8 rlinecurve
          3 22 1 85 callgsubr
          -5 5 -7 -1 -1 -9 rlinecurve
          -7 -44 -1 -8 5 -9 7 -5 rlinecurve
          149 -115 -182 -114 -8 -6 -7 -8 -1 -8 rlinecurve
          -6 -44 -1 -10 8 2 6 3 rlinecurve
          endchar
        </CharString>
        <CharString name="h">
          72 callgsubr
          152 67 hstem
          570 hmoveto
          4 callgsubr
          36 258 rlineto
          105 14 -53 69 -108 hhcurveto
          -139 -35 -128 0 hvcurveto
          -2 hlineto
          1 6 17 86 2 16 32 227 rcurveline
          39 callsubr
          -82 -27 callsubr
          191 hlineto
          -80 callgsubr
          29 209 rlineto
          -1 54 152 103 71 29 -47 -75 -11 vhcurveto
          50 callgsubr
        </CharString>
        <CharString name="hbar">
          72 callgsubr
          60 38 54 67 hstem
          570 hmoveto
          4 callgsubr
          36 258 rlineto
          105 14 -53 69 -108 hhcurveto
          -139 -35 -128 0 hvcurveto
          -2 hlineto
          1 6 17 86 2 16 11 80 rcurveline
          124 hlineto
          7 4 4 7 1 hvcurveto
          2 16 60 callsubr
          -123 hlineto
          16 109 rlineto
          39 callsubr
          -8 -54 rlineto
          -58 80 callgsubr
          -3 68 callgsubr
          58 hlineto
          -69 -492 rlineto
          -56 hlineto
          -8 -4 -102 callgsubr
          191 hlineto
          -80 callgsubr
          29 209 rlineto
          -1 54 152 103 71 29 -47 -75 -11 vhcurveto
          50 callgsubr
        </CharString>
        <CharString name="hcircumflex">
          72 callgsubr
          152 67 236 -20 hstem
          583 795 -107 callgsubr
          16 -766 rmoveto
          4 callgsubr
          36 258 rlineto
          105 14 -53 69 -108 hhcurveto
          -139 -35 -128 0 hvcurveto
          -2 hlineto
          1 6 17 86 2 16 32 227 rcurveline
          39 callsubr
          -82 -27 callsubr
          191 hlineto
          -80 callgsubr
          29 209 rlineto
          -1 54 152 103 71 29 -47 -75 -11 vhcurveto
          50 callgsubr
        </CharString>
        <CharString name="hungarumlaut">
          -182 578 199 hstem
          123 408 vstem
          351 -55 callsubr
          endchar
        </CharString>
        <CharString name="hyphen">
          8 callgsubr
        </CharString>
        <CharString name="i">
          33 callgsubr
          53 112 hstem
          175 113 vstem
          242 hmoveto
          -80 callgsubr
          58 413 -105 callgsubr
          -126 -97 callsubr
          -1 4 -4 8 hhcurveto
          56 hlineto
          -51 -358 rlineto
          -56 hlineto
          -8 -4 -102 callgsubr
          237 607 rmoveto
          25 callsubr
        </CharString>
        <CharString name="iacute">
          33 callgsubr
          hstem
          242 hmoveto
          -80 callgsubr
          58 413 -105 callgsubr
          -126 -97 callsubr
          -1 4 -4 8 hhcurveto
          56 hlineto
          -51 -358 rlineto
          -56 hlineto
          -8 -4 -102 callgsubr
          357 706 -68 callgsubr
        </CharString>
        <CharString name="icircumflex">
          33 callgsubr
          70 callsubr
          242 hmoveto
          -80 callgsubr
          58 413 -105 callgsubr
          -126 -97 callsubr
          -1 4 -4 8 hhcurveto
          56 hlineto
          -51 -358 rlineto
          -56 hlineto
          -8 -4 -102 callgsubr
          344 -79 callsubr
          endchar
        </CharString>
        <CharString name="idieresis">
          33 callgsubr
          64 85 hstem
          116 86 callsubr
          242 hmoveto
          -80 callgsubr
          58 413 -105 callgsubr
          -126 -97 callsubr
          -1 4 -4 8 hhcurveto
          56 hlineto
          -51 -358 rlineto
          -56 hlineto
          -8 -4 -102 callgsubr
          150 -39 callsubr
          endchar
        </CharString>
        <CharString name="igrave">
          33 callgsubr
          hstem
          242 hmoveto
          -80 callgsubr
          58 413 -105 callgsubr
          -126 -97 callsubr
          -1 4 -4 8 hhcurveto
          56 hlineto
          -51 -358 rlineto
          -56 hlineto
          -8 -4 -102 callgsubr
          208 599 rmoveto
          -96 callgsubr
        </CharString>
        <CharString name="imacron">
          33 callgsubr
          62 69 hstem
          242 hmoveto
          -80 callgsubr
          58 413 -105 callgsubr
          -126 -97 callsubr
          -1 4 -4 8 hhcurveto
          56 hlineto
          -51 -358 rlineto
          -56 hlineto
          -8 -4 -102 callgsubr
          308 554 -76 callsubr
          endchar
        </CharString>
        <CharString name="iogonek">
          -343 -161 45 116 74 callgsubr
          53 112 hstem
          69 53 53 113 vstem
          215 -30 callsubr
          38 hlineto
          -80 callgsubr
          58 413 -105 callgsubr
          -126 -97 callsubr
          -1 4 -4 8 hhcurveto
          56 hlineto
          -51 -358 rlineto
          -56 hlineto
          -8 -4 -102 callgsubr
          101 -47 callsubr
          rrcurveto
          66 727 rmoveto
          25 callsubr
        </CharString>
        <CharString name="itilde">
          -312 33 callgsubr
          67 15 callsubr
          hintmask 11101000
          269 34 callsubr
          -53 hlineto
          58 413 -105 callgsubr
          -126 -97 callsubr
          -1 4 17 callsubr
          -50 -358 rlineto
          -56 -97 callsubr
          -1 4 -4 7 hhcurveto
          299 38 callsubr
          hintmask 11110000
          -81 callgsubr
          hintmask 11101000
          -4 callgsubr
        </CharString>
        <CharString name="j">
          -319 49 callgsubr
          53 112 hstem
          260 113 vstem
          373 607 rmoveto
          27 -21 23 -28 -34 -30 -29 -34 -27 20 -22 28 33 32 28 34 vhcurveto
          -192 -670 -14 callsubr
          endchar
        </CharString>
        <CharString name="jcircumflex">
          -302 49 callgsubr
          70 callsubr
          181 -63 -14 callsubr
          226 179 -84 callgsubr
        </CharString>
        <CharString name="k">
          -31 33 callgsubr
          159 67 hstem
          570 hmoveto
          -1 callgsubr
          -44 hlineto
          -151 251 137 107 rlineto
          65 -13 callgsubr
          -192 41 callsubr
          -43 rlineto
          -8 -1 5 -4 7 hhcurveto
          37 hlineto
          -206 -167 63 448 rlineto
          39 callsubr
          -82 -27 callsubr
          191 hlineto
          -80 callgsubr
          16 114 109 90 144 -240 rlineto
          -20 12 15 -11 21 hhcurveto
          endchar
        </CharString>
        <CharString name="k.alt">
          -3 0 67 -67 233 200 66 152 67 hstemhm
          507 81 hintmask 10111000
          40 callgsubr
          -17 14 16 -14 21 hhcurveto
          54 hlineto
          -1 callgsubr
          -44 hlineto
          -133 122 rlineto
          77 8 108 52 105 vvcurveto
          82 -51 63 -105 -104 -61 -77 -38 -24 vhcurveto
          46 322 rlineto
          39 callsubr
          -82 -27 callsubr
          191 hlineto
          -80 callgsubr
          25 178 rlineto
          63 15 70 125 109 hhcurveto
          52 37 -40 -45 hvcurveto
          hintmask 01111000
          -75 -90 -40 -59 vhcurveto
          endchar
        </CharString>
        <CharString name="kcommaaccent">
          -31 55 callgsubr
          358 67 159 67 hstemhm
          244 100 -43 43 hintmask 10111100
          242 -67 callsubr
          hintmask 01111010
          -61 callgsubr
          -4 vvcurveto
          -41 -28 -17 -21 -32 callgsubr
          325 205 rmoveto
          -1 callgsubr
          -44 hlineto
          -151 251 137 107 rlineto
          65 -13 callgsubr
          -192 41 callsubr
          -43 rlineto
          -8 -1 5 -4 7 hhcurveto
          37 hlineto
          -206 -167 63 448 rlineto
          39 callsubr
          -82 -27 callsubr
          191 hlineto
          -80 callgsubr
          16 114 109 90 144 -240 rlineto
          -20 12 15 -11 21 hhcurveto
          endchar
        </CharString>
        <CharString name="kcommaaccent.alt">
          -3 55 callgsubr
          -67 233 200 66 152 67 hstemhm
          244 100 -43 43 163 81 hintmask 1001111010000000
          40 callgsubr
          -16 15 15 -15 66 callgsubr
          hintmask 1010111010000000
          -102 callsubr
          -44 hlineto
          -133 122 rlineto
          77 8 108 52 105 vvcurveto
          82 -51 63 -105 -104 -61 -77 -38 -24 vhcurveto
          46 322 rlineto
          39 callsubr
          -82 -27 callsubr
          191 hlineto
          -80 callgsubr
          25 178 rlineto
          63 15 70 125 109 hhcurveto
          52 37 -40 -45 hvcurveto
          hintmask 1001111010000000
          -75 -90 -40 -59 vhcurveto
          -116 -455 rmoveto
          -4 3 -2 4 51 44 39 85 36 -16 22 -30 -29 -25 -24 -30 vhcurveto
          hintmask 0110110110000000
          -61 callgsubr
          -4 vvcurveto
          -41 -28 -17 -21 -32 callgsubr
          endchar
        </CharString>
        <CharString name="l">
          0 67 584 67 hstem
          242 hmoveto
          -80 callgsubr
          88 626 rlineto
          17 3 -7 8 -20 hhcurveto
          -111 -26 callsubr
          -83 -27 callsubr
          endchar
        </CharString>
        <CharString name="lacute">
          0 67 584 67 hstem
          422 895 -106 callgsubr
          6 -761 rmoveto
          -80 callgsubr
          88 626 rlineto
          17 3 -7 8 -20 hhcurveto
          -111 -26 callsubr
          -83 -27 callsubr
          endchar
        </CharString>
        <CharString name="lcaron">
          0 67 494 182 -93 68 hstemhm
          332 100 -43 43 hintmask 11010000
          330 567 -9 callsubr
          hintmask 10101000
          -24 16 -16 21 13 6 5 0 vhcurveto
          -10 callsubr
          -91 -584 rmoveto
          -80 callgsubr
          88 626 rlineto
          17 3 -7 8 -20 hhcurveto
          -111 -26 callsubr
          -83 -27 callsubr
          endchar
        </CharString>
        <CharString name="lcommaaccent">
          55 callgsubr
          584 67 hstemhm
          87 100 -43 43 hintmask 10111000
          85 -67 callsubr
          hintmask 01110100
          -61 callgsubr
          -4 vvcurveto
          -41 -28 -17 -21 -32 callgsubr
          154 205 rmoveto
          -80 callgsubr
          88 626 rlineto
          17 3 -7 8 -20 hhcurveto
          -111 -26 callsubr
          -83 -27 callsubr
          endchar
        </CharString>
        <CharString name="ldot">
          0 67 584 67 hstem
          242 hmoveto
          -80 callgsubr
          88 626 rlineto
          17 3 -7 8 -20 hhcurveto
          -111 -26 callsubr
          -83 -27 callsubr
          endchar
        </CharString>
        <CharString name="less">
          -207 65 379 hstem
          72 389 vstem
          396 66 rmoveto
          7 -3 6 3 1 8 6 43 rcurveline
          1 8 -4 8 -7 3 -230 118 rcurveline
          263 118 8 4 7 8 1 8 rlinecurve
          6 43 1 8 -5 3 -8 -3 rlinecurve
          -358 -161 -8 -4 -7 -7 -1 -8 rlinecurve
          -3 -18 -1 -8 5 -7 7 -4 rlinecurve
          endchar
        </CharString>
        <CharString name="logicalnot">
          -80 162 -21 183 69 hstem
          533 141 rmoveto
          -58 callgsubr
          31 227 -57 callgsubr
          -462 -7 callsubr
          -6 -43 -9 callgsubr
          404 hlineto
          -25 -171 -106 callsubr
          endchar
        </CharString>
        <CharString name="lslash">
          0 67 584 67 hstem
          242 hmoveto
          8 5 4 8 2 67 callgsubr
          272 151 132 7 6 0 7 -5 6 rlinecurve
          -16 20 -5 6 -7 0 -7 -6 rlinecurve
          -107 -94 39 277 rlineto
          17 2 -6 8 -20 hhcurveto
          -111 42 callgsubr
          -43 rlineto
          -8 -1 5 17 callsubr
          -44 -317 -145 -127 -6 -5 -2 -8 5 -6 rlinecurve
          17 -20 5 -6 7 0 7 6 rlinecurve
          100 88 -26 -189 rlineto
          -56 -97 callsubr
          -1 4 -4 8 hhcurveto
          endchar
        </CharString>
        <CharString name="m">
          286 0 44 callsubr
          hintmask 11000000
          748 42 rmoveto
          72 callsubr
          95 hlineto
          4 callgsubr
          35 258 rlineto
          100 14 -47 74 -112 hhcurveto
          -96 -48 -64 -44 -22 hvcurveto
          65 -11 -48 43 -85 hhcurveto
          -143 -37 23 callgsubr
          15 102 rlineto
          hintmask 10100000
          24 3 -8 12 callgsubr
          187 35 callgsubr
          -48 hlineto
          31 214 rlineto
          hintmask 11000000
          2 1 51 144 104 hhcurveto
          68 31 -47 -75 -11 hvcurveto
          -33 -238 rlineto
          -53 hlineto
          -8 -4 -102 callgsubr
          191 hlineto
          -1 callgsubr
          -56 hlineto
          32 237 2 13 rlineto
          41 22 45 69 71 hhcurveto
          68 31 -47 -75 -11 hvcurveto
          endchar
        </CharString>
        <CharString name="macron">
          -253 554 69 hstem
          421 554 -76 callsubr
          endchar
        </CharString>
        <CharString name="minus">
          8 callgsubr
        </CharString>
        <CharString name="multiply">
          -293 156 277 hstem
          69 297 vstem
          336 203 rmoveto
          7 6 1 6 -5 6 -64 74 rcurveline
          85 76 7 5 1 8 -4 6 rlinecurve
          -31 36 -5 6 -7 0 -7 -6 rlinecurve
          -87 -77 -67 80 -5 6 -6 0 -6 -6 rlinecurve
          -46 -40 -6 -6 -1 -6 5 -6 rlinecurve
          67 -78 -87 -77 -7 -6 -1 -8 5 -6 rlinecurve
          31 -36 4 -5 7 0 7 5 rlinecurve
          89 78 64 -75 5 -5 6 0 6 5 rlinecurve
          endchar
        </CharString>
        <CharString name="n">
          -24 0 44 callsubr
          hintmask 11000000
          570 hmoveto
          4 callgsubr
          36 258 rlineto
          105 14 -52 69 -108 hhcurveto
          -145 -36 23 callgsubr
          18 120 rlineto
          hintmask 10100000
          8 1 -3 -76 callgsubr
          191 hlineto
          -80 callgsubr
          29 210 rlineto
          hintmask 11000000
          -24 callsubr
          endchar
        </CharString>
        <CharString name="nacute">
          -24 0 44 callsubr
          hintmask 11000000
          524 706 -106 callgsubr
          232 -572 rmoveto
          4 callgsubr
          36 258 rlineto
          105 14 -52 69 -108 hhcurveto
          -145 -36 23 callgsubr
          18 120 rlineto
          hintmask 10100000
          8 1 -3 -76 callgsubr
          191 hlineto
          -80 callgsubr
          29 210 rlineto
          hintmask 11000000
          -24 callsubr
          endchar
        </CharString>
        <CharString name="ncaron">
          -24 0 44 callsubr
          hintmask 11000000
          572 713 -100 callsubr
          172 -578 rmoveto
          4 callgsubr
          36 258 rlineto
          105 14 -52 69 -108 hhcurveto
          -145 -36 23 callgsubr
          18 120 rlineto
          hintmask 10100000
          8 1 -3 -76 callgsubr
          191 hlineto
          -80 callgsubr
          29 210 rlineto
          hintmask 11000000
          -24 callsubr
          endchar
        </CharString>
        <CharString name="ncommaaccent">
          -24 55 callgsubr
          360 72 -7 -20 hstemhm
          243 100 -43 43 hintmask 10110100
          241 -67 callsubr
          hintmask 01110010
          -61 callgsubr
          -4 vvcurveto
          -41 -28 -17 -21 -32 callgsubr
          326 205 rmoveto
          4 callgsubr
          36 258 rlineto
          105 14 -52 69 -108 hhcurveto
          -145 -36 23 callgsubr
          18 120 rlineto
          hintmask 10101100
          8 1 -3 -76 callgsubr
          191 hlineto
          -80 callgsubr
          29 210 rlineto
          hintmask 10110100
          -24 callsubr
          endchar
        </CharString>
        <CharString name="nine">
          -33 -7 79 -79 201 61 68 320 81 hstemhm
          88 87 -72 72 -72 91 hintmask 10111000
          104 194 rmoveto
          -9 -7 -5 -31 -97 73 -68 123 227 120 208 234 172 -81 117 -150 hvcurveto
          hintmask 10110100
          -176 -121 -118 -154 -117 72 -80 145 97 68 29 22 38 hvcurveto
          -147 -33 -78 -87 -116 hhcurveto
          -89 -32 56 43 hvcurveto
          hintmask 01110010
          20 -4 3 -6 vhcurveto
          372 184 rmoveto
          -18 -30 -67 -37 -93 hhcurveto
          -97 -56 55 82 104 77 79 119 109 58 -95 -170 -20 hvcurveto
          endchar
        </CharString>
        <CharString name="notequal">
          -222 41 136 -77 77 158 78 -78 156 hstemhm
          hintmask 10100000
          385 100 -22 callgsubr
          -157 hlineto
          70 158 rlineto
          110 hlineto
          8 6 53 callsubr
          7 50 61 callgsubr
          -87 hlineto
          30 66 rlineto
          hintmask 10010000
          8 3 -2 -85 callgsubr
          -41 hlineto
          -8 -6 -4 -8 -3 hvcurveto
          hintmask 10100000
          -30 -66 rlineto
          -168 59 callsubr
          145 hlineto
          -70 -158 rlineto
          -98 -7 callsubr
          -7 -51 rlineto
          hintmask 01100000
          -62 callgsubr
          75 hlineto
          -20 -47 rlineto
          hintmask 10100000
          -8 -4 3 -82 callgsubr
          40 hlineto
          -26 callgsubr
          4 hvcurveto
          hintmask 01100000
          20 47 rlineto
          endchar
        </CharString>
        <CharString name="ntilde">
          72 callgsubr
          -7 -20 87 15 callsubr
          hintmask 11011000
          570 hmoveto
          4 callgsubr
          36 258 rlineto
          105 14 -52 69 -108 hhcurveto
          -145 -36 23 callgsubr
          18 120 rlineto
          hintmask 10111000
          8 1 -3 -76 callgsubr
          191 hlineto
          -80 callgsubr
          29 210 rlineto
          hintmask 11010100
          -24 callsubr
          51 38 callsubr
          hintmask 11011000
          -81 callgsubr
          hintmask 11010100
          -4 callgsubr
        </CharString>
        <CharString name="numbersign">
          -33 -7 180 -61 61 126 62 -62 184 hstemhm
          hintmask 10100000
          523 112 rmoveto
          7 6 4 -20 callsubr
          5 37 -105 callgsubr
          -81 hlineto
          55 126 rlineto
          98 45 callgsubr
          5 36 -57 callgsubr
          -80 hlineto
          47 75 callgsubr
          -49 hlineto
          -8 -6 -5 -8 -4 hvcurveto
          hintmask 10100000
          -47 -109 rlineto
          -131 hlineto
          48 75 callgsubr
          -50 hlineto
          -8 -6 -5 -8 -3 hvcurveto
          hintmask 10100000
          -47 -109 rlineto
          -98 -31 callsubr
          -6 -36 rlineto
          -8 -1 5 -5 7 hhcurveto
          80 hlineto
          -55 -126 rlineto
          -97 -92 callsubr
          -5 -37 rlineto
          hintmask 01100000
          -90 callsubr
          7 hhcurveto
          81 hlineto
          -46 -107 rlineto
          hintmask 10100000
          -8 -3 2 -82 callgsubr
          49 hlineto
          8 7 4 8 3 hvcurveto
          hintmask 01100000
          46 107 rlineto
          130 hlineto
          -45 -107 rlineto
          hintmask 10100000
          -8 -4 3 -82 callgsubr
          49 hlineto
          7 7 4 8 3 hvcurveto
          hintmask 01100000
          46 107 rlineto
          -48 61 rmoveto
          -131 hlineto
          55 126 rlineto
          130 hlineto
          endchar
        </CharString>
        <CharString name="o">
          -70 -7 20 callsubr
          -34 callgsubr
          endchar
        </CharString>
        <CharString name="oacute">
          -70 -7 20 callsubr
          529 706 -106 callgsubr
          -57 -579 rmoveto
          -84 callsubr
          endchar
        </CharString>
        <CharString name="obreve">
          63 callgsubr
          64 27 callsubr
          70 84 94 59 183 84 hintmask 11011110
          -34 callgsubr
          191 652 rmoveto
          -12 callgsubr
          hintmask 11101110
          -35 callgsubr
          hintmask 11011110
          -73 callgsubr
        </CharString>
        <CharString name="ocircumflex">
          63 callgsubr
          264 -20 hstem
          70 84 336 84 vstem
          545 -79 callsubr
          -230 -582 rmoveto
          -84 callsubr
          endchar
        </CharString>
        <CharString name="odieresis">
          63 callgsubr
          57 85 hstemhm
          70 84 98 85 73 85 -5 84 hintmask 11111100
          337 -39 callsubr
          -209 -610 rmoveto
          hintmask 11111010
          -84 callsubr
          endchar
        </CharString>
        <CharString name="oe">
          309 -7 70 173 61 132 70 hstem
          70 84 vstem
          699 -7 rmoveto
          131 80 -36 callgsubr
          -23 27 rcurveline
          -6 6 -7 -2 -6 -7 rrcurveto
          -23 -17 -66 -54 -86 hhcurveto
          -79 -74 56 117 11 hvcurveto
          360 hlineto
          9 12 7 54 125 -69 77 -124 -80 -81 -41 -75 -50 hvcurveto
          73 -30 -72 43 -89 hhcurveto
          -153 -135 -109 -178 -135 89 -84 127 91 84 43 76 50 hvcurveto
          -77 29 70 -42 89 hhcurveto
          -403 70 rmoveto
          -80 -62 60 97 129 99 80 95 77 65 -59 -97 -128 -94 -82 -100 hvcurveto
          284 234 rmoveto
          96 26 75 40 69 hhcurveto
          86 41 -55 -81 -7 hvcurveto
          endchar
        </CharString>
        <CharString name="ogonek">
          -416 -161 45 -45 165 hstemhm
          22 53 hintmask 10100000
          168 -107 rmoveto
          -3 8 -7 -3 -8 -3 rrcurveto
          -5 -9 -16 -6 -16 hhcurveto
          -20 -14 8 21 hvcurveto
          hintmask 01100000
          52 89 38 2 1 vhcurveto
          -43 hlineto
          -21 -80 -37 -64 -41 29 -23 44 40 28 20 4 7 hvcurveto
          6 4 2 4 -3 9 rrcurveto
          endchar
        </CharString>
        <CharString name="ograve">
          -70 -7 20 callsubr
          -34 callgsubr
          141 541 rmoveto
          -96 callgsubr
        </CharString>
        <CharString name="ohungarumlaut">
          -70 -7 20 callsubr
          422 -55 callsubr
          -123 -588 rmoveto
          -84 callsubr
          endchar
        </CharString>
        <CharString name="omacron">
          63 callgsubr
          55 69 hstem
          70 84 336 84 vstem
          513 554 -76 callsubr
          68 -561 rmoveto
          -84 callsubr
          endchar
        </CharString>
        <CharString name="one">
          -137 0 75 643 -20 hstem
          458 10 callsubr
          -145 hlineto
          89 631 -105 callgsubr
          -63 hlineto
          -7 -4 -2 -5 -8 hvcurveto
          -192 -125 -7 -5 -3 -6 5 -6 rlinecurve
          23 -41 4 -7 5 0 7 4 rlinecurve
          152 99 -77 -549 rlineto
          -163 -103 callgsubr
          endchar
        </CharString>
        <CharString name="onehalf">
          58 -53 -21 74 48 263 51 0 48 311 -20 59 -20 hstemhm
          638 58 hintmask 11101110
          18 callsubr
          487 74 rmoveto
          6 4 3 7 1 hvcurveto
          11 73 rlineto
          5 -1 3 -6 vhcurveto
          -35 hlineto
          -5 -3 -2 -6 -1 hvcurveto
          -5 -35 rlineto
          -152 hlineto
          22 91 205 -17 146 vvcurveto
          51 -35 43 -75 -100 -46 -66 -48 -5 2 -2 4 vhcurveto
          39 hlineto
          5 2 2 6 1 hvcurveto
          40 5 32 22 49 hhcurveto
          36 23 -19 -32 -112 -208 36 -24 -153 hvcurveto
          -3 -21 rlineto
          -7 -1 4 -3 6 hhcurveto
          -100 362 84 callsubr
          hintmask 11011110
          65 callsubr
          -1 4 -6 vhcurveto
          0 callsubr
        </CharString>
        <CharString name="onethird">
          53 -53 -21 70 50 118 43 103 51 1 48 311 -20 59 -20 hstemhm
          455 219 -45 45 hintmask 1111111100000000
          18 callsubr
          358 70 rmoveto
          85 63 46 70 55 -43 18 -15 3 hvcurveto
          15 2 54 28 57 vvcurveto
          40 -27 46 -79 -74 -50 -46 -52 -4 3 -2 3 vhcurveto
          38 hlineto
          4 3 3 5 1 hvcurveto
          24 3 27 21 35 hhcurveto
          hintmask 1111111010000000
          38 19 -17 -25 -46 -45 -15 -32 hvcurveto
          -14 hlineto
          -5 -2 -2 -5 -1 hvcurveto
          -4 -29 rlineto
          -5 2 -2 5 vhcurveto
          17 hlineto
          45 23 -19 -33 -40 -26 -26 -59 -51 -19 25 15 -12 hvcurveto
          -3 3 -2 0 -4 -3 -29 -24 rcurveline
          -3 -2 0 -3 2 -3 rrcurveto
          -8 6 25 -50 83 hhcurveto
          -214 366 84 callsubr
          65 callsubr
          1 -2 4 -6 hhcurveto
          0 callsubr
        </CharString>
        <CharString name="ordfeminine">
          -317 471 41 76 31 63 42 hstem
          113 51 vstem
          191 471 rmoveto
          50 29 27 11 13 hvcurveto
          1 hlineto
          -2 -13 rlineto
          -16 -2 6 -5 15 hhcurveto
          49 hlineto
          3 2 2 4 1 hvcurveto
          4 28 rlineto
          3 -1 2 -3 vhcurveto
          -29 hlineto
          15 106 rlineto
          66 9 -26 38 -73 hhcurveto
          -66 -32 -33 0 hvcurveto
          -3 -1 0 -3 2 -3 12 -21 rcurveline
          2 -3 3 0 2 1 rrcurveto
          2 23 21 47 hhcurveto
          51 2 -23 -37 -2 hvcurveto
          -3 -60 vlineto
          -77 -45 -29 -54 -42 34 -23 44 hvcurveto
          17 41 rmoveto
          -27 -17 13 21 28 19 14 51 hvcurveto
          56 hlineto
          -6 -44 rlineto
          -15 -15 -26 -17 -35 hhcurveto
          endchar
        </CharString>
        <CharString name="ordmasculine">
          -328 471 42 170 41 hstem
          121 44 156 44 vstem
          226 471 rmoveto
          71 68 58 88 67 -46 40 -58 -71 -69 -52 -91 -68 46 -42 59 hvcurveto
          6 42 rmoveto
          -37 -30 26 46 63 48 35 43 35 30 -25 -47 -63 -44 -35 -45 hvcurveto
          endchar
        </CharString>
        <CharString name="oslash">
          -70 -8 -21 22 24 callgsubr
          11 -20 hstemhm
          70 84 336 84 hintmask 11011100
          0 callgsubr
          hintmask 11101100
          -18 callsubr
          endchar
        </CharString>
        <CharString name="oslashacute">
          -70 -8 -21 22 20 callsubr
          0 callgsubr
          -18 callsubr
          268 633 -68 callgsubr
        </CharString>
        <CharString name="otilde">
          63 callgsubr
          60 15 callsubr
          70 84 336 84 hintmask 11101110
          -34 callgsubr
          217 621 -43 callsubr
          hintmask 11110110
          -81 callgsubr
          hintmask 11101110
          -4 callgsubr
        </CharString>
        <CharString name="p">
          66 callsubr
          530 82 hintmask 11101000
          220 -225 rmoveto
          -58 callgsubr
          5 -58 callsubr
          -65 hlineto
          28 203 rlineto
          2 14 2 32 0 vvcurveto
          3 47 callgsubr
          -95 -57 -55 -47 -28 hvcurveto
          -2 hlineto
          13 83 rlineto
          hintmask 11011000
          8 2 36 callsubr
          -117 -97 callsubr
          -1 4 -4 8 hhcurveto
          54 hlineto
          -82 -583 rlineto
          -57 hlineto
          -8 -4 -102 callgsubr
          328 288 rmoveto
          -69 -62 53 95 hvcurveto
          hintmask 11101000
          146 96 72 87 77 54 -58 -95 -127 -85 -86 -98 vhcurveto
          endchar
        </CharString>
        <CharString name="paragraph">
          18 -57 -21 721 75 hstem
          546 -78 rmoveto
          7 6 4 -20 callsubr
          100 709 rlineto
          43 -83 callsubr
          1 -3 4 -8 hhcurveto
          -340 hlineto
          -151 -122 -97 -188 -135 86 -62 129 hvcurveto
          40 hlineto
          -42 -302 -106 callsubr
          62 -41 callsubr
          100 709 rlineto
          71 hlineto
          -99 -709 6 callsubr
          endchar
        </CharString>
        <CharString name="parenleft">
          -233 -66 77 677 77 hstem
          81 84 vstem
          373 -2 rmoveto
          8 2 -18 callgsubr
          -91 -106 82 192 274 172 129 120 9 5 2 callgsubr
          -4 5 -8 hhcurveto
          -169 -218 -153 -334 -235 137 -109 133 9 callgsubr
          endchar
        </CharString>
        <CharString name="parenright">
          -233 -67 78 676 77 hstem
          346 83 vstem
          31 -53 rmoveto
          -8 -1 4 -6 8 hhcurveto
          169 218 156 335 233 -136 107 -133 -12 callgsubr
          -7 -51 rlineto
          -7 -1 4 -6 9 hhcurveto
          93 104 -89 -188 -280 -176 -119 -117 -8 -6 9 callsubr
          endchar
        </CharString>
        <CharString name="percent">
          108 -53 -21 67 55 255 55 1 55 255 55 36 -20 hstem
          111 60 175 60 42 -29 callsubr
          -312 -122 rmoveto
          7 7 4 8 3 hvcurveto
          356 810 rlineto
          8 4 43 callsubr
          -7 77 callgsubr
          3 -4 7 hhcurveto
          endchar
        </CharString>
        <CharString name="period">
          -494 -7 94 hstem
          33 96 vstem
          129 46 28 callgsubr
          endchar
        </CharString>
        <CharString name="periodcentered">
          -494 243 94 hstem
          33 96 vstem
          129 296 28 callgsubr
          endchar
        </CharString>
        <CharString name="perthousand">
          440 -53 -21 67 55 255 55 1 55 255 55 36 -20 hstem
          111 60 175 60 42 59 175 61 37 -29 callsubr
          325 -55 rmoveto
          106 67 95 122 87 -44 61 -78 -104 -69 -93 -122 -90 43 -60 79 hvcurveto
          7 -2 callsubr
          -40 -63 -65 hvcurveto
          -644 -122 -16 callgsubr
        </CharString>
        <CharString name="plus">
          -244 96 197 -77 77 -77 199 hstemhm
          hintmask 10000000
          244 96 rmoveto
          8 5 -53 callsubr
          hintmask 01000000
          16 107 rlineto
          105 hlineto
          8 6 -3 callsubr
          2 -18 callgsubr
          -106 hlineto
          15 110 rlineto
          hintmask 00100000
          11 callgsubr
          -6 -4 -8 -1 hvcurveto
          hintmask 10000000
          -15 -110 rlineto
          -110 -31 callsubr
          -8 -51 rlineto
          hintmask 01000000
          -8 -1 37 callgsubr
          110 hlineto
          -16 -107 rlineto
          hintmask 10000000
          -62 callgsubr
          endchar
        </CharString>
        <CharString name="plusminus">
          -244 91 77 41 197 -77 77 -77 199 hstemhm
          hintmask 10100000
          395 329 -22 callgsubr
          -106 hlineto
          15 110 rlineto
          hintmask 10010000
          11 callgsubr
          -5 -4 -8 -2 hvcurveto
          hintmask 11000000
          -15 -110 rlineto
          -110 -31 callsubr
          -7 -51 rlineto
          hintmask 10100000
          -62 callgsubr
          110 hlineto
          -16 -107 rlineto
          hintmask 11000000
          -62 callgsubr
          57 hlineto
          8 5 -53 callsubr
          hintmask 10100000
          16 107 rlineto
          72 -238 rmoveto
          8 6 -25 callsubr
          -297 -28 callsubr
        </CharString>
        <CharString name="q">
          66 callsubr
          70 83 hintmask 11011000
          531 -225 rmoveto
          8 4 4 8 2 -69 callgsubr
          -56 hlineto
          90 638 -105 callgsubr
          -51 -92 callsubr
          -10 -78 rlineto
          -2 hlineto
          hintmask 11101000
          47 -15 -47 50 -90 hhcurveto
          -149 -115 -116 -176 -125 71 -89 121 89 61 54 48 28 hvcurveto
          2 hlineto
          0 -7 -32 -2 -13 vhcurveto
          -29 -208 rlineto
          -66 7 callsubr
          -6 -99 callgsubr
          -46 288 rmoveto
          -78 -53 61 70 callgsubr
          84 99 74 55 -55 -97 -131 -86 -83 -95 hvcurveto
          endchar
        </CharString>
        <CharString name="question">
          -63 -49 106 430 237 -80 80 hstemhm
          216 107 -82 94 191 93 hintmask 11001100
          320 127 rmoveto
          -58 callgsubr
          8 180 276 0 224 vvcurveto
          101 -78 80 -151 -204 -78 -135 -92 -7 4 -3 7 vhcurveto
          63 -41 callsubr
          hintmask 10101100
          81 12 57 64 114 hhcurveto
          94 53 -47 -68 hvcurveto
          -159 -285 2 -235 vvcurveto
          -7 3 -3 7 vhcurveto
          hintmask 11010100
          72 -117 rmoveto
          27 -19 76 callsubr
          29 27 32 vhcurveto
          endchar
        </CharString>
        <CharString name="questiondown">
          -63 -274 80 -80 237 430 106 hstemhm
          18 93 191 94 -82 107 hintmask 01111000
          317 323 rmoveto
          -8 -10 callgsubr
          -8 -180 -276 0 -224 vvcurveto
          -101 78 -80 151 204 78 135 92 7 -4 3 -7 vhcurveto
          -63 -92 callsubr
          hintmask 10111000
          -81 -12 -57 -64 -114 hhcurveto
          -94 -53 47 68 hvcurveto
          159 285 -2 235 vvcurveto
          7 -3 3 -7 vhcurveto
          hintmask 10110100
          -72 117 rmoveto
          -27 19 -20 27 32 29 27 32 71 callgsubr
          -32 -29 -27 -32 vhcurveto
          endchar
        </CharString>
        <CharString name="quotedbl">
          -367 561 189 hstem
          169 561 61 callsubr
          28 163 -57 callgsubr
          -44 -7 callsubr
          -18 -163 -56 callsubr
          165 hmoveto
          8 6 5 8 2 hvcurveto
          27 163 rlineto
          8 2 -18 callgsubr
          -43 -7 callsubr
          -19 -163 -9 callgsubr
          endchar
        </CharString>
        <CharString name="quotedblbase">
          -315 -95 28 60 93 hstemhm
          44 100 -43 43 50 101 -43 43 hintmask 11101000
          42 -90 rmoveto
          -3 3 -2 3 47 callsubr
          -24 16 -16 20 14 16 callsubr
          hintmask 11011000
          17 callgsubr
          148 -17 rmoveto
          -3 -1 3 -2 4 hhcurveto
          51 73 callgsubr
          -30 -29 -25 -23 -30 -24 16 -16 21 14 6 5 0 hvcurveto
          hintmask 11100100
          56 callgsubr
          -29 -18 -21 -3 -3 -2 -4 -1 vhcurveto
          endchar
        </CharString>
        <CharString name="quotedblleft">
          -304 594 93 60 29 hstemhm
          130 43 -43 101 62 43 -43 100 hintmask 11100100
          394 770 rmoveto
          4 1 -3 2 -4 hhcurveto
          -51 -44 -40 -84 -37 17 -21 29 29 25 23 30 24 -16 16 -20 -14 -6 -5 0 hvcurveto
          hintmask 11011000
          0 -1 2 5 vvcurveto
          40 28 18 21 4 2 2 4 1 vhcurveto
          -160 17 25 callgsubr
          24 -16 16 -21 -14 -6 -5 0 hvcurveto
          hintmask 11101000
          33 callsubr
        </CharString>
        <CharString name="quotedblright">
          -304 561 29 60 93 hstemhm
          136 100 -43 43 62 101 -43 43 hintmask 11101000
          134 567 rmoveto
          -4 3 -2 4 51 44 40 84 37 -16 21 -30 -29 -25 -23 -30 -24 16 -16 21 13 16 callsubr
          hintmask 11011000
          -10 callsubr
          160 -17 rmoveto
          -4 3 -2 3 51 45 40 84 37 -17 21 -29 -29 -26 -23 -30 -24 17 -16 20 14 16 callsubr
          hintmask 11100100
          34 callgsubr
        </CharString>
        <CharString name="quoteleft">
          -466 594 93 -93 182 hstemhm
          130 43 -43 101 hintmask 01010000
          232 770 25 callgsubr
          hvcurveto
          hintmask 10100000
          24 -16 16 -21 -14 -6 -5 0 vhcurveto
          33 callsubr
        </CharString>
        <CharString name="quoteright">
          -466 561 182 -93 93 hstemhm
          136 100 -43 43 hintmask 10100000
          134 567 -9 callsubr
          hintmask 01010000
          -24 16 -16 21 13 6 5 0 vhcurveto
          -10 callsubr
          endchar
        </CharString>
        <CharString name="quotesinglbase">
          -466 -95 181 -93 93 hstemhm
          44 100 -43 43 hintmask 10100000
          42 -90 rmoveto
          -3 3 -2 3 47 callsubr
          vhcurveto
          hintmask 01010000
          -24 16 -16 20 14 16 callsubr
          34 callgsubr
        </CharString>
        <CharString name="quotesingle">
          -498 582 -21 189 -20 hstem
          169 561 61 callsubr
          28 163 -57 callgsubr
          -44 -7 callsubr
          -18 -163 -16 callsubr
        </CharString>
        <CharString name="r">
          -224 57 callsubr
          242 hmoveto
          -80 callgsubr
          23 168 rlineto
          86 12 81 94 121 hhcurveto
          21 hlineto
          8 5 -53 callsubr
          8 53 -57 callgsubr
          -181 -53 23 callgsubr
          17 125 rlineto
          hintmask 10100000
          8 2 -4 -76 callgsubr
          endchar
        </CharString>
        <CharString name="racute">
          -224 57 callsubr
          463 706 -106 callgsubr
          -35 -572 rmoveto
          -80 callgsubr
          23 168 rlineto
          86 12 81 94 121 hhcurveto
          21 hlineto
          8 5 -53 callsubr
          8 53 -57 callgsubr
          -181 -53 23 callgsubr
          17 125 rlineto
          hintmask 10100000
          8 2 -4 -76 callgsubr
          endchar
        </CharString>
        <CharString name="rcaron">
          -210 57 callsubr
          477 713 -100 callsubr
          -47 -578 rmoveto
          -80 callgsubr
          23 168 rlineto
          86 12 81 94 121 hhcurveto
          21 hlineto
          8 5 -53 callsubr
          8 53 -57 callgsubr
          -181 -53 23 callgsubr
          17 125 rlineto
          hintmask 10100000
          8 2 -4 -76 callgsubr
          endchar
        </CharString>
        <CharString name="rcommaaccent">
          -224 55 callgsubr
          348 79 -2 -20 hstemhm
          89 100 -43 43 hintmask 10110100
          87 -67 callsubr
          hintmask 01110010
          -61 callgsubr
          -4 vvcurveto
          -41 -28 -17 -21 -32 callgsubr
          152 205 rmoveto
          -80 callgsubr
          23 168 rlineto
          86 12 81 94 121 hhcurveto
          21 hlineto
          8 5 -53 callsubr
          8 53 -57 callgsubr
          -181 -53 23 callgsubr
          17 125 rlineto
          hintmask 10101100
          8 2 -4 -76 callgsubr
          endchar
        </CharString>
        <CharString name="registered">
          25 51 49 79 47 96 43 115 46 70 49 hstem
          84 49 339 51 111 50 19 callsubr
          -335 -281 rmoveto
          -125 -91 97 123 150 137 126 149 125 90 -97 -122 -151 -135 -126 -150 hvcurveto
          156 79 rmoveto
          3 2 2 4 1 hvcurveto
          5 36 rlineto
          3 -2 2 -3 vhcurveto
          -31 hlineto
          -28 72 -5 12 -4 12 -4 6 rlinecurve
          53 14 31 39 58 vvcurveto
          59 -43 28 -58 vhcurveto
          -148 hlineto
          -3 -2 -2 -3 -1 hvcurveto
          -4 -35 rlineto
          -4 -1 2 -2 3 hhcurveto
          30 hlineto
          -35 -255 rlineto
          -31 hlineto
          -3 -2 -2 -3 -1 hvcurveto
          -5 -35 rlineto
          -4 -1 2 -2 3 hhcurveto
          117 hlineto
          4 2 2 4 1 hvcurveto
          4 35 rlineto
          3 -1 2 -4 vhcurveto
          -37 hlineto
          14 97 rlineto
          52 hlineto
          13 4 -7 -15 5 hvcurveto
          38 -99 rlineto
          -12 4 5 -10 13 hhcurveto
          -128 186 rmoveto
          16 115 rlineto
          66 hlineto
          36 23 -16 -32 -43 -25 -24 -51 hvcurveto
          endchar
        </CharString>
        <CharString name="ring">
          -420 574 116 hstem
          144 31 52 31 vstem
          247 608 -70 callgsubr
          endchar
        </CharString>
        <CharString name="s">
          30 callsubr
          259 -7 rmoveto
          147 59 79 76 hvcurveto
          -90 callgsubr
          hintmask 01111000
          -31 callgsubr
          hintmask 10111000
          50 callsubr
        </CharString>
        <CharString name="sacute">
          30 callsubr
          465 706 -106 callgsubr
          -20 -579 rmoveto
          147 59 79 76 hvcurveto
          -90 callgsubr
          hintmask 01111000
          -31 callgsubr
          hintmask 10111000
          50 callsubr
        </CharString>
        <CharString name="scaron">
          30 callsubr
          503 713 -100 callsubr
          -70 -585 rmoveto
          147 59 79 76 hvcurveto
          -90 callgsubr
          hintmask 01111000
          -31 callgsubr
          hintmask 10111000
          50 callsubr
        </CharString>
        <CharString name="scedilla">
          -159 -156 41 59 114 -65 65 -37 -21 433 66 hstemhm
          105 82 79 49 62 88 hintmask 10101111
          216 13 callgsubr
          8 18 rlineto
          145 1 59 78 76 -90 callgsubr
          hintmask 10011111
          -31 callgsubr
          5 -15 29 -43 74 -11 -17 -35 rcurveline
          hintmask 11001111
          -49 callsubr
          51 callgsubr
        </CharString>
        <CharString name="scircumflex">
          -159 -7 65 -37 -21 433 66 264 -20 hstemhm
          105 82 190 88 hintmask 10111100
          485 -79 callsubr
          -197 -582 rmoveto
          147 59 79 76 hvcurveto
          -90 callgsubr
          hintmask 01111100
          -31 callgsubr
          hintmask 10111100
          50 callsubr
        </CharString>
        <CharString name="scommaaccent">
          -159 -4 callsubr
          39 65 -37 -21 433 66 hstemhm
          105 82 0 100 -43 43 90 88 hintmask 1010101010000000
          185 -67 callsubr
          hintmask 0110110110000000
          -61 callgsubr
          -4 vvcurveto
          -41 -28 -17 -21 -32 callgsubr
          71 198 rmoveto
          147 59 79 76 hvcurveto
          -90 callgsubr
          hintmask 1001110110000000
          -31 callgsubr
          hintmask 1010110110000000
          50 callsubr
        </CharString>
        <CharString name="section">
          1 -231 81 627 247 -82 82 -5 -20 hstemhm
          101 96 -65 97 272 105 -74 105 hintmask 11001010
          75 -224 rmoveto
          -58 callgsubr
          11 97 rlineto
          2 hlineto
          -41 19 63 -75 139 hhcurveto
          197 85 110 112 34 -11 29 -16 21 hvcurveto
          hintmask 10100101
          40 43 18 50 48 71 callsubr
          138 31 -88 -40 -6 vhcurveto
          -4 -25 rlineto
          hintmask 11001010
          -8 -1 -86 callgsubr
          63 -41 callsubr
          30 218 rlineto
          hintmask 10011010
          -59 callsubr
          -56 -92 callsubr
          -8 -62 rlineto
          hintmask 11000110
          44 -28 -55 35 -103 hhcurveto
          -159 -105 -97 -121 -35 10 -30 16 -21 hvcurveto
          hintmask 11001010
          -38 -40 -19 -46 -51 -223 400 77 -155 vvcurveto
          -83 -70 -49 -112 -159 -36 132 18 2 vhcurveto
          3 22 -105 callgsubr
          -63 hlineto
          -7 -6 -4 -8 -1 hvcurveto
          -33 -234 -106 callsubr
          478 348 rmoveto
          -104 61 -196 -7 116 vvcurveto
          30 13 24 21 21 vhcurveto
          hintmask 11001001
          105 -63 196 10 -109 vvcurveto
          -31 -11 -28 -24 -24 vhcurveto
          endchar
        </CharString>
        <CharString name="semicolon">
          -466 -95 181 -93 93 307 95 hstemhm
          44 100 -43 43 -43 96 hintmask 10100100
          197 446 rmoveto
          24 -18 18 -24 -29 -25 -24 -29 -24 16 -18 24 29 27 24 29 vhcurveto
          -155 -536 rmoveto
          -3 3 -2 3 vhcurveto
          hintmask 01110000
          47 callsubr
          -24 16 -16 20 14 6 5 0 hvcurveto
          hintmask 10101000
          34 callgsubr
        </CharString>
        <CharString name="seven">
          -47 21 -21 565 159 -75 75 hstemhm
          227 89 hintmask 11010000
          301 hmoveto
          8 7 4 9 388 289 -38 49 316 hvcurveto
          5 33 rlineto
          8 1 -4 4 -7 hhcurveto
          -497 hlineto
          -7 -10 callgsubr
          -19 -135 -106 callsubr
          63 hlineto
          7 6 4 -20 callsubr
          hintmask 10110000
          10 72 rlineto
          333 hlineto
          -47 -262 -276 54 -431 vvcurveto
          -7 4 -3 7 vhcurveto
          endchar
        </CharString>
        <CharString name="six">
          -32 76 callgsubr
          519 91 -72 72 -72 87 hintmask 11010010
          609 523 rmoveto
          9 7 5 31 97 -74 68 -122 -227 -120 -208 -234 -172 81 -117 150 hvcurveto
          hintmask 11010100
          176 121 118 154 117 -72 80 -144 -97 -69 -29 -22 -38 hvcurveto
          147 32 79 87 116 hhcurveto
          89 32 -56 -43 hvcurveto
          hintmask 11101000
          -20 4 -3 6 vhcurveto
          -372 -184 rmoveto
          18 30 67 37 93 hhcurveto
          97 56 -55 -82 -104 -76 -79 -120 -108 -60 95 170 21 hvcurveto
          endchar
        </CharString>
        <CharString name="slash">
          -240 -53 -21 834 -20 hstem
          97 -74 -16 callgsubr
        </CharString>
        <CharString name="space">
          -332 endchar
        </CharString>
        <CharString name="sterling">
          -47 0 75 221 61 133 234 -78 78 hstemhm
          147 91 -32 91 hintmask 11100100
          548 10 callsubr
          -376 hlineto
          50 36 63 65 2 80 rrcurveto
          12 -1 17 -2 11 vhcurveto
          162 -41 callsubr
          5 37 -74 callsubr
          -190 hlineto
          hintmask 11011000
          -17 37 -20 34 46 vvcurveto
          122 104 50 81 85 44 -55 -72 -9 vhcurveto
          -2 -17 rlineto
          hintmask 11101000
          -88 callsubr
          61 14 callgsubr
          2 16 rlineto
          128 18 -77 78 -136 hhcurveto
          -161 -126 -91 -162 -47 13 -36 14 -31 hvcurveto
          -73 -92 callsubr
          -5 -37 6 callsubr
          109 hlineto
          hintmask 11100100
          3 -12 2 -15 -15 vvcurveto
          -102 -108 -52 -27 -18 vhcurveto
          -9 -5 -3 -5 -2 -12 -7 -48 rcurveline
          -90 callsubr
          7 hhcurveto
          endchar
        </CharString>
        <CharString name="t">
          -244 -7 81 callgsubr
          hstemhm
          hintmask 11000000
          360 82 -30 callgsubr
          hintmask 10100000
          41 callgsubr
          hintmask 11000000
          -28 callgsubr
        </CharString>
        <CharString name="tbar">
          -217 -7 71 361 67 29 38 -38 86 hstemhm
          hintmask 11100000
          386 82 rmoveto
          -4 6 -5 1 -8 -6 rrcurveto
          -4 -5 -21 -15 -31 hhcurveto
          -53 -27 34 67 10 hvcurveto
          37 260 rlineto
          125 hlineto
          9 18 callgsubr
          5 41 -57 callgsubr
          -126 hlineto
          4 29 rlineto
          73 hlineto
          7 4 4 7 1 hvcurveto
          3 16 60 callsubr
          -73 hlineto
          5 34 rlineto
          hintmask 11010000
          30 callgsubr
          -57 hlineto
          -8 -6 9 callsubr
          hintmask 11100000
          -5 -34 rlineto
          -54 80 callgsubr
          -3 68 callgsubr
          54 hlineto
          -4 -29 rlineto
          -57 -7 callsubr
          -6 -41 -56 callsubr
          57 hlineto
          -37 -262 rlineto
          -113 -16 53 -57 100 hhcurveto
          59 37 33 8 10 hvcurveto
          7 2 3 9 -4 6 rrcurveto
          endchar
        </CharString>
        <CharString name="tcaron">
          -244 -7 81 callgsubr
          -66 182 -93 93 hstemhm
          318 100 -43 43 hintmask 11010100
          316 547 -9 callsubr
          hintmask 11001010
          -24 16 -16 21 13 6 5 0 vhcurveto
          -10 callsubr
          41 -482 -30 callgsubr
          hintmask 10101100
          41 callgsubr
          hintmask 11010100
          -28 callgsubr
        </CharString>
        <CharString name="tcommaaccent">
          -244 -4 callsubr
          39 81 callgsubr
          hstemhm
          147 100 -43 43 hintmask 10110100
          145 -67 callsubr
          hintmask 01110010
          -61 callgsubr
          -4 vvcurveto
          -41 -28 -17 -21 -32 callgsubr
          212 287 -30 callgsubr
          hintmask 10101100
          41 callgsubr
          hintmask 10110100
          -28 callgsubr
        </CharString>
        <CharString name="thorn">
          -32 -226 68 151 24 callgsubr
          151 67 hstem
          530 82 vstem
          220 -226 61 callsubr
          5 42 rlineto
          8 1 -3 -29 callgsubr
          -65 hlineto
          30 213 rlineto
          1 14 2 22 0 vvcurveto
          2 47 callgsubr
          -78 -59 -39 -53 -35 hvcurveto
          42 298 -105 callgsubr
          -124 -41 callgsubr
          -5 -14 callgsubr
          54 hlineto
          -113 -808 rlineto
          -57 hlineto
          -8 -4 -5 -91 callgsubr
          -7 -11 callsubr
          328 289 rmoveto
          -76 -53 58 95 133 86 80 95 77 54 -58 -95 -127 -85 -86 -98 hvcurveto
          endchar
        </CharString>
        <CharString name="three">
          -55 -7 81 263 40 -40 71 108 208 -80 80 hstemhm
          492 89 -68 68 -68 92 hintmask 11010001
          460 378 rmoveto
          26 119 54 120 80 -56 92 -157 -149 -99 -90 -108 -7 4 -3 7 hvcurveto
          60 14 callgsubr
          hintmask 10101010
          53 7 48 63 96 hhcurveto
          94 38 -47 -57 -107 -118 -25 -57 hvcurveto
          -32 -31 callsubr
          -6 -45 24 callsubr
          hintmask 11010100
          99 57 -35 -74 -92 -79 -62 -117 -109 -35 46 callgsubr
          51 -102 165 hhcurveto
          173 123 93 140 118 -93 33 -28 hvcurveto
          endchar
        </CharString>
        <CharString name="tilde">
          -261 559 48 -33 -21 69 51 11 -20 hstemhm
          hintmask 10010000
          410 38 callsubr
          hintmask 01100000
          -48 -12 66 -69 hhcurveto
          -71 -30 -56 -54 -7 3 -3 8 hvcurveto
          23 -22 callsubr
          12 27 hhcurveto
          hintmask 10100000
          46 9 -63 74 hhcurveto
          72 27 53 61 4 hvcurveto
          hintmask 10010000
          -4 callgsubr
        </CharString>
        <CharString name="trademark">
          390 288 54 322 54 hstem
          353 288 rmoveto
          5 4 3 5 hvcurveto
          6 38 rlineto
          5 1 -4 3 -4 hhcurveto
          -45 hlineto
          45 322 rlineto
          109 hlineto
          -8 -54 rlineto
          -5 -1 3 -3 5 hhcurveto
          39 hlineto
          5 3 3 5 1 hvcurveto
          14 101 rlineto
          4 1 -3 3 -5 hhcurveto
          -376 hlineto
          -5 -5 -3 -4 hvcurveto
          -14 -101 rlineto
          -5 -1 4 -3 4 hhcurveto
          38 hlineto
          5 4 3 5 1 hvcurveto
          8 54 rlineto
          111 hlineto
          -46 -322 rlineto
          -46 hlineto
          -5 -4 -3 -5 hvcurveto
          -6 -38 rlineto
          -5 -1 4 -3 4 hhcurveto
          832 hmoveto
          4 4 3 4 hvcurveto
          6 40 rlineto
          4 1 -3 3 -5 hhcurveto
          -44 hlineto
          46 322 rlineto
          44 hlineto
          4 3 3 4 1 hvcurveto
          5 40 rlineto
          5 1 -2 2 -5 hhcurveto
          -104 hlineto
          -15 -10 -7 -13 -7 hvcurveto
          -117 -214 rlineto
          -14 -28 -20 -44 0 vvcurveto
          -2 hlineto
          0 -8 46 -7 26 vhcurveto
          -57 214 rlineto
          13 -4 -7 7 -15 hhcurveto
          -103 hlineto
          -4 -4 -2 -5 -1 hvcurveto
          -5 -40 rlineto
          -4 -1 3 -3 5 hhcurveto
          44 hlineto
          -46 -322 rlineto
          -43 hlineto
          -5 -4 84 callgsubr
          5 hhcurveto
          144 hlineto
          4 3 3 4 hvcurveto
          6 40 rlineto
          4 1 -2 3 -5 hhcurveto
          -39 hlineto
          41 287 rlineto
          1 hlineto
          73 -280 rlineto
          -13 2 8 -6 13 hhcurveto
          13 10 6 13 6 hvcurveto
          152 280 rlineto
          1 hlineto
          -41 -287 rlineto
          -38 hlineto
          -5 -3 84 callgsubr
          4 hhcurveto
          endchar
        </CharString>
        <CharString name="two">
          -43 0 75 -75 159 328 237 -80 80 hstemhm
          534 93 hintmask 01101000
          551 hmoveto
          -58 callgsubr
          18 135 -63 callgsubr
          -63 -92 callsubr
          hintmask 10101000
          -11 -72 rlineto
          -339 hlineto
          44 204 436 -28 284 vvcurveto
          100 -74 89 -147 -201 -90 -132 -95 -7 4 -3 7 vhcurveto
          65 -41 callsubr
          hintmask 01011000
          79 11 63 66 116 hhcurveto
          86 53 -56 -68 -221 -439 58 -50 -314 hvcurveto
          -5 -31 -106 callsubr
          endchar
        </CharString>
        <CharString name="u">
          -2 callgsubr
          hstemhm
          hintmask 01100000
          557 hmoveto
          -44 callsubr
        </CharString>
        <CharString name="uacute">
          -2 callgsubr
          hstemhm
          hintmask 01100000
          495 706 -106 callgsubr
          248 -572 -45 callsubr
        </CharString>
        <CharString name="ubreve">
          -2 callgsubr
          71 27 callsubr
          242 59 hintmask 01110100
          -54 callgsubr
          hintmask 10110100
          -101 callgsubr
          -15 -91 rlineto
          hintmask 01101100
          22 callsubr
          11 715 rmoveto
          -12 callgsubr
          hintmask 10110100
          -35 callgsubr
          hintmask 10101100
          -73 callgsubr
        </CharString>
        <CharString name="ucircumflex">
          -2 callgsubr
          271 -20 hstemhm
          hintmask 01110000
          537 -79 callsubr
          49 -575 rmoveto
          -89 callsubr
          hintmask 10110000
          -101 callgsubr
          -15 -91 rlineto
          hintmask 01110000
          22 callsubr
          endchar
        </CharString>
        <CharString name="udieresis">
          -2 callgsubr
          64 85 hstemhm
          249 85 73 85 hintmask 01111100
          334 -39 callsubr
          65 -603 rmoveto
          -89 callsubr
          hintmask 10111100
          -101 callgsubr
          -15 -91 rlineto
          hintmask 01111100
          22 callsubr
          endchar
        </CharString>
        <CharString name="ugrave">
          -2 callgsubr
          hstemhm
          hintmask 01100000
          -54 callgsubr
          hintmask 10100000
          -101 callgsubr
          -15 -91 rlineto
          hintmask 01100000
          22 callsubr
          -29 604 rmoveto
          -96 callgsubr
        </CharString>
        <CharString name="uhungarumlaut">
          -2 callgsubr
          hstemhm
          hintmask 01100000
          -54 callgsubr
          hintmask 10100000
          -101 callgsubr
          -15 -91 rlineto
          hintmask 01100000
          22 callsubr
          -43 -55 callsubr
          endchar
        </CharString>
        <CharString name="umacron">
          -2 callgsubr
          62 69 hstemhm
          hintmask 01110000
          -54 callgsubr
          hintmask 10110000
          -101 callgsubr
          -15 -91 rlineto
          hintmask 01110000
          22 callsubr
          42 554 -76 callsubr
          endchar
        </CharString>
        <CharString name="underscore">
          -91 -100 77 hstem
          488 -100 61 callsubr
          8 51 -45 callgsubr
          -451 -28 callsubr
        </CharString>
        <CharString name="uogonek">
          -37 -161 45 109 23 callsubr
          hstemhm
          399 53 hintmask 10111000
          -54 callgsubr
          hintmask 11011000
          -101 callgsubr
          -15 -91 rlineto
          hintmask 10111000
          22 callsubr
          12 -47 callsubr
          -7 13 rcurveline
          -3 8 -7 -3 -8 -3 rrcurveto
          -5 -9 -16 -6 -16 hhcurveto
          -20 -14 8 21 43 60 33 22 11 hvcurveto
          endchar
        </CharString>
        <CharString name="uring">
          -2 callgsubr
          hstemhm
          hintmask 01100000
          425 608 -70 callgsubr
          152 -626 -45 callsubr
        </CharString>
        <CharString name="utilde">
          -2 callgsubr
          67 15 callsubr
          hintmask 01111000
          -54 callgsubr
          hintmask 10111000
          -101 callgsubr
          -15 -91 rlineto
          hintmask 01110100
          22 callsubr
          38 38 callsubr
          hintmask 10111000
          -81 callgsubr
          hintmask 10110100
          -4 callgsubr
        </CharString>
        <CharString name="v">
          -57 21 -21 425 67 hstem
          326 hmoveto
          14 4 4 14 8 hvcurveto
          217 407 rlineto
          56 hlineto
          7 6 4 8 1 hvcurveto
          6 43 rlineto
          8 1 -4 4 callsubr
          4 -4 7 hhcurveto
          45 hlineto
          -177 -337 rlineto
          -2 hlineto
          -81 337 rlineto
          44 5 callsubr
          1 -3 4 -8 hhcurveto
          -186 -17 callgsubr
          101 -407 rlineto
          -14 3 3 -4 14 hhcurveto
          endchar
        </CharString>
        <CharString name="w">
          53 callgsubr
          hstem
          576 hmoveto
          14 7 7 14 6 hvcurveto
          189 404 rlineto
          54 hlineto
          8 6 4 8 1 hvcurveto
          6 43 rlineto
          8 1 -4 4 callsubr
          3 -4 8 hhcurveto
          45 hlineto
          -146 -337 rlineto
          -2 hlineto
          -42 337 rlineto
          39 hlineto
          8 5 26 callsubr
          -176 hlineto
          -8 -4 -102 callgsubr
          38 hlineto
          -135 -337 rlineto
          -2 hlineto
          -54 337 rlineto
          46 48 callsubr
          -3 4 -8 hhcurveto
          -187 -17 callgsubr
          75 -404 rlineto
          -14 2 4 -7 15 hhcurveto
          58 hlineto
          15 8 6 15 5 hvcurveto
          132 335 rlineto
          3 hlineto
          37 -335 rlineto
          -15 7 -6 14 vhcurveto
          endchar
        </CharString>
        <CharString name="wacute">
          53 callgsubr
          hstem
          635 706 -106 callgsubr
          127 -572 rmoveto
          14 7 7 14 6 hvcurveto
          189 404 rlineto
          54 hlineto
          8 6 4 8 1 hvcurveto
          6 43 rlineto
          8 1 -4 4 callsubr
          3 -4 8 hhcurveto
          45 hlineto
          -146 -337 rlineto
          -2 hlineto
          -42 337 rlineto
          39 hlineto
          8 5 26 callsubr
          -176 hlineto
          -8 -4 -102 callgsubr
          38 hlineto
          -135 -337 rlineto
          -2 hlineto
          -54 337 rlineto
          46 48 callsubr
          -3 4 -8 hhcurveto
          -187 -17 callgsubr
          75 -404 rlineto
          -14 2 4 -7 15 hhcurveto
          58 hlineto
          15 8 6 15 5 hvcurveto
          132 335 rlineto
          3 hlineto
          37 -335 rlineto
          -15 7 -6 14 vhcurveto
          endchar
        </CharString>
        <CharString name="wcircumflex">
          53 callgsubr
          70 callsubr
          662 -79 callsubr
          -57 -575 rmoveto
          14 7 7 14 6 hvcurveto
          189 404 rlineto
          54 hlineto
          8 6 4 8 1 hvcurveto
          6 43 rlineto
          8 1 -4 4 callsubr
          3 -4 8 hhcurveto
          45 hlineto
          -146 -337 rlineto
          -2 hlineto
          -42 337 rlineto
          39 hlineto
          8 5 26 callsubr
          -176 hlineto
          -8 -4 -102 callgsubr
          38 hlineto
          -135 -337 rlineto
          -2 hlineto
          -54 337 rlineto
          46 48 callsubr
          -3 4 -8 hhcurveto
          -187 -17 callgsubr
          75 -404 rlineto
          -14 2 4 -7 15 hhcurveto
          58 hlineto
          15 8 6 15 5 hvcurveto
          132 335 rlineto
          3 hlineto
          37 -335 rlineto
          -15 7 -6 14 vhcurveto
          endchar
        </CharString>
        <CharString name="wdieresis">
          53 callgsubr
          64 85 hstem
          374 86 callsubr
          459 -39 callsubr
          -41 -603 rmoveto
          14 7 7 14 6 hvcurveto
          189 404 rlineto
          54 hlineto
          8 6 4 8 1 hvcurveto
          6 43 rlineto
          8 1 -4 4 callsubr
          3 -4 8 hhcurveto
          45 hlineto
          -146 -337 rlineto
          -2 hlineto
          -42 337 rlineto
          39 hlineto
          8 5 26 callsubr
          -176 hlineto
          -8 -4 -102 callgsubr
          38 hlineto
          -135 -337 rlineto
          -2 hlineto
          -54 337 rlineto
          46 48 callsubr
          -3 4 -8 hhcurveto
          -187 -17 callgsubr
          75 -404 rlineto
          -14 2 4 -7 15 hhcurveto
          58 hlineto
          15 8 6 15 5 hvcurveto
          132 335 rlineto
          3 hlineto
          37 -335 rlineto
          -15 7 -6 14 vhcurveto
          endchar
        </CharString>
        <CharString name="wgrave">
          53 callgsubr
          hstem
          576 hmoveto
          14 7 7 14 6 hvcurveto
          189 404 rlineto
          54 hlineto
          8 6 4 8 1 hvcurveto
          6 43 rlineto
          8 1 -4 4 callsubr
          3 -4 8 hhcurveto
          45 hlineto
          -146 -337 rlineto
          -2 hlineto
          -42 337 rlineto
          39 hlineto
          8 5 26 callsubr
          -176 hlineto
          -8 -4 -102 callgsubr
          38 hlineto
          -135 -337 rlineto
          -2 hlineto
          -54 337 rlineto
          46 48 callsubr
          -3 4 -8 hhcurveto
          -187 -17 callgsubr
          75 -404 rlineto
          -14 2 4 -7 15 hhcurveto
          58 hlineto
          15 8 6 15 5 hvcurveto
          132 335 rlineto
          3 hlineto
          37 -335 rlineto
          -15 7 -6 14 vhcurveto
          52 604 rmoveto
          -96 callgsubr
        </CharString>
        <CharString name="x">
          -88 33 callgsubr
          hstem
          523 hmoveto
          7 -87 callgsubr
          -43 hlineto
          -121 173 162 185 rlineto
          53 78 callgsubr
          6 -58 callsubr
          -169 -97 callsubr
          -1 4 -4 8 hhcurveto
          39 hlineto
          -121 -143 -98 143 rlineto
          47 hlineto
          8 4 4 8 2 -69 callgsubr
          -187 -97 callsubr
          -1 4 -4 8 hhcurveto
          48 hlineto
          121 -174 -172 -184 rlineto
          -48 -97 callsubr
          -1 3 -4 8 hhcurveto
          169 35 callgsubr
          -45 hlineto
          131 145 97 -145 rlineto
          -50 -97 callsubr
          -1 3 -4 8 hhcurveto
          endchar
        </CharString>
        <CharString name="y">
          -55 49 callgsubr
          hstem
          -95 callgsubr
          endchar
        </CharString>
        <CharString name="y.alt">
          28 callsubr
          hstem
          -92 callgsubr
          endchar
        </CharString>
        <CharString name="yacute">
          -55 49 callgsubr
          hstem
          -95 callgsubr
          251 695 -68 callgsubr
        </CharString>
        <CharString name="yacute.alt">
          28 callsubr
          hstem
          -92 callgsubr
          52 573 -68 callgsubr
        </CharString>
        <CharString name="ycircumflex">
          -55 49 callgsubr
          70 callsubr
          -95 callgsubr
          277 593 -84 callgsubr
        </CharString>
        <CharString name="ycircumflex.alt">
          28 callsubr
          70 callsubr
          -92 callgsubr
          95 471 -84 callgsubr
        </CharString>
        <CharString name="ydieresis">
          -55 49 callgsubr
          64 85 hstem
          264 86 callsubr
          -95 callgsubr
          74 592 -94 callgsubr
          endchar
        </CharString>
        <CharString name="ydieresis.alt">
          28 callsubr
          64 85 hstem
          254 86 callsubr
          -92 callgsubr
          -108 470 -94 callgsubr
          endchar
        </CharString>
        <CharString name="yen">
          114 0 75 140 64 76 64 224 75 hstem
          -23 callgsubr
          20 140 rlineto
          119 hlineto
          8 5 -53 callsubr
          5 39 -74 callsubr
          -109 hlineto
          4 26 37 50 rlineto
          121 hlineto
          7 18 callgsubr
          6 39 -105 callgsubr
          -81 hlineto
          158 224 rlineto
          -32 callsubr
          -226 hlineto
          -7 -6 6 callgsubr
          8 hhcurveto
          65 hlineto
          -194 -278 rlineto
          -6 hlineto
          -118 278 rlineto
          66 -50 callsubr
          -225 -98 callsubr
          68 hlineto
          95 -224 rlineto
          -84 hlineto
          -8 -4 -4 -8 -2 hvcurveto
          -5 -39 rlineto
          -8 -1 4 -5 7 hhcurveto
          125 hlineto
          22 -50 -4 -26 rlineto
          -113 -77 callsubr
          -39 -56 callsubr
          125 hlineto
          -20 -140 rlineto
          -76 -23 callsubr
          endchar
        </CharString>
        <CharString name="ygrave">
          -55 49 callgsubr
          hstem
          -95 callgsubr
          199 593 rmoveto
          -96 callgsubr
        </CharString>
        <CharString name="ygrave.alt">
          28 callsubr
          hstem
          -92 callgsubr
          17 471 rmoveto
          -96 callgsubr
        </CharString>
</ttFont>
